<?xml version="1.0" encoding="UTF-8"?>
<svg version="1.1" xmlns="http://www.w3.org/2000/svg" width="512" height="512">
<path d="M0 0 C1.29164062 -0.0515625 2.58328125 -0.103125 3.9140625 -0.15625 C18.67377439 1.18812817 28.76169603 14.04343446 38.46875 23.8671875 C40.18977288 25.58924933 41.91183691 27.3102712 43.6348877 29.03030396 C47.22804433 32.62363925 50.81071227 36.22701083 54.38574219 39.83837891 C58.95948396 44.45759504 63.55515396 49.05422612 68.15840912 53.64401054 C71.71087727 57.18978598 75.25327649 60.74548159 78.79255676 64.30441666 C80.48352866 66.00306238 82.17717618 67.69904907 83.87358093 69.39226913 C86.24280915 71.76075266 88.59858163 74.14185952 90.95117188 76.52685547 C91.99535782 77.56360916 91.99535782 77.56360916 93.06063843 78.62130737 C100.12811612 85.84417614 104.06660183 93.91568934 104.48046875 104.09375 C103.83750489 120.66792944 92.12584218 130.50797403 81 141.25 C79.48428633 142.73556151 77.96995084 144.22253054 76.45703125 145.7109375 C72.7787112 149.32371738 69.08225903 152.91693192 65.375 156.5 C71.94922802 170.94860624 71.94922802 170.94860624 79.75 184.75 C80.2042334 185.47904541 80.6584668 186.20809082 81.12646484 186.95922852 C91.555245 203.46280001 103.97885763 218.34333451 117.375 232.5 C118.01308594 233.180625 118.65117187 233.86125 119.30859375 234.5625 C124.25677795 239.68867644 129.7998252 244.0790606 135.375 248.5 C136.365 249.29535156 137.355 250.09070313 138.375 250.91015625 C150.56567081 260.52554785 163.532952 268.63529817 177.125 276.125 C178.06593506 276.64626465 179.00687012 277.1675293 179.97631836 277.70458984 C180.86585205 278.18621582 181.75538574 278.6678418 182.671875 279.1640625 C183.45916992 279.59154785 184.24646484 280.0190332 185.05761719 280.45947266 C188.56653036 282.12194199 188.56653036 282.12194199 192.375 282.5 C195.02646484 280.66139337 197.13161652 278.34186244 199.328125 275.9921875 C199.98778259 275.31455353 200.64744019 274.63691956 201.3270874 273.93875122 C203.44115404 271.76455105 205.53446411 269.57181803 207.625 267.375 C209.70271237 265.20120007 211.78474692 263.03235951 213.88006592 260.8755188 C215.18306773 259.5334558 216.47614185 258.18165323 217.75714111 256.818573 C224.99811718 249.34173806 233.55360116 244.54373504 244.0625 244.125 C263.25322965 244.57570935 275.05271285 260.98691678 287.70703125 273.55859375 C288.4749317 274.32117052 289.24283215 275.08374729 290.0340023 275.86943245 C294.08892089 279.89780391 298.14027995 283.92972036 302.18920898 287.96411133 C305.52344347 291.28496317 308.86481509 294.59837446 312.21264648 297.90551758 C316.28132052 301.92477566 320.33748929 305.95626243 324.38507652 309.99675179 C325.92012472 311.52511441 327.45940281 313.04924159 329.00309181 314.56887627 C331.16356927 316.69756063 333.30755482 318.84167193 335.44848633 320.98999023 C336.07870193 321.60380051 336.70891754 322.21761078 337.35823059 322.85002136 C344.15012143 329.73770004 348.45606321 337.93140024 348.625 347.6875 C348.42678465 366.27018892 332.65526444 378.40674467 320.375 390.5 C324.28606279 395.21286307 328.38179936 399.58416605 332.8046875 403.81640625 C334.02550647 405.00507226 335.24553338 406.19455218 336.46484375 407.38476562 C338.34866807 409.21958028 340.23627999 411.04939911 342.13818359 412.86547852 C354.86670452 425.04498453 364.95710525 437.90605736 365.77294922 456.25585938 C366.07040451 471.72353466 360.81496176 485.23358555 350.34765625 496.62109375 C341.63493412 504.91974592 330.69445567 510.60779642 318.51018524 510.63422108 C317.5523465 510.63867892 316.59450776 510.64313676 315.6076436 510.64772969 C314.56338953 510.64754533 313.51913545 510.64736097 312.4432373 510.64717102 C311.32768322 510.65084771 310.21212913 510.6545244 309.06277037 510.6583125 C305.31723289 510.66934345 301.57172316 510.67319213 297.82617188 510.67700195 C295.14392431 510.68326681 292.4616797 510.68990084 289.7794342 510.69691467 C281.72803927 510.71664809 273.67664313 510.72673874 265.62523007 510.73564246 C261.83335873 510.74002819 258.04148878 510.74539405 254.24961853 510.75063133 C241.64610331 510.76763617 229.04258895 510.78213243 216.43906403 510.78938007 C213.17080179 510.79128993 209.90253956 510.79321027 206.63427734 510.79516602 C205.41582918 510.79589163 205.41582918 510.79589163 204.17276591 510.7966319 C191.00087057 510.80494028 177.8290658 510.83029411 164.65721005 510.86274669 C151.13416739 510.89579321 137.61117082 510.91382642 124.08808756 510.91702431 C116.4951048 510.91919103 108.90225435 510.92796388 101.30931091 510.95348549 C94.84635915 510.97515917 88.38357188 510.98325922 81.9205879 510.97351871 C78.62265207 510.96896497 75.3251278 510.97309118 72.02722359 510.99028015 C68.45344678 511.00786895 64.88053878 511.00095644 61.3067627 510.98774719 C60.26250862 510.99871644 59.21825454 511.00968568 58.1423564 511.02098733 C53.69266071 510.98112429 51.11441661 510.95147909 47.25426483 508.5945158 C43.9019964 504.85827859 44.04686681 501.85113355 44.08203125 496.984375 C44.48962127 493.52801166 45.83776502 491.81336131 48.375 489.5 C50.71723135 488.32888432 52.09022107 488.37210383 54.70053101 488.36692142 C56.07145322 488.36055986 56.07145322 488.36055986 57.47007084 488.35406977 C58.98607962 488.35464897 58.98607962 488.35464897 60.53271484 488.35523987 C61.60134231 488.35171302 62.66996977 488.34818618 63.77097988 488.34455246 C67.37597004 488.33382064 70.98093382 488.33017667 74.5859375 488.32641602 C77.16110853 488.32011402 79.73627846 488.31334862 82.31144714 488.30615234 C87.87007298 488.29119844 93.42869745 488.27966034 98.98733521 488.27020454 C107.03514728 488.25633676 115.0829279 488.23514847 123.1307174 488.21177601 C136.20123253 488.17383278 149.27175339 488.13887758 162.34228516 488.10717773 C163.12506273 488.10527724 163.90784031 488.10337675 164.71433842 488.10141867 C175.80956878 488.07461813 186.90480352 488.05073775 198.00004292 488.02803367 C198.78039496 488.02643637 199.56074701 488.02483906 200.36474609 488.02319336 C201.53384663 488.02080316 201.53384663 488.02080316 202.72656536 488.01836468 C215.73766278 487.99156582 228.74872693 487.95715047 241.75978851 487.91653961 C249.78274133 487.89180322 257.80565839 487.87345495 265.82864326 487.863384 C271.98477391 487.8550962 278.1408352 487.83657791 284.29693031 487.81432343 C286.81798847 487.80685961 289.33905924 487.80276757 291.8601284 487.80232811 C295.30732145 487.80124218 298.75426565 487.78796334 302.20141602 487.77174377 C303.19424276 487.77436063 304.18706951 487.77697748 305.20998192 487.77967364 C314.87779777 487.70884334 324.57372531 486.71212614 332.375 480.5 C338.83895515 473.22188256 341.95645665 465.87001804 341.67578125 456.10546875 C339.92679075 440.95512244 325.53300344 430.51781999 315.3125 420.375 C314.14885247 419.21638288 312.98543954 418.0575301 311.82226562 416.8984375 C309.00919935 414.09624236 306.19300626 411.29722686 303.375 408.5 C300.09225676 411.29532555 296.82201837 414.09431334 293.62890625 416.9921875 C277.38090985 431.37720608 258.32195004 437.59753564 236.67431641 436.67480469 C217.97948151 435.25353671 203.27665838 425.84690701 188.53955078 415.07177734 C185.74756339 413.04439015 182.92220342 411.06706579 180.09423828 409.09033203 C165.19503517 398.66540581 150.54993957 387.89239345 136.375 376.5 C135.7346582 375.9858252 135.09431641 375.47165039 134.43457031 374.94189453 C125.85590446 368.04040139 117.36835799 361.03959185 108.99902344 353.88574219 C107.30785779 352.44270908 105.61125381 351.00625183 103.9140625 349.5703125 C96.92432064 343.63956388 90.10623959 337.56028751 83.40234375 331.30859375 C80.69951503 328.78999065 77.95046702 326.32761815 75.1875 323.875 C70.87181297 320.01396395 66.80268715 315.94697519 62.734375 311.828125 C60.71385937 309.83437117 58.66004812 307.96371865 56.5 306.125 C48.83548022 299.54874875 41.7527065 292.2473761 35.21484375 284.55859375 C32.87003704 281.93499898 30.37849362 279.4703153 27.875 277 C24.17090208 273.34007996 20.62212232 269.61056204 17.2421875 265.6484375 C15.34713084 263.46793298 13.39547908 261.34617469 11.43017578 259.22900391 C6.69118361 254.12111784 2.18242921 248.89994773 -2.1875 243.46875 C-5.05426803 239.97717355 -8.02293318 236.58490453 -11 233.1875 C-16.61150283 226.75766991 -21.94259888 220.15816691 -27.15332031 213.40136719 C-28.7360899 211.35647509 -30.33179524 209.3221568 -31.9296875 207.2890625 C-90.30762451 132.89434092 -90.30762451 132.89434092 -87.625 93.5 C-84.12144705 66.17902462 -61.6600504 47.34151426 -43.31542969 28.95019531 C-40.98951812 26.61447391 -38.67451152 24.26827075 -36.359375 21.921875 C-14.94823813 0.35380445 -14.94823813 0.35380445 0 0 Z M-7.9609375 26.8515625 C-8.80366211 27.6755957 -9.64638672 28.49962891 -10.51464844 29.34863281 C-10.99526733 29.83690552 -11.47588623 30.32517822 -11.97106934 30.82824707 C-13.87706867 32.75478488 -15.8162623 34.64448246 -17.75878906 36.53417969 C-21.78124688 40.45790709 -25.76997556 44.41413081 -29.74804688 48.3828125 C-32.24421307 50.86923565 -34.75086656 53.34476471 -37.2578125 55.8203125 C-57.52812382 75.68832241 -57.52812382 75.68832241 -65.00634766 102.26049805 C-64.94654726 125.12494973 -52.36121329 140.44841252 -39.29394531 158.21777344 C-37.64663005 160.47042164 -36.01919112 162.73599534 -34.3984375 165.0078125 C-20.6204158 184.30668812 -5.88987784 202.88931987 9.50170898 220.92578125 C12.2716097 224.17488436 14.96286558 227.47489863 17.625 230.8125 C22.11872285 236.34448372 26.97359277 241.50694839 31.88378906 246.66723633 C34.99185381 249.93630443 38.03939176 253.23393149 40.9921875 256.64453125 C43.8301708 259.91542051 46.77683471 262.97473271 49.875 266 C52.97214402 269.05098845 55.99451134 272.12343509 58.8125 275.4375 C65.35959082 283.08626476 72.65162928 290.14270556 80.31640625 296.66015625 C82.94000102 299.00496296 85.4046847 301.49650638 87.875 304 C91.53492004 307.70409792 95.26443796 311.25287768 99.2265625 314.6328125 C101.40715407 316.52794481 103.52899725 318.47967328 105.64624023 320.44506836 C110.77621405 325.20449441 116.01869464 329.73913227 121.47265625 334.12890625 C124.76463528 336.81831577 127.97494494 339.59181954 131.1875 342.375 C137.46034932 347.78625049 143.90125651 352.93991422 150.453125 358.0078125 C152.51763859 359.61074785 154.57182476 361.22632058 156.625 362.84375 C167.01498724 371.00999532 177.60376934 378.84525807 188.375 386.5 C189.46409668 387.27754639 189.46409668 387.27754639 190.57519531 388.07080078 C194.8123381 391.09557094 199.06322872 394.09924569 203.33447266 397.07568359 C204.69106347 398.02260281 206.04493134 398.97343541 207.39599609 399.92822266 C221.54380207 409.90490703 234.75912235 415.65315051 252.50390625 413.0390625 C263.2298219 410.66174091 271.1690237 405.92024775 279.0546875 398.43359375 C279.69754196 397.82806671 280.34039642 397.22253967 281.00273132 396.59866333 C288.71989669 389.28830541 296.26186881 381.79920327 303.77758789 374.28271484 C306.22458643 371.83794739 308.67954928 369.40135507 311.13476562 366.96484375 C312.70100744 365.40152904 314.26678091 363.83774492 315.83203125 362.2734375 C316.56210892 361.55054535 317.29218658 360.8276532 318.04438782 360.08285522 C318.71656845 359.40759796 319.38874908 358.7323407 320.08129883 358.03662109 C320.67115067 357.44819427 321.2610025 356.85976746 321.86872864 356.25350952 C324.53947521 353.14438877 325.35954621 351.4116208 325.43045044 347.22897339 C323.9801941 342.10512571 321.22738049 339.50987396 317.48779297 335.83642578 C316.7673732 335.1054921 316.04695343 334.37455841 315.30470276 333.62147522 C312.9237194 331.21412554 310.52150511 328.82934101 308.1171875 326.4453125 C306.45298836 324.7770709 304.7896807 323.10793954 303.12722778 321.43795776 C299.64136939 317.94325726 296.1448988 314.45962992 292.640625 310.98339844 C288.1510539 306.52801111 283.68895714 302.04622961 279.23446465 297.5558033 C275.80519091 294.10484195 272.36174626 290.66830735 268.91385269 287.2359581 C267.26283435 285.58894048 265.61625661 283.93745897 263.97423935 282.28146744 C261.67656357 279.96854274 259.36050911 277.67574268 257.03857422 275.38720703 C256.0267231 274.35713783 256.0267231 274.35713783 254.99443054 273.30625916 C250.97229724 269.39058094 248.26035579 267.46437636 242.375 267.5 C236.64929947 270.28241838 232.5780291 275.17146282 228.23046875 279.73046875 C226.65129896 281.35439942 225.07119184 282.97741903 223.49023438 284.59960938 C221.01885364 287.14523232 218.55418504 289.69621646 216.10522461 292.26342773 C213.72774025 294.75007378 211.32545093 297.21040036 208.91796875 299.66796875 C207.83469551 300.82258858 207.83469551 300.82258858 206.72953796 302.00053406 C202.50744218 306.26516786 199.52971537 308.3647102 193.45539856 308.6870575 C189.56967417 308.33767547 186.33635972 306.83993757 182.875 305.125 C182.10019287 304.75922852 181.32538574 304.39345703 180.52709961 304.01660156 C178.12899246 302.87096093 175.75080206 301.69111893 173.375 300.5 C172.65715332 300.14583008 171.93930664 299.79166016 171.19970703 299.42675781 C154.52855143 291.14733141 138.83246659 281.22122124 124.375 269.5 C123.44558594 268.76265625 122.51617187 268.0253125 121.55859375 267.265625 C107.77663643 256.20869195 94.56525574 244.07293091 83.66015625 230.14013672 C82.74835287 228.97647883 81.83111907 227.81706685 80.91015625 226.66064453 C38.709174 173.60685357 38.709174 173.60685357 39.86567688 151.89035034 C40.47774307 149.01780724 41.45661448 147.83373088 43.43823242 145.68798828 C44.07465668 144.99570129 44.71108093 144.30341431 45.36679077 143.59014893 C48.51810647 140.31025208 51.72853328 137.10164317 54.98828125 133.9296875 C56.41514869 132.52518152 57.84156815 131.12022031 59.26757812 129.71484375 C61.4861178 127.53352211 63.7075543 125.35547465 65.93676758 123.18505859 C68.10893131 121.06737143 70.26818451 118.93720085 72.42578125 116.8046875 C73.09346024 116.16079071 73.76113922 115.51689392 74.4490509 114.85348511 C77.96521079 111.35741101 80.59016525 108.58642488 81.375 103.5 C80.07444108 98.13005182 76.16405714 94.83139824 72.39013672 91.04760742 C71.67117722 90.3153595 70.95221771 89.58311157 70.21147156 88.82867432 C67.83411271 86.41264765 65.44538045 84.00829767 63.0546875 81.60546875 C61.39511306 79.93117509 59.73561915 78.25680162 58.07620239 76.58235168 C54.5965034 73.07566724 51.11014172 69.5757519 47.62011719 66.0793457 C43.14908527 61.5974319 38.70405135 57.0906437 34.26478386 52.57729626 C30.84671887 49.11087877 27.41084237 45.66254475 23.96979141 42.2189579 C22.32296808 40.56489933 20.68277205 38.90421494 19.04940414 37.2368679 C16.76348747 34.90705635 14.45366004 32.60382939 12.13623047 30.30541992 C11.46682938 29.61196976 10.79742828 28.91851959 10.10774231 28.20405579 C6.86359704 25.0377332 4.69146872 23.09195201 0.0345459 22.99198914 C-3.94503514 23.54442664 -5.17529335 24.05650057 -7.9609375 26.8515625 Z " fill="#000000" transform="translate(87.625,1.5)"/>
<path d="M0 0 C0.66363556 0.00182281 1.32727112 0.00364563 2.01101685 0.00552368 C11.80834536 0.05086596 20.8224143 0.48307878 30.25 3.3125 C31.44496094 3.64121094 32.63992188 3.96992187 33.87109375 4.30859375 C61.11278348 12.50094373 85.53851253 31.57741669 99.46923828 56.49316406 C113.16477449 82.22085534 118.54702354 113.89989471 110.50390625 142.35546875 C110.09281087 143.67663753 109.67483185 144.99568405 109.25 146.3125 C108.93651611 147.32691162 108.93651611 147.32691162 108.61669922 148.36181641 C103.98341798 163.03213834 96.26902904 175.68074999 86.25 187.3125 C85.36634766 188.41271484 85.36634766 188.41271484 84.46484375 189.53515625 C67.08749122 210.45438956 39.8260004 222.83359086 13.1875 226.0625 C11.5432821 226.17322174 9.89688544 226.25350709 8.25 226.3125 C7.09757812 226.3640625 5.94515625 226.415625 4.7578125 226.46875 C-14.75020777 226.93230692 -35.67003315 223.46908975 -52.51171875 213.09765625 C-58.05713136 211.1524068 -64.10571651 213.97793095 -69.3359375 216 C-70.77598502 216.53921382 -72.21609101 217.07827147 -73.65625 217.6171875 C-75.89097241 218.46304953 -78.12435562 219.31225381 -80.35644531 220.16503906 C-99.86819013 227.59275665 -99.86819013 227.59275665 -105.7590332 225.64990234 C-108.55867589 224.25273922 -110.4818278 222.70358446 -112.25 220.125 C-113.51332997 213.01876894 -111.34155718 206.33850382 -108.7734375 199.76953125 C-108.17952666 198.18560717 -107.58578148 196.60162097 -106.9921875 195.01757812 C-106.05715534 192.56053235 -105.11745124 190.10537051 -104.17382812 187.65161133 C-103.25753232 185.25776474 -102.35856813 182.8579268 -101.4609375 180.45703125 C-101.03136246 179.36464897 -101.03136246 179.36464897 -100.59310913 178.25019836 C-98.33264052 172.17306959 -98.80417672 168.59637773 -101.23828125 162.71875 C-101.84289499 161.41505682 -102.45112802 160.11303758 -103.0625 158.8125 C-115.60748946 131.00203678 -115.9300895 100.11203953 -105.4765625 71.6015625 C-94.238509 42.78703778 -71.63731629 20.77884628 -43.65625 8.11474609 C-29.49201594 2.15372239 -15.30421589 -0.06649398 0 0 Z M-64.5703125 50.0078125 C-80.9013628 67.13793559 -89.61565273 89.5173101 -90.1875 113.0625 C-89.71979051 127.45236205 -86.33221736 141.68404099 -79.61328125 154.4609375 C-79.24420654 155.16476563 -78.87513184 155.86859375 -78.49487305 156.59375 C-77.7686364 157.95154496 -77.02241185 159.29890858 -76.25317383 160.6328125 C-73.67596937 165.37903637 -73.33424649 169.04382276 -74.75 174.3125 C-75.80874517 177.65832699 -77.03176689 180.92099655 -78.3125 184.1875 C-78.96238044 185.87133896 -79.6096517 187.55618801 -80.25390625 189.2421875 C-80.54080322 189.97679199 -80.8277002 190.71139648 -81.12329102 191.46826172 C-81.85724998 193.30347258 -81.85724998 193.30347258 -81.75 195.3125 C-74.7415902 193.32624561 -68.00312056 190.91998955 -61.2421875 188.203125 C-54.82883264 186.5675043 -50.10521487 187.73055989 -44.47607422 190.99169922 C-43.88584473 191.34506348 -43.29561523 191.69842773 -42.6875 192.0625 C-21.22310588 204.14467597 2.20049557 205.96818319 25.828125 199.99707031 C48.33471313 193.63532907 67.77615075 177.68790428 79.48046875 157.58984375 C90.84565871 136.92990724 94.21840795 112.19950141 88.22558594 89.2409668 C81.35738236 66.20173166 66.1499234 46.14269562 45.13134766 34.32080078 C7.85271552 14.3414664 -34.23753079 21.01942001 -64.5703125 50.0078125 Z " fill="#32CCCC" transform="translate(398.75,-0.3125)"/>
<path d="M0 0 C6.80892628 5.71503742 13.15656201 11.83007426 19.47875977 18.07373047 C20.7765317 19.34998879 22.08052223 20.61995669 23.39086914 21.88330078 C36.88431913 34.89939216 47.06179329 48.27575084 47.4375 67.8125 C47.32940646 82.5271686 41.89000951 95.33188525 31.97265625 106.12109375 C23.25993412 114.41974592 12.31945567 120.10779642 0.13518524 120.13422108 C-0.8226535 120.13867892 -1.78049224 120.14313676 -2.7673564 120.14772969 C-3.81161047 120.14754533 -4.85586455 120.14736097 -5.9317627 120.14717102 C-7.04731678 120.15084771 -8.16287087 120.1545244 -9.31222963 120.1583125 C-13.05776711 120.16934345 -16.80327684 120.17319213 -20.54882812 120.17700195 C-23.23107569 120.18326681 -25.9133203 120.18990084 -28.5955658 120.19691467 C-36.64696073 120.21664809 -44.69835687 120.22673874 -52.74976993 120.23564246 C-56.54164127 120.24002819 -60.33351122 120.24539405 -64.12538147 120.25063133 C-76.72889669 120.26763617 -89.33241105 120.28213243 -101.93593597 120.28938007 C-105.20419821 120.29128993 -108.47246044 120.29321027 -111.74072266 120.29516602 C-112.95917082 120.29589163 -112.95917082 120.29589163 -114.20223409 120.2966319 C-127.37412943 120.30494028 -140.5459342 120.33029411 -153.71778995 120.36274669 C-167.24083261 120.39579321 -180.76382918 120.41382642 -194.28691244 120.41702431 C-201.8798952 120.41919103 -209.47274565 120.42796388 -217.06568909 120.45348549 C-223.52864085 120.47515917 -229.99142812 120.48325922 -236.4544121 120.47351871 C-239.75234793 120.46896497 -243.0498722 120.47309118 -246.34777641 120.49028015 C-249.92155322 120.50786895 -253.49446122 120.50095644 -257.0682373 120.48774719 C-258.11249138 120.49871644 -259.15674546 120.50968568 -260.2326436 120.52098733 C-264.68233929 120.48112429 -267.26058339 120.45147909 -271.12073517 118.0945158 C-274.4730036 114.35827859 -274.32813319 111.35113355 -274.29296875 106.484375 C-273.88537873 103.02801166 -272.53723498 101.31336131 -270 99 C-267.65776865 97.82888432 -266.28477893 97.87210383 -263.67446899 97.86692142 C-262.76052085 97.86268038 -261.8465727 97.85843933 -260.90492916 97.85406977 C-259.38892038 97.85464897 -259.38892038 97.85464897 -257.84228516 97.85523987 C-256.77365769 97.85171302 -255.70503023 97.84818618 -254.60402012 97.84455246 C-250.99902996 97.83382064 -247.39406618 97.83017667 -243.7890625 97.82641602 C-241.21389147 97.82011402 -238.63872154 97.81334862 -236.06355286 97.80615234 C-230.50492702 97.79119844 -224.94630255 97.77966034 -219.38766479 97.77020454 C-211.33985272 97.75633676 -203.2920721 97.73514847 -195.2442826 97.71177601 C-182.17376747 97.67383278 -169.10324661 97.63887758 -156.03271484 97.60717773 C-155.24993727 97.60527724 -154.46715969 97.60337675 -153.66066158 97.60141867 C-142.56543122 97.57461813 -131.47019648 97.55073775 -120.37495708 97.52803367 C-119.59460504 97.52643637 -118.81425299 97.52483906 -118.01025391 97.52319336 C-116.84115337 97.52080316 -116.84115337 97.52080316 -115.64843464 97.51836468 C-102.63733722 97.49156582 -89.62627307 97.45715047 -76.61521149 97.41653961 C-68.59225867 97.39180322 -60.56934161 97.37345495 -52.54635674 97.363384 C-46.39022609 97.3550962 -40.2341648 97.33657791 -34.07806969 97.31432343 C-31.55701153 97.30685961 -29.03594076 97.30276757 -26.5148716 97.30232811 C-23.06767855 97.30124218 -19.62073435 97.28796334 -16.17358398 97.27174377 C-14.68434386 97.27566906 -14.68434386 97.27566906 -13.16501808 97.27967364 C-3.49720223 97.20884334 6.19872531 96.21212614 14 90 C20.46395515 82.72188256 23.58145665 75.37001804 23.30078125 65.60546875 C21.5423102 50.37299872 6.71261604 39.57521835 -3.5625 29.375 C-4.77432426 28.1682054 -5.98591434 26.96117561 -7.19726562 25.75390625 C-10.12882471 22.83322593 -13.06351021 19.91572253 -16 17 C-12.37068427 12.67116166 -8.65033216 8.53343578 -4.625 4.5625 C-3.75101562 3.69753906 -2.87703125 2.83257812 -1.9765625 1.94140625 C-1.32429688 1.30074219 -0.67203125 0.66007812 0 0 Z " fill="#32CCCC" transform="translate(406,392)"/>
<path d="M0 0 C2.19323748 1.23263347 3.9803052 2.66092579 5.90625 4.27734375 C15.84320992 12.45308876 27.25806353 16.5643943 40.1015625 15.8203125 C50.7493388 14.57510716 59.09844651 10.68736532 67.125 3.625 C71.35191718 0.07193919 74.28368543 -1.0071635 79.796875 -0.5390625 C82.96704937 0.23661846 84.81950837 1.60849306 87 4 C88.90393584 7.80787168 88.71548896 11.87077979 88 16 C82.48699357 25.97676325 70.23549632 32.10280266 60 36 C59.16855469 36.32097656 58.33710938 36.64195312 57.48046875 36.97265625 C39.74826579 42.55453566 19.5519865 40.00488772 3.25 31.75 C-13.5099228 22.18168221 -13.5099228 22.18168221 -16 14 C-16.5900252 9.95411289 -16.19788227 8.35482338 -14.1875 4.75 C-10.10214987 -0.38586873 -6.23861724 -1.16209537 0 0 Z " fill="#000000" transform="translate(363,111)"/>
<path d="M0 0 C2.82424288 2.19022918 4.41508603 3.83017207 6 7 C6.26928623 11.10661505 6.39058642 13.96609478 4.9375 17.8125 C2.2045036 20.8981411 -0.03272041 21.8943647 -4 23 C-8.27535528 22.81654259 -11.16753326 21.66597339 -14.5 19 C-16.67121698 14.65756603 -16.79790396 10.76395602 -16 6 C-12.0122655 -0.51329969 -7.23493389 -1.04656276 0 0 Z " fill="#000000" transform="translate(440,70)"/>
<path d="M0 0 C2.82424288 2.19022918 4.41508603 3.83017207 6 7 C6.38418362 11.61020349 6.38850646 14.12586046 4.5 18.375 C1.27304496 21.76330279 -1.37230383 22.72305293 -6 23 C-9.70503823 22.35874338 -11.51043592 21.41226449 -14.375 19 C-16.71644558 14.67733123 -16.80651142 10.8153476 -16 6 C-12.0122655 -0.51329969 -7.23493389 -1.04656276 0 0 Z " fill="#000000" transform="translate(369,70)"/>
</svg>
