<?xml version="1.0" encoding="UTF-8"?>
<svg version="1.1" xmlns="http://www.w3.org/2000/svg" width="512" height="512">
<path d="M0 0 C0.70682508 -0.00235223 1.41365017 -0.00470446 2.14189419 -0.00712797 C4.51633305 -0.01379827 6.89071694 -0.01336034 9.26516438 -0.01294994 C10.98239532 -0.01624978 12.69962549 -0.0199756 14.41685468 -0.02409142 C19.14070925 -0.03410565 23.86455111 -0.03782728 28.58841479 -0.04048073 C33.68127744 -0.04438542 38.77413004 -0.05396355 43.86698627 -0.0626936 C56.16761299 -0.0824519 68.46824053 -0.09252277 80.76887915 -0.10142139 C86.5609694 -0.10580475 92.35305874 -0.11117138 98.14514828 -0.11641026 C117.39774066 -0.13342082 136.65033247 -0.14791566 155.90293121 -0.155159 C160.89853828 -0.15706889 165.89414534 -0.15898923 170.88975239 -0.16094494 C172.13138814 -0.16142868 173.37302388 -0.16191242 174.65228496 -0.16241082 C194.77230347 -0.17071365 214.89226259 -0.19605563 235.01225515 -0.22852562 C255.66682959 -0.26158677 276.32137382 -0.27960685 296.97597486 -0.28280324 C308.57371284 -0.28496905 320.17136415 -0.29372837 331.76907635 -0.31926441 C341.64461496 -0.34095836 351.52004585 -0.34902817 361.39560559 -0.33929763 C366.43380135 -0.33474937 371.47177479 -0.33666994 376.50994015 -0.35605907 C381.12472885 -0.37366547 385.73913261 -0.37271347 390.35392527 -0.35716178 C392.02083836 -0.35478191 393.68777793 -0.35912897 395.35465052 -0.37099043 C405.58402719 -0.43925739 413.67087288 0.45322525 422.65025043 5.75922108 C429.28846405 12.76622434 432.02102287 19.63094015 432.03447151 29.12654018 C432.03682374 29.8338998 432.03917597 30.54125941 432.04159948 31.27005416 C432.04828327 33.65233291 432.04783145 36.03455703 432.04742146 38.41684437 C432.05072046 40.13733706 432.05444611 41.85782898 432.05856293 43.57831991 C432.0685868 48.31583539 432.07230035 53.05333821 432.07495224 57.7908628 C432.07885413 62.89669474 432.08843253 68.00251664 432.09716511 73.10834217 C432.11693248 85.44349885 432.12699594 97.77865635 432.1358929 110.1138249 C432.14027523 115.92135838 432.14564217 121.72889093 432.15088177 127.53642368 C432.1678941 146.83958783 432.18238867 166.14275141 432.18963051 185.4459219 C432.19154043 190.45579116 432.19346076 195.46566042 432.19541645 200.47552967 C432.19590019 201.72072153 432.19638393 202.9659134 432.19688233 204.24883835 C432.20518411 224.42388585 432.23052353 244.59887408 432.26299713 264.7738957 C432.29605838 285.48267907 432.31407842 306.19143231 432.31727475 326.90024221 C432.31944068 338.52929412 432.32820151 350.1582596 432.35373592 361.7872858 C432.37543011 371.69029693 432.38349961 381.59320063 432.37376914 391.49623282 C432.3692208 396.54859827 432.37114189 401.60074201 432.39053059 406.65307713 C432.4081366 411.28085834 432.40718528 415.90825568 432.39163329 420.53604083 C432.38925334 422.2076944 432.39360086 423.87937437 432.40546194 425.55098756 C432.47554206 436.08225472 431.66111363 444.43919966 425.71275043 453.44672108 C418.91257801 459.94466362 412.17216344 462.25649911 402.92075539 462.26564884 C402.21478455 462.26770148 401.50881372 462.26975411 400.78144982 462.27186894 C398.40390311 462.27754606 396.0264142 462.27608082 393.64886189 462.27466297 C391.93178147 462.2772462 390.21470165 462.28025924 388.49762267 462.28366637 C383.7695763 462.29174462 379.04154511 462.2935264 374.31349266 462.29426384 C369.21790622 462.29611297 364.12232768 462.3036596 359.0267458 462.31039906 C347.88004072 462.32398887 336.73333923 462.33000814 325.58662724 462.33440971 C318.62818116 462.3371711 311.66973646 462.34140827 304.71129131 462.34591389 C285.45015805 462.35810751 266.18902591 462.36840657 246.92788887 462.37178898 C245.69479952 462.37200854 244.46171017 462.37222811 243.19125448 462.37245433 C241.9551927 462.37267261 240.71913092 462.37289089 239.44561273 462.37311578 C236.94082725 462.37355925 234.43604177 462.37400581 231.93125629 462.37445545 C230.06756095 462.3747876 230.06756095 462.3747876 228.1662152 462.37512645 C208.03253622 462.3790747 187.89889343 462.39652915 167.76522843 462.41981497 C147.10052012 462.44352231 126.43582998 462.45599055 105.77110785 462.4571569 C94.16613844 462.45807402 82.56121617 462.46383563 70.95625973 462.48197651 C61.07445818 462.49736915 51.19271835 462.50250289 41.3109071 462.49423841 C36.26882938 462.49032893 31.22687597 462.49127611 26.1848135 462.50529575 C21.56762422 462.51801664 16.95065289 462.51685305 12.33346399 462.50470504 C10.66452257 462.5027449 8.9955658 462.50584109 7.32664595 462.5145494 C-3.74199578 462.56864088 -13.26574559 462.16511247 -22.30678082 454.94672108 C-28.15632933 449.03345199 -30.22054141 442.19023832 -30.23397064 434.08338833 C-30.23842849 432.83555211 -30.24288633 431.58771589 -30.24747926 430.30206645 C-30.24738997 428.91487001 -30.24720012 427.52767359 -30.24692059 426.14047718 C-30.25022014 424.6687464 -30.2539459 423.19701652 -30.25806206 421.7252878 C-30.26807934 417.67554565 -30.2717984 413.62581832 -30.27445138 409.57606554 C-30.27835509 405.21060239 -30.2879332 400.84515098 -30.29666424 396.47969532 C-30.31642398 385.93619668 -30.32649302 375.39269709 -30.33539203 364.84918457 C-30.33977465 359.88591134 -30.34514142 354.92263918 -30.3503809 349.9593668 C-30.36739065 333.46474968 -30.3818863 316.97013323 -30.38912964 300.47550869 C-30.39103957 296.195405 -30.3929599 291.91530131 -30.39491558 287.63519764 C-30.39539932 286.57138403 -30.39588306 285.50757043 -30.39638146 284.41152005 C-30.40468739 267.16633526 -30.43003492 249.9212197 -30.46249626 232.67606516 C-30.49553978 214.97765394 -30.51357584 197.27927794 -30.51677388 179.5808357 C-30.5189412 169.64094172 -30.52772253 159.70114879 -30.55323505 149.76128483 C-30.57490486 141.29900991 -30.58301075 132.8368606 -30.57326827 124.37456109 C-30.56871311 120.0558235 -30.57068023 115.73734527 -30.59002972 111.418643 C-30.60758727 107.46583675 -30.60672446 103.51348048 -30.59113242 99.56066994 C-30.58874506 98.13000038 -30.59313815 96.69930025 -30.60496107 95.26867755 C-30.70854105 81.90860787 -30.70854105 81.90860787 -26.09974957 77.13422108 C-22.56646879 74.77870056 -21.12044455 74.88296688 -16.93491077 74.87974548 C-15.63619797 74.87391329 -14.33748516 74.8680811 -12.99941742 74.86207217 C-11.54963549 74.86570574 -10.09985403 74.86953013 -8.65007305 74.87352467 C-7.11661972 74.87050604 -5.58316788 74.86661802 -4.04971874 74.8619321 C0.17526137 74.85160591 4.40015706 74.85384562 8.62514424 74.85811269 C13.17738634 74.86057159 17.72960766 74.85157618 22.28184223 74.8440752 C31.20464711 74.83130258 40.12742194 74.82953772 49.05023442 74.83187547 C56.30079173 74.83365601 63.55133988 74.83191466 70.8018961 74.82765102 C71.83248039 74.82705583 72.86306469 74.82646065 73.92487881 74.82584742 C76.01828956 74.82463571 78.1117003 74.82342158 80.20511104 74.82220504 C99.85327296 74.81131953 119.50141773 74.81349672 139.14958061 74.81958989 C157.13591028 74.82475936 175.1221858 74.81350459 193.10850476 74.79449167 C211.56286153 74.77513308 230.01719265 74.76685383 248.47155964 74.77061492 C258.83786209 74.77253005 269.20411845 74.77000917 279.57041264 74.75590038 C288.39578141 74.74401076 297.22107572 74.74255439 306.04644547 74.75469055 C310.55132693 74.76059643 315.05607203 74.76163171 319.56094456 74.74968815 C323.68268283 74.73888717 327.80416995 74.74186323 331.92589618 74.75594983 C333.41915597 74.75861282 334.91243508 74.75618036 336.40567599 74.74821397 C338.43167229 74.73815331 340.45773903 74.74829374 342.48372936 74.75949097 C343.61025225 74.75943595 344.73677513 74.75938094 345.89743507 74.75932425 C349.31243304 75.18568143 351.15843798 76.08266516 353.90025043 78.13422108 C356.73079808 82.38004254 356.6743423 86.14906944 355.90025043 91.13422108 C354.01649893 94.75682012 351.8309815 96.82397739 347.90025043 98.13422108 C345.94141692 98.2312773 343.9794056 98.2680197 342.01817513 98.27288628 C340.78256334 98.27836072 339.54695156 98.28383516 338.27389699 98.2894755 C336.89534532 98.29055177 335.51679357 98.29153645 334.13824177 98.29243946 C332.67959669 98.29700373 331.22095291 98.30200355 329.76231068 98.30740303 C325.74433604 98.32100898 321.72636988 98.32840959 317.7083782 98.33482969 C313.37913699 98.34282285 309.04991349 98.35652435 304.72068501 98.36954212 C297.21676213 98.39132027 289.71283748 98.40945986 282.2088995 98.42514706 C271.3593867 98.4478335 260.5098935 98.47597802 249.66039731 98.50546633 C232.05896051 98.55315728 214.45751571 98.59641739 196.85606098 98.63690662 C179.75514318 98.67625391 162.65423254 98.71768965 145.55332661 98.76190662 C143.95676474 98.76603088 143.95676474 98.76603088 142.32794911 98.77023846 C134.00417574 98.79175687 125.68040268 98.81339665 117.35662973 98.83507478 C76.53785104 98.94135063 35.71905374 99.03703837 -5.09974957 99.13422108 C-5.42974957 211.00422108 -5.75974957 322.87422108 -6.09974957 438.13422108 C67.28013267 438.16334153 67.28013267 438.16334153 140.66001606 438.1830492 C150.53932923 438.18500722 160.41864238 438.18702775 170.29795551 438.18915272 C171.53625191 438.18941647 172.77454831 438.18968022 174.05036885 438.18995196 C194.06982446 438.19430718 214.08927722 438.20219425 234.10873114 438.21137387 C254.63767107 438.22070896 275.16660949 438.22627638 295.69555146 438.22830957 C308.37395484 438.2296851 321.05235015 438.23403731 333.73075105 438.24213754 C342.41212588 438.24740321 351.09349651 438.24902578 359.77487283 438.24772245 C364.79158737 438.24707879 369.80828776 438.24809974 374.82499981 438.25342655 C379.40979083 438.25825949 383.99455805 438.25856043 388.57935012 438.25511997 C390.24557541 438.25469417 391.91180213 438.25599079 393.57802456 438.25910426 C395.82778911 438.26306659 398.0774656 438.26098552 400.32722855 438.25726891 C402.20855292 438.25783849 402.20855292 438.25783849 404.12788385 438.25841957 C406.8086623 438.45072672 406.8086623 438.45072672 407.90025043 437.13422108 C407.99831703 434.95023539 408.02396175 432.76300276 408.02329826 430.57681656 C408.02502903 429.53167086 408.02502903 429.53167086 408.02679476 428.4654111 C408.02946813 426.1012019 408.0249334 423.73705911 408.02050495 421.37285328 C408.02094051 419.67257231 408.02181512 417.97229141 408.02309412 416.27201086 C408.02534217 411.57681332 408.02131359 406.88163835 408.01631606 402.18644369 C408.01201616 397.13188098 408.01345765 392.07731965 408.01421833 387.02275562 C408.01474386 378.25775759 408.01159405 369.49276697 408.00598049 360.72777081 C407.99786939 348.05490135 407.99525067 335.3820355 407.9939925 322.70916373 C407.99180137 302.15057079 407.98513962 281.5919818 407.97568989 261.033391 C407.96651736 241.05715422 407.95943575 221.08091852 407.95518208 201.10468006 C407.95491935 199.87430061 407.95465663 198.64392115 407.95438594 197.37625747 C407.95308095 191.20409076 407.95181723 185.03192403 407.95057404 178.8597573 C407.94019951 127.61790916 407.92257953 76.37606531 407.90025043 25.13422108 C405.0030473 23.68561951 402.49513658 24.00742099 399.25661945 24.00558662 C398.56267775 24.00383359 397.86873604 24.00208055 397.1537658 24.00027439 C394.80516242 23.99558544 392.45662017 23.99808728 390.10801411 24.00050831 C388.41654471 23.99864179 386.72507575 23.99634174 385.03360748 23.99364299 C380.36733725 23.98749892 375.70108486 23.98766162 371.0348115 23.98883736 C366.00953708 23.98904071 360.9842685 23.98352897 355.95899677 23.97877979 C346.10728243 23.97045868 336.25557407 23.9677243 326.40385652 23.96716741 C318.40048687 23.96669299 310.39711921 23.96464197 302.39375019 23.96146679 C279.72731017 23.95265665 257.06087489 23.94804804 234.39443314 23.94879726 C232.55991524 23.9488572 232.55991524 23.9488572 230.68833637 23.94891834 C229.46383994 23.94895922 228.23934351 23.9490001 226.97774112 23.94904222 C207.12050852 23.94944892 187.26329485 23.93987446 167.40606773 23.92577998 C147.04090992 23.91143843 126.67576136 23.90450855 106.31059837 23.90537375 C94.86736025 23.90570647 83.42414199 23.90292688 71.98090839 23.8921957 C62.24013423 23.88311992 52.49938894 23.88089129 42.75861239 23.88770512 C37.78427598 23.89098504 32.80999504 23.89097439 27.8356638 23.88235188 C23.28849886 23.87455052 18.74143398 23.87585231 14.19427168 23.88463601 C12.54289318 23.88618516 10.89150744 23.88430238 9.24013746 23.87877593 C7.00792818 23.87179617 4.77607778 23.87694528 2.54388142 23.88533211 C1.30024232 23.88511474 0.05660322 23.88489737 -1.22472191 23.88467342 C-4.22928908 23.83488573 -4.22928908 23.83488573 -6.09974957 26.13422108 C-6.38935823 28.86857613 -6.38935823 28.86857613 -6.33803082 32.06000233 C-6.3541441 33.24916248 -6.37025738 34.43832264 -6.38685894 35.66351795 C-6.40370703 38.17388348 -6.40902488 40.6843544 -6.40248394 43.19476795 C-6.57377918 53.42275139 -6.57377918 53.42275139 -9.51771832 56.42718983 C-14.09012663 59.4500982 -17.67410855 59.8194664 -23.09974957 59.13422108 C-26.70009192 56.98933627 -28.57105987 54.99390044 -30.09974957 51.13422108 C-30.53353604 46.58312623 -30.42392451 42.01629615 -30.41224957 37.44672108 C-30.42836285 36.20470936 -30.44447613 34.96269764 -30.46107769 33.6830492 C-30.465961 24.46824242 -29.49893345 16.26453988 -23.75209332 8.77093983 C-16.84403073 1.92820171 -9.43189159 0.01339466 0 0 Z " fill="#000000" transform="translate(55.09974956512451,24.865778923034668)"/>
<path d="M0 0 C3.10352458 1.60923497 5.21701424 3.00347267 7.375 5.75 C8.3660325 9.31771701 8.83842587 12.39542895 8 16 C5.44779629 20.08680852 1.82018093 23.22324041 -1.65625 26.515625 C-2.5534375 27.37671875 -3.450625 28.2378125 -4.375 29.125 C-5.22835937 29.91132813 -6.08171875 30.69765625 -6.9609375 31.5078125 C-9.34216758 34.41820482 -9.52007807 36.33611373 -10 40 C-8.89712646 40.0093457 -7.79425293 40.01869141 -6.65795898 40.02832031 C-2.49204868 40.06876243 1.67316429 40.13465874 5.83862305 40.20751953 C7.62759312 40.23541958 9.41667937 40.25678484 11.20581055 40.27099609 C25.68322482 40.39275736 39.04827464 41.74485827 52.125 48.5625 C52.78185791 48.90055664 53.43871582 49.23861328 54.11547852 49.58691406 C72.16187137 59.30872976 84.95271812 76.09299929 90.9050293 95.66479492 C96.40564371 115.91442038 93.21535217 137.09861672 83.19921875 155.33984375 C76.4660884 166.90163329 65.74079648 179.03204018 53 184 C49.50864053 184.59175584 47.40507559 184.82232535 44.3046875 183.0078125 C40.1782532 179.7983636 38.28994256 177.22289298 37.625 172.125 C38.09662157 168.19482023 39.27248701 165.7836058 42 163 C43.53778539 161.88186161 45.10361394 160.80181858 46.6875 159.75 C58.78868904 151.58748957 65.68199675 140.1428012 69 126 C70.77867899 108.65046045 66.74785383 94.628767 55.9375 80.875 C49.22966897 73.54249291 39.64705338 68.27987004 30 66 C29.29721924 65.82726562 28.59443848 65.65453125 27.87036133 65.4765625 C24.26043856 64.87721154 20.72090274 64.87612628 17.07421875 64.90234375 C16.32662796 64.9037587 15.57903717 64.90517365 14.80879211 64.90663147 C12.43498635 64.91220236 10.06127697 64.9247494 7.6875 64.9375 C6.07226699 64.94251877 4.4570325 64.94708101 2.84179688 64.95117188 C-1.10550555 64.96216225 -5.05273647 64.97940668 -9 65 C-9.80701962 66.79978972 -9.80701962 66.79978972 -10 69 C-8.68689842 70.97319741 -8.68689842 70.97319741 -6.66796875 72.75 C-5.95189453 73.4409375 -5.23582031 74.131875 -4.49804688 74.84375 C-3.35432617 75.91109375 -3.35432617 75.91109375 -2.1875 77 C-0.69743188 78.41204739 0.78842148 79.82855894 2.26953125 81.25 C2.93573486 81.87390625 3.60193848 82.4978125 4.28833008 83.140625 C7.57365765 86.70945323 8.58460395 89.988843 8.4375 94.8984375 C7.59494603 98.94570566 5.27224472 101.58229053 2 104 C-0.78541252 105.14792759 -3.03434374 105.55768931 -6 105 C-12.58990472 101.83429759 -17.21197238 97.22392402 -22.328125 92.0703125 C-23.19894714 91.20236053 -24.06976929 90.33440857 -24.96697998 89.44015503 C-26.79938442 87.60978555 -28.62803196 85.77564817 -30.453125 83.93798828 C-33.24411848 81.13091541 -36.0507714 78.34022188 -38.859375 75.55078125 C-40.64158784 73.76658626 -42.42287 71.98146102 -44.203125 70.1953125 C-45.04063293 69.36387726 -45.87814087 68.53244202 -46.74102783 67.67581177 C-56.25465458 58.04654964 -56.25465458 58.04654964 -56.30444336 50.79296875 C-55.23166376 44.01129531 -49.86373007 39.8570035 -45.12890625 35.3125 C-44.12454263 34.32053871 -43.12187664 33.32685589 -42.12083435 32.33154297 C-39.49393255 29.72938844 -36.84348198 27.15256257 -34.18762207 24.58001709 C-32.01826497 22.47087012 -29.86590418 20.34483319 -27.71426487 18.21763611 C-23.27409368 13.82800823 -18.8207841 9.45183466 -14.34204102 5.1015625 C-13.55007828 4.33150879 -12.75811554 3.56145508 -11.94215393 2.76806641 C-8.33486884 -0.51587494 -4.70694379 -0.63867453 0 0 Z " fill="#000000" transform="translate(280,182)"/>
<path d="M0 0 C3.05357079 1.61320721 5.23833566 3.03060902 7.375 5.75 C8.35394508 9.27420229 8.75050168 12.42841609 8 16 C5.59803279 20.21227338 2.15344725 22.95454253 -1.8125 25.625 C-11.40135702 32.52676849 -16.84730576 44.18558979 -19.578125 55.3671875 C-22.07316107 70.93806077 -18.31638068 85.68326146 -9.21875 98.51171875 C0.12506046 109.78939162 13.32124841 115.89803552 27.65234375 117.69140625 C43.52460499 119.2949459 43.52460499 119.2949459 59 117 C59.38321894 113.7019946 59.30515696 112.39602593 57.2421875 109.71875 C56.46101563 108.9865625 55.67984375 108.254375 54.875 107.5 C53.64523438 106.33017578 53.64523438 106.33017578 52.390625 105.13671875 C50.50866046 103.45463607 48.61302855 101.8637647 46.625 100.3125 C43.22374499 97.3161563 41.17311107 94.6648613 40.87109375 90.015625 C41.12248257 85.96293244 41.77544963 84.27061198 44.4375 81.0625 C47.91445904 78.26397199 50.26414086 77.4450963 54.80859375 77.55078125 C59.26248287 78.46378882 61.92615115 81.84376995 65 85 C66.03640165 86.03911741 67.0742709 87.07677228 68.11328125 88.11328125 C69.777164 89.77331965 71.43721796 91.43582172 73.08081055 93.1159668 C75.90815041 95.99237873 78.79634011 98.72893518 81.8515625 101.36328125 C86.38464654 105.28275904 90.63705267 109.45327017 94.875 113.6875 C95.63296875 114.43322266 96.3909375 115.17894531 97.171875 115.94726562 C98.25855469 117.03104492 98.25855469 117.03104492 99.3671875 118.13671875 C100.01800293 118.78342529 100.66881836 119.43013184 101.33935547 120.09643555 C104.65898576 123.90166303 105.23252057 126.84291128 105.36328125 131.90234375 C104.53720363 136.67227583 101.1802889 140.07125328 97.86743164 143.39135742 C97.03969742 144.22539597 96.2119632 145.05943451 95.35914612 145.91874695 C94.02314613 147.24867424 94.02314613 147.24867424 92.66015625 148.60546875 C91.7416539 149.52588455 90.82315155 150.44630035 89.8768158 151.39460754 C87.93746754 153.33689565 85.99457032 155.27554239 84.04907227 157.21166992 C81.55959819 159.6897342 79.07923272 162.1766913 76.60144901 164.6664381 C74.23004025 167.04682101 71.85102992 169.41954463 69.47265625 171.79296875 C68.58401382 172.68565964 67.6953714 173.57835052 66.77980042 174.49809265 C65.94891403 175.32267471 65.11802765 176.14725677 64.26196289 176.99682617 C63.16967125 178.08673103 63.16967125 178.08673103 62.05531311 179.19865417 C59.14655132 181.74799125 56.95852393 182.87497514 53.125 183.375 C48.15752153 182.77890258 45.18694172 180.50345952 42.125 176.625 C40.74215374 173.39835874 40.50240912 171.48313618 41 168 C44.41716076 162.01571847 49.24721296 157.72658096 54.30664062 153.12304688 C54.92345703 152.53458984 55.54027344 151.94613281 56.17578125 151.33984375 C57.02523315 150.55661743 57.02523315 150.55661743 57.8918457 149.75756836 C59.28355567 147.95924829 59.28355567 147.95924829 58.67651367 145.29125977 C58.45326416 144.53514404 58.23001465 143.77902832 58 143 C57.08412109 142.98541748 56.16824219 142.97083496 55.22460938 142.95581055 C51.74263263 142.89382015 48.26132836 142.81951593 44.77978516 142.73754883 C43.28867074 142.70481393 41.79744763 142.67663256 40.30615234 142.65356445 C15.64057732 142.26217957 -4.72715675 136.61592366 -23.125 119.375 C-39.27047005 102.61348658 -44.727821 82.52132871 -44.3046875 59.703125 C-43.55978072 41.00042426 -34.49211812 22.86396907 -21 10 C-8.62169903 -0.71847492 -8.62169903 -0.71847492 0 0 Z " fill="#000000" transform="translate(183,233)"/>
<path d="M0 0 C0.79921875 -0.03738281 1.5984375 -0.07476562 2.421875 -0.11328125 C6.66775822 -0.1761315 9.40223031 0.03892127 12.765625 2.7734375 C16.43358822 6.61441785 16.59300786 8.97665842 16.53515625 14.1171875 C16.10933373 17.48876856 14.71522826 19.11520743 12.25 21.375 C8.53011886 23.8843735 4.64425433 23.70724364 0.3125 23.6875 C-0.39068359 23.70361328 -1.09386719 23.71972656 -1.81835938 23.73632812 C-6.33442408 23.74056061 -9.19642941 23.19115702 -12.75 20.375 C-16.23461095 16.69934678 -16.3096034 13.68256124 -16.1796875 8.7890625 C-15.52649986 5.11933559 -13.67448816 3.53355078 -10.75 1.375 C-7.39631427 -0.30184287 -3.68410362 0.06412206 0 0 Z " fill="#000000" transform="translate(436.75,99.625)"/>
<path d="M0 0 C1.23943359 -0.00386719 1.23943359 -0.00386719 2.50390625 -0.0078125 C3.35855469 -0.00007813 4.21320313 0.00765625 5.09375 0.015625 C6.37572266 0.00402344 6.37572266 0.00402344 7.68359375 -0.0078125 C8.50988281 -0.00523438 9.33617187 -0.00265625 10.1875 0 C10.93708984 0.00225586 11.68667969 0.00451172 12.45898438 0.00683594 C16.0794057 0.44572507 18.07792374 1.62084217 20.34375 4.453125 C21.92298797 8.00641043 22.00698619 10.40875392 21.59375 14.265625 C19.90977571 17.97036845 18.13773713 20.27562592 14.59375 22.265625 C11.46435308 22.76334523 8.38240186 22.77527028 5.21875 22.765625 C3.96191406 22.80816406 3.96191406 22.80816406 2.6796875 22.8515625 C-1.60009965 22.86502095 -4.52729043 22.63996777 -7.9453125 19.921875 C-10.87866154 16.75572049 -11.34009083 15.15877381 -11.65625 10.890625 C-11.38804349 7.00163064 -10.8192223 5.28184038 -8.40625 2.265625 C-5.52526289 0.50604448 -3.355119 0.01009709 0 0 Z " fill="#000000" transform="translate(167.40625,61.734375)"/>
<path d="M0 0 C1.28293945 -0.04350586 1.28293945 -0.04350586 2.59179688 -0.08789062 C6.81445489 -0.13041158 9.0618008 -0.08331748 12.70703125 2.22265625 C15.94497946 5.63942606 15.94497946 5.63942606 16.6875 8.3125 C16.50562318 14.04161981 15.8693927 17.1306073 11.6875 21.3125 C8.18706737 23.06271631 4.23184036 22.58198691 0.375 22.625 C-0.48029297 22.65400391 -1.33558594 22.68300781 -2.21679688 22.71289062 C-6.39434846 22.75495737 -8.70660187 22.67728334 -12.35546875 20.48046875 C-15.65031715 16.83048699 -15.64371389 13.23556626 -15.60546875 8.5390625 C-15.17196619 5.24444303 -13.68700458 3.54732784 -11.3125 1.3125 C-7.81206737 -0.43771631 -3.85684036 0.04301309 0 0 Z " fill="#000000" transform="translate(127.3125,61.6875)"/>
<path d="M0 0 C1.28293945 -0.04350586 1.28293945 -0.04350586 2.59179688 -0.08789062 C6.79072509 -0.13017263 9.06646771 -0.07313454 12.70703125 2.1875 C14.95181094 4.59609991 15.94063368 6.10097483 16.6875 9.3125 C16.49807861 14.61629889 15.38487793 17.50308032 11.6875 21.3125 C8.18706737 23.06271631 4.23184036 22.58198691 0.375 22.625 C-0.48029297 22.65400391 -1.33558594 22.68300781 -2.21679688 22.71289062 C-6.43639332 22.75538075 -8.69774817 22.69524023 -12.35546875 20.41796875 C-15.80671812 16.70494797 -15.64091078 13.70205262 -15.60546875 8.796875 C-15.19787873 5.34051166 -13.84973498 3.62586131 -11.3125 1.3125 C-7.81206737 -0.43771631 -3.85684036 0.04301309 0 0 Z " fill="#000000" transform="translate(82.3125,61.6875)"/>
</svg>
