<?xml version="1.0" encoding="UTF-8"?>
<svg version="1.1" xmlns="http://www.w3.org/2000/svg" width="512" height="512">
<path d="M0 0 C16.93711607 13.41489168 28.35103373 30.63240191 31.04296875 52.41015625 C31.77398233 65.53504098 31.2276067 77.8562424 27.04296875 90.41015625 C34.96296875 89.91515625 34.96296875 89.91515625 43.04296875 89.41015625 C42.56859375 87.76015625 42.09421875 86.11015625 41.60546875 84.41015625 C36.0594766 63.79580806 38.64866842 42.04005442 49.04296875 23.41015625 C51.69090402 19.1242856 54.76577208 15.23164258 58.04296875 11.41015625 C58.96335937 10.32154297 58.96335937 10.32154297 59.90234375 9.2109375 C72.57438587 -4.57126215 91.93434797 -12.91385551 110.44140625 -13.875 C130.66139906 -14.4790971 149.80045166 -8.74734729 165.16796875 4.72265625 C166.80874813 6.26857807 168.43442788 7.83071727 170.04296875 9.41015625 C170.74421875 10.08691406 171.44546875 10.76367188 172.16796875 11.4609375 C186.75613151 26.59045786 191.49091646 46.96714671 191.2734375 67.40625 C191.03629359 75.25918743 189.52758364 82.95631157 187.04296875 90.41015625 C187.74739105 90.4012738 188.45181335 90.39239136 189.17758179 90.38323975 C195.85551769 90.3026879 202.53331563 90.24198756 209.21162987 90.20290756 C212.64406643 90.18213968 216.0760975 90.15402413 219.50830078 90.10839844 C223.46511783 90.05613528 227.42177764 90.03712169 231.37890625 90.01953125 C232.5959726 89.99888611 233.81303894 89.97824097 235.06698608 89.95697021 C245.5147741 89.95425012 253.64515041 92.24886795 261.3515625 99.47265625 C265.62778032 104.37104894 268.16258273 110.37668019 268.17718983 116.87714577 C268.18164767 117.79718506 268.18610551 118.71722434 268.19069844 119.66514361 C268.1904219 121.18364273 268.1904219 121.18364273 268.19013977 122.7328186 C268.19381646 123.80708961 268.19749315 124.88136061 268.20128125 125.98818529 C268.21233902 129.60622335 268.21616549 133.22423271 268.2199707 136.84228516 C268.22623379 139.42907808 268.23288045 142.0158701 268.23988342 144.60266113 C268.25964619 152.37904801 268.26971434 160.15543619 268.27861121 167.93184191 C268.2829949 171.5946925 268.28836154 175.25754164 268.29360008 178.92039108 C268.31061307 191.09833031 268.32510655 203.27626863 268.33234882 215.45421791 C268.3342587 218.61449815 268.33617903 221.77477838 268.33813477 224.93505859 C268.33861851 225.7205236 268.33910225 226.5059886 268.33960065 227.31525557 C268.34789836 240.03515389 268.37323057 252.75495809 268.40571544 265.47481532 C268.43880171 278.53676899 268.45679905 291.59867485 268.45999306 304.66067064 C268.46215684 311.99335908 268.47088589 319.32591032 268.49645424 326.65855789 C268.520457 333.55813978 268.52397705 340.45747116 268.51369286 347.35708618 C268.51319683 349.88825679 268.51953668 352.41943945 268.5332489 354.95057297 C268.55093598 358.40920878 268.54387621 361.8669556 268.53071594 365.32559204 C268.54716981 366.82401467 268.54716981 366.82401467 268.56395608 368.35270846 C268.47756917 377.7725909 265.3527274 384.78946909 258.98046875 391.68359375 C253.49208024 396.57445609 247.19227214 398.53642123 239.94966125 398.53041077 C238.03766937 398.53247276 238.03766937 398.53247276 236.08705139 398.53457642 C234.67172218 398.53103726 233.2563932 398.52740245 231.84106445 398.52368164 C230.35295616 398.52339961 228.86484772 398.52355781 227.3767395 398.52412415 C223.33364552 398.52441152 219.29058109 398.51852449 215.24749398 398.51155019 C211.0234112 398.50530665 206.79932777 398.50471206 202.57524109 398.50352478 C194.57486744 398.50041442 186.57450742 398.492205 178.57413977 398.48217529 C169.46662746 398.471005 160.3591145 398.46550139 151.25159705 398.46047986 C132.51537831 398.45002215 113.77917827 398.43168032 95.04296875 398.41015625 C95.04296875 413.26015625 95.04296875 428.11015625 95.04296875 443.41015625 C106.05264217 443.25206442 106.05264217 443.25206442 117.06152344 443.04980469 C118.44595099 443.03811776 119.83039232 443.02792593 121.21484375 443.01953125 C121.92850098 442.99906738 122.6421582 442.97860352 123.37744141 442.95751953 C126.81423579 442.95511113 128.71759894 443.17589508 131.54003906 445.20800781 C133.04296875 447.41015625 133.04296875 447.41015625 132.91796875 451.03515625 C132.04296875 454.41015625 132.04296875 454.41015625 130.04296875 456.41015625 C127.54147649 456.60974519 125.15032436 456.68385452 122.6474762 456.67085266 C121.87609265 456.67467821 121.1047091 456.67850376 120.30995029 456.68244523 C117.71120395 456.69280854 115.11267719 456.68877683 112.51391602 456.68481445 C110.65644118 456.68915909 108.79896815 456.69434141 106.9414978 456.70030212 C101.88577083 456.71373015 96.83011844 456.71426658 91.77437711 456.71173882 C87.55943665 456.71067167 83.34451144 456.7155459 79.12957424 456.72034425 C69.18882898 456.73145261 59.24812151 456.73186939 49.30737305 456.72583008 C39.03949656 456.71978811 28.77175704 456.73210395 18.50390393 456.75340015 C9.6996344 456.77099184 0.89540856 456.77702135 -7.90887791 456.7737624 C-13.17227051 456.7719455 -18.43556543 456.77462615 -23.69894218 456.78847694 C-28.64750804 456.80101117 -33.59585976 456.79915314 -38.54442215 456.78606606 C-40.36374164 456.78369107 -42.183076 456.78646773 -44.00237846 456.79468918 C-46.48002253 456.80508084 -48.95693795 456.79711774 -51.43455505 456.78437805 C-52.15984152 456.79175234 -52.88512798 456.79912662 -53.63239282 456.80672437 C-56.49575468 456.77560554 -58.48523462 456.72697771 -60.89984226 455.10551739 C-62.71918727 452.18792474 -62.37199406 449.72985873 -61.95703125 446.41015625 C-59.51749329 443.71311151 -58.03223581 443.4173203 -54.38183594 443.06958008 C-52.96410409 443.07032521 -51.54631055 443.08670483 -50.12890625 443.1171875 C-49.13238037 443.12171936 -49.13238037 443.12171936 -48.11572266 443.12634277 C-45.64599968 443.14197928 -43.17649904 443.18386341 -40.70703125 443.22265625 C-35.17953125 443.28453125 -29.65203125 443.34640625 -23.95703125 443.41015625 C-23.95703125 428.56015625 -23.95703125 413.71015625 -23.95703125 398.41015625 C-30.7931311 398.44157715 -30.7931311 398.44157715 -37.76733398 398.47363281 C-52.82676441 398.53991869 -67.88620059 398.58430201 -82.94573879 398.61740494 C-92.07612494 398.63800924 -101.20637265 398.66608899 -110.33666992 398.71191406 C-118.29685612 398.75184721 -126.25694203 398.77760456 -134.21722561 398.78651023 C-138.43017023 398.79171404 -142.642828 398.80390014 -146.85568047 398.83307648 C-150.82590742 398.86034817 -154.79573098 398.86857771 -158.76604271 398.86258698 C-160.21842394 398.86368199 -161.67081949 398.87156589 -163.12311935 398.88697815 C-174.7537832 399.00428949 -182.62543848 397.26528021 -191.23046875 389.27734375 C-195.9515115 384.17178168 -198.07573069 378.72428024 -198.09125233 371.8201189 C-198.09571017 370.89808857 -198.10016801 369.97605823 -198.10476094 369.02608758 C-198.10457658 368.01666768 -198.10439222 367.00724777 -198.10420227 365.96723938 C-198.10787896 364.89211395 -198.11155565 363.81698852 -198.11534375 362.70928353 C-198.12638698 359.09435154 -198.13022552 355.47944829 -198.1340332 351.86450195 C-198.14029733 349.27756153 -198.14694409 346.69062201 -198.15394592 344.10368347 C-198.17369446 336.33216368 -198.18377422 328.56064262 -198.19267371 320.78910401 C-198.19705901 317.12774987 -198.20242517 313.46639718 -198.20766258 309.80504417 C-198.22467279 297.63135357 -198.23916671 285.45766386 -198.24641132 273.2839632 C-198.24832116 270.12591361 -198.2502415 266.96786402 -198.25219727 263.80981445 C-198.25268101 263.02491495 -198.25316475 262.24001545 -198.25366315 261.43133112 C-198.26196255 248.7179629 -198.28729885 236.0046888 -198.31977794 223.29136167 C-198.35286384 210.2338964 -198.37086144 197.17647893 -198.37405556 184.11897153 C-198.37621918 176.78965141 -198.3849461 169.46046857 -198.41051674 162.13118935 C-198.4345187 155.23569804 -198.43803981 148.34045739 -198.42775536 141.44493294 C-198.42725934 138.91537403 -198.43359909 136.38580307 -198.4473114 133.85628128 C-198.46499849 130.39988831 -198.45793875 126.94438492 -198.44477844 123.48799133 C-198.45574769 122.48972503 -198.46671693 121.49145874 -198.47801858 120.46294194 C-198.39162101 111.04810551 -195.26817398 104.02172862 -188.890625 97.13671875 C-183.16319978 92.02253299 -176.70134216 90.31930881 -169.17871094 90.20483398 C-167.4373587 90.17491615 -167.4373587 90.17491615 -165.66082764 90.14439392 C-164.41279358 90.12768143 -163.16475952 90.11096893 -161.87890625 90.09375 C-160.59719543 90.0729689 -159.31548462 90.05218781 -157.99493408 90.03077698 C-154.59526853 89.97570878 -151.19554387 89.92623261 -147.79577637 89.87792969 C-144.32343311 89.82760293 -140.8511752 89.77197532 -137.37890625 89.71679688 C-130.57168864 89.60940203 -123.76439386 89.50791598 -116.95703125 89.41015625 C-117.16561768 88.59683838 -117.3742041 87.78352051 -117.58911133 86.94555664 C-117.86134521 85.87297607 -118.1335791 84.80039551 -118.4140625 83.6953125 C-118.68452393 82.63449463 -118.95498535 81.57367676 -119.23364258 80.48071289 C-123.79918037 61.10144564 -120.32407099 39.86064244 -110.33203125 22.72265625 C-98.54073491 4.76021416 -82.29696726 -7.21060364 -61.20703125 -12.46484375 C-40.03012642 -16.4533191 -17.72974336 -12.53026776 0 0 Z M-91.95703125 22.41015625 C-103.1572602 35.60443595 -108.62591139 50.8121109 -107.89453125 68.09765625 C-106.28758146 84.35520145 -99.45794889 98.78890015 -87.95703125 110.41015625 C-73.37040821 122.31609445 -57.53068473 128.39490717 -38.62109375 127.19921875 C-21.25460685 124.97058968 -6.22369255 116.78814877 5.04296875 103.41015625 C16.05675877 88.26857273 19.38516373 72.76223561 18.04296875 54.41015625 C15.31575127 37.99756428 6.42094309 23.39885118 -6.72265625 13.28125 C-34.70670788 -5.22820129 -68.78759422 -2.47428991 -91.95703125 22.41015625 Z M70.04296875 20.41015625 C69.41648437 21.00183594 68.79 21.59351562 68.14453125 22.203125 C57.54057624 33.07097934 52.23347282 49.01129898 51.66796875 63.91015625 C52.28975285 82.32037232 59.667003 98.27690314 72.71484375 111.01953125 C85.65927889 122.1682066 100.97796616 127.69486954 118.04296875 127.41015625 C135.2205031 125.86043018 150.49196302 118.99010729 162.42578125 106.37109375 C174.33621744 91.92897064 179.73833627 74.94052323 178.04296875 56.41015625 C175.4452598 38.40936536 166.32182148 23.63658176 152.03125 12.44921875 C146.99550995 9.01306671 141.71759399 6.59863966 136.04296875 4.41015625 C135.19605469 4.06984375 134.34914063 3.72953125 133.4765625 3.37890625 C110.60349898 -4.35283353 86.53078512 4.00732862 70.04296875 20.41015625 Z M-180.6015625 107.9453125 C-183.72376332 112.0281905 -185.08362433 114.03885414 -185.07055664 119.13525391 C-185.07048111 120.11611969 -185.07040558 121.09698547 -185.07032776 122.10757446 C-185.06516647 123.16906708 -185.06000519 124.23055969 -185.0546875 125.32421875 C-185.05327255 126.40899506 -185.0518576 127.49377136 -185.05039978 128.61141968 C-185.04478927 132.08602625 -185.03223497 135.56056906 -185.01953125 139.03515625 C-185.0145176 141.38671782 -185.00995446 143.7382804 -185.00585938 146.08984375 C-184.99481643 151.86330311 -184.97806804 157.63672513 -184.95703125 163.41015625 C-181.4205553 159.89197839 -181.4205553 159.89197839 -177.9921875 156.26953125 C-163.57496145 140.85309152 -143.51542684 132.76794168 -122.51953125 132.03515625 C-101.28346753 132.77074279 -83.12109996 140.50267077 -67.95703125 155.41015625 C-67.01537109 156.33248047 -67.01537109 156.33248047 -66.0546875 157.2734375 C-57.65059452 166.17300988 -53.09281941 177.03673881 -48.95703125 188.41015625 C-25.85703125 188.41015625 -2.75703125 188.41015625 21.04296875 188.41015625 C17.76285488 183.46079986 17.76285488 183.46079986 14.1953125 178.81640625 C13.67839844 178.18605469 13.16148437 177.55570312 12.62890625 176.90625 C12.08492187 176.24753906 11.5409375 175.58882813 10.98046875 174.91015625 C7.23352111 170.33803812 3.50095735 165.75922214 -0.13720703 161.09985352 C-1.01587089 159.97494923 -1.89835755 158.85302034 -2.78466797 157.73413086 C-5.33463935 154.51318729 -7.81485246 151.25414433 -10.25 147.9453125 C-11.3810274 146.45406062 -12.51252967 144.96316877 -13.64453125 143.47265625 C-14.155 142.75529297 -14.66546875 142.03792969 -15.19140625 141.29882812 C-16.68422148 139.36504062 -17.96477663 137.82642085 -19.95703125 136.41015625 C-22.83736828 136.05477628 -25.1895922 136.63511248 -27.95703125 137.41015625 C-47.88400665 141.92283491 -68.6645889 137.80467985 -86.09082031 127.61669922 C-94.42522735 122.22833716 -103.17764584 113.89690658 -108.16789246 105.33189392 C-109.83993099 103.15324386 -109.83993099 103.15324386 -112.66914368 102.90895081 C-113.76357285 102.90878464 -114.85800201 102.90861847 -115.9855957 102.90844727 C-117.22731033 102.89906631 -118.46902496 102.88968536 -119.74836731 102.88002014 C-121.10568934 102.89050164 -122.46300475 102.90187108 -123.8203125 102.9140625 C-125.21412735 102.91390749 -126.60794264 102.91241816 -128.00175476 102.90965271 C-130.92478466 102.90826774 -133.8473245 102.9208373 -136.77026367 102.94360352 C-140.50614203 102.97191024 -144.24120128 102.96927401 -147.97713947 102.9565134 C-150.85720229 102.94953498 -153.737078 102.9573713 -156.61711693 102.96977043 C-157.99373849 102.97426958 -159.37038025 102.97463522 -160.74700356 102.97070503 C-162.6781306 102.96777397 -164.60925317 102.98652704 -166.5402832 103.00610352 C-168.18550713 103.01420799 -168.18550713 103.01420799 -169.8639679 103.0224762 C-174.08711469 103.55179926 -177.47635701 105.02795916 -180.6015625 107.9453125 Z M13.35546875 109.84765625 C12.22887089 111.7505693 11.16533724 113.67148653 10.13378906 115.62744141 C6.26689743 121.94705705 -1.7222102 126.53445668 -7.95703125 130.41015625 C0.11537199 141.31880927 8.57866267 151.92214944 17.18554688 162.41210938 C19.91041828 165.74250776 22.58411019 169.09678735 25.171875 172.53515625 C25.666875 173.18742187 26.161875 173.8396875 26.671875 174.51171875 C27.60579878 175.74846795 28.52956308 176.99297594 29.44140625 178.24609375 C30.81009203 180.11079654 30.81009203 180.11079654 33.04296875 182.41015625 C36.85569455 182.84084113 36.85569455 182.84084113 38.51586914 181.16357422 C38.96953857 180.58236816 39.42320801 180.00116211 39.890625 179.40234375 C40.66599609 178.4278125 40.66599609 178.4278125 41.45703125 177.43359375 C42.27300781 176.37011719 42.27300781 176.37011719 43.10546875 175.28515625 C43.67910156 174.558125 44.25273437 173.83109375 44.84375 173.08203125 C46.58821224 170.86671858 48.31640958 168.6394355 50.04296875 166.41015625 C50.98837631 165.20348043 51.93490345 163.99768051 52.8828125 162.79296875 C54.21069302 161.10526765 55.53765922 159.4169534 56.85961914 157.72460938 C61.07311535 152.33698602 65.38719089 147.03282859 69.71679688 141.73828125 C70.73207488 140.4952891 71.74346051 139.2491023 72.75 137.99902344 C73.79932955 136.70955276 74.88478247 135.44953818 75.98046875 134.19921875 C77.2237899 132.46242146 77.2237899 132.46242146 77.0078125 130.35546875 C75.69482329 127.70822735 74.10823088 126.83913336 71.60546875 125.28515625 C65.45336341 121.1749514 58.5248033 115.97477463 54.9284668 109.36035156 C52.74193867 105.58933993 51.226701 103.73956927 46.93115234 102.54418945 C43.05303932 102.11124158 39.25069357 101.97638041 35.35546875 102.03515625 C34.33360977 102.0357756 34.33360977 102.0357756 33.29110718 102.03640747 C25.02569844 102.11066562 18.17568312 102.43611635 13.35546875 109.84765625 Z M173.34765625 109.6953125 C172.19913875 111.90986673 171.09231973 114.14692727 170.04296875 116.41015625 C159.02760975 128.76687798 140.7528641 137.38285297 124.2800293 138.6171875 C121.28128765 138.7138318 118.29320698 138.73786658 115.29296875 138.72265625 C113.71322266 138.72072266 113.71322266 138.72072266 112.1015625 138.71875 C104.38539595 138.62360615 97.41290516 137.82841663 90.04296875 135.41015625 C89.44871094 136.18617188 88.85445313 136.9621875 88.2421875 137.76171875 C82.36440582 145.42625 76.42567987 153.04025126 70.44726562 160.62646484 C69.02398584 162.43426771 67.60337083 164.24413275 66.18359375 166.0546875 C65.71405273 166.65321533 65.24451172 167.25174316 64.76074219 167.8684082 C63.83386714 169.05018999 62.90742508 170.23231152 61.98144531 171.41479492 C58.51594587 175.83223712 54.98235231 180.19094248 51.40625 184.51953125 C49.84800925 186.29204999 49.84800925 186.29204999 50.04296875 188.41015625 C73.14296875 188.41015625 96.24296875 188.41015625 120.04296875 188.41015625 C122.51796875 181.48015625 122.51796875 181.48015625 125.04296875 174.41015625 C134.41816346 156.03477462 148.93028683 142.90948465 168.63671875 136.18359375 C190.04755918 129.82439114 210.34340652 131.77536364 230.1328125 142.0078125 C239.4309676 147.15521488 246.88128325 153.17661052 252.94921875 161.94140625 C253.31015625 162.42609375 253.67109375 162.91078125 254.04296875 163.41015625 C254.37296875 163.41015625 254.70296875 163.41015625 255.04296875 163.41015625 C255.26125665 157.30918152 255.45785992 151.20802095 255.63500977 145.10571289 C255.69816383 143.03293503 255.76708417 140.96032406 255.84204102 138.88793945 C255.94919748 135.8969077 256.0351179 132.90587538 256.1171875 129.9140625 C256.15454514 128.99806778 256.19190277 128.08207306 256.23039246 127.13832092 C256.38621512 120.36408455 255.64787358 113.74636847 251.359375 108.25390625 C250.49119141 107.58875 250.49119141 107.58875 249.60546875 106.91015625 C249.02925781 106.44609375 248.45304688 105.98203125 247.859375 105.50390625 C239.85641353 100.6849187 227.12511719 102.7943427 217.98117638 102.65446663 C214.34085704 102.59792043 210.70496717 102.51651523 207.06689453 102.37451172 C188.11595362 100.52839606 188.11595362 100.52839606 173.34765625 109.6953125 Z M-171.64453125 167.47265625 C-183.32446271 182.36249795 -186.44418318 198.88767891 -184.95703125 217.41015625 C-182.65657215 233.29954524 -173.25724589 248.19588803 -160.51953125 257.78515625 C-146.38917958 267.40875231 -130.65825415 272.50854174 -113.48828125 269.87890625 C-101.59419177 267.50008835 -92.60561724 263.75183773 -82.95703125 256.41015625 C-81.94640625 255.68828125 -80.93578125 254.96640625 -79.89453125 254.22265625 C-72.05305917 247.42819891 -66.53324665 238.0308769 -62.95703125 228.41015625 C-62.63863281 227.60835938 -62.32023437 226.8065625 -61.9921875 225.98046875 C-56.64384616 210.15726534 -59.55125467 193.08370594 -66.51953125 178.41015625 C-74.09791748 163.43415586 -86.78493783 152.73673803 -102.6171875 147.1171875 C-128.36471989 139.33704833 -153.99096343 147.33982256 -171.64453125 167.47265625 Z M145.37109375 165.42578125 C140.08189279 171.88163214 135.90497502 178.53382191 133.04296875 186.41015625 C132.72585938 187.21066406 132.40875 188.01117188 132.08203125 188.8359375 C127.11126083 203.49743008 129.10467969 220.53738149 135.3984375 234.39453125 C136.82592161 237.1653047 138.36365549 239.78521029 140.04296875 242.41015625 C140.77773438 243.56257813 140.77773438 243.56257813 141.52734375 244.73828125 C151.34815749 258.64299774 167.27598947 266.89459056 183.70703125 269.94140625 C200.0255588 272.23440778 216.43808637 268.02332837 229.6640625 258.25390625 C230.44910156 257.64546875 231.23414063 257.03703125 232.04296875 256.41015625 C232.75582031 255.86359375 233.46867187 255.31703125 234.203125 254.75390625 C245.02556933 245.91244884 252.66758881 232.16395564 255.04296875 218.41015625 C256.95361763 198.5814699 253.42491414 182.5180873 240.9453125 166.76171875 C229.4350469 153.24172424 214.10746035 145.6623694 196.4453125 144.08984375 C176.98428681 143.47593127 158.26461246 150.436364 145.37109375 165.42578125 Z M-46.95703125 201.41015625 C-47.28703125 207.02015625 -47.61703125 212.63015625 -47.95703125 218.41015625 C-51.0298425 233.89239755 -56.25166265 246.5429647 -66.95703125 258.41015625 C-67.5603125 259.10625 -68.16359375 259.80234375 -68.78515625 260.51953125 C-82.17264244 275.03201628 -100.84173163 280.84368904 -119.890625 282.6953125 C-138.82451061 283.35814259 -157.64702489 276.73877712 -171.95703125 264.41015625 C-175.39691816 261.17261563 -178.70037475 257.83086075 -181.95703125 254.41015625 C-182.94703125 253.42015625 -183.93703125 252.43015625 -184.95703125 251.41015625 C-184.95703125 275.83015625 -184.95703125 300.25015625 -184.95703125 325.41015625 C-39.75703125 325.41015625 105.44296875 325.41015625 255.04296875 325.41015625 C255.04296875 300.99015625 255.04296875 276.57015625 255.04296875 251.41015625 C251.38633973 255.0619341 251.38633973 255.0619341 247.82421875 258.8046875 C233.16692928 274.34041041 213.68225799 282.04512025 192.54296875 282.78515625 C170.53940133 281.95294871 151.49820147 273.86715657 136.171875 257.8828125 C121.59752276 240.95517035 118.33792635 223.42443544 117.04296875 201.41015625 C92.29296875 201.41015625 67.54296875 201.41015625 42.04296875 201.41015625 C42.04296875 205.37015625 42.04296875 209.33015625 42.04296875 213.41015625 C44.2537915 213.43988525 44.2537915 213.43988525 46.50927734 213.47021484 C51.96241743 213.54611961 57.41528537 213.63485988 62.86816406 213.72753906 C65.23106526 213.76589152 67.59402609 213.80073317 69.95703125 213.83203125 C73.34787355 213.87754591 76.73830299 213.93556244 80.12890625 213.99609375 C81.19039886 214.00764496 82.25189148 214.01919617 83.34555054 214.03109741 C84.32641632 214.0509671 85.3072821 214.07083679 86.31787109 214.09130859 C87.61692886 214.1112941 87.61692886 214.1112941 88.94223022 214.13168335 C91.04296875 214.41015625 91.04296875 214.41015625 93.04296875 216.41015625 C93.24144483 219.07978111 93.31570694 221.64566917 93.30175781 224.31640625 C93.30701477 225.54097534 93.30701477 225.54097534 93.31237793 226.7902832 C93.32120223 229.49699328 93.31534368 232.20344337 93.30859375 234.91015625 C93.3099402 236.7858078 93.31188056 238.66145902 93.31439209 240.53710938 C93.3173443 244.47138791 93.31304261 248.40557574 93.30371094 252.33984375 C93.29231635 257.39090189 93.29887531 262.44174751 93.31085587 267.49279785 C93.31807186 271.36687836 93.31578774 275.24090822 93.31060028 279.11499023 C93.30926306 280.97778346 93.31091402 282.84058123 93.31555939 284.70336914 C93.32062036 287.30367267 93.31292056 289.9036287 93.30175781 292.50390625 C93.30580627 293.27903564 93.30985474 294.05416504 93.31402588 294.8527832 C93.27149719 300.18162781 93.27149719 300.18162781 91.04296875 302.41015625 C88.37597656 302.55444336 88.37597656 302.55444336 84.99609375 302.4375 C67.06554553 301.73312553 67.06554553 301.73312553 51.98925781 310.19702148 C50.64600214 311.57480875 49.34312266 312.99162413 48.04296875 314.41015625 C44.83423109 317.32496374 42.88000875 318.97136724 38.48046875 318.91015625 C35.60559296 318.7427342 34.12722857 318.45439265 31.54296875 317.09765625 C29.86294174 314.08760785 29.70903973 312.15233789 29.44921875 308.7421875 C29.33030273 307.24715698 29.33030273 307.24715698 29.20898438 305.72192383 C29.12680664 304.57759888 29.12680664 304.57759888 29.04296875 303.41015625 C28.42100616 303.4020694 27.79904358 303.39398254 27.15823364 303.38565063 C20.70211859 303.29979118 14.24631721 303.20029649 7.79052734 303.09277344 C5.37912247 303.05441978 2.96765913 303.01957835 0.55615234 302.98828125 C-2.90418438 302.94276922 -6.36411633 302.88475221 -9.82421875 302.82421875 C-10.90758514 302.81266754 -11.99095154 302.80111633 -13.10714722 302.78921509 C-14.10803375 302.7693454 -15.10892029 302.74947571 -16.14013672 302.72900391 C-17.46584183 302.7090184 -17.46584183 302.7090184 -18.81832886 302.68862915 C-20.95703125 302.41015625 -20.95703125 302.41015625 -22.95703125 300.41015625 C-23.15550733 297.74053139 -23.22976944 295.17464333 -23.21582031 292.50390625 C-23.22107727 291.27933716 -23.22107727 291.27933716 -23.22644043 290.0300293 C-23.23526473 287.32331922 -23.22940618 284.61686913 -23.22265625 281.91015625 C-23.2240027 280.0345047 -23.22594306 278.15885348 -23.22845459 276.28320312 C-23.2314068 272.34892459 -23.22710511 268.41473676 -23.21777344 264.48046875 C-23.20637885 259.42941061 -23.21293781 254.37856499 -23.22491837 249.32751465 C-23.23213436 245.45343414 -23.22985024 241.57940428 -23.22466278 237.70532227 C-23.22332556 235.84252904 -23.22497652 233.97973127 -23.22962189 232.11694336 C-23.23468286 229.51663983 -23.22698306 226.9166838 -23.21582031 224.31640625 C-23.21986877 223.54127686 -23.22391724 222.76614746 -23.22808838 221.9675293 C-23.18555969 216.63868469 -23.18555969 216.63868469 -20.95703125 214.41015625 C-18.81832886 214.13168335 -18.81832886 214.13168335 -16.14013672 214.09130859 C-15.13925018 214.0714389 -14.13836365 214.05156921 -13.10714722 214.03109741 C-12.02378082 214.0195462 -10.94041443 214.007995 -9.82421875 213.99609375 C-8.7172464 213.9767276 -7.61027405 213.95736145 -6.46975708 213.93740845 C-2.92392756 213.87748871 0.6219342 213.83117752 4.16796875 213.78515625 C6.56772272 213.7469879 8.96746283 213.70793686 11.3671875 213.66796875 C17.25900235 213.57177691 23.15088134 213.48779168 29.04296875 213.41015625 C29.04296875 209.45015625 29.04296875 205.49015625 29.04296875 201.41015625 C3.96296875 201.41015625 -21.11703125 201.41015625 -46.95703125 201.41015625 Z M-10.95703125 225.41015625 C-10.95703125 246.86015625 -10.95703125 268.31015625 -10.95703125 290.41015625 C4.70455573 290.65977146 4.70455573 290.65977146 20.36645508 290.88818359 C22.32765068 290.92338393 24.28883355 290.95930456 26.25 290.99609375 C27.78158752 291.01313354 27.78158752 291.01313354 29.34411621 291.03051758 C30.31828491 291.05057861 31.29245361 291.07063965 32.29614258 291.09130859 C33.14219559 291.10463226 33.9882486 291.11795593 34.85993958 291.13168335 C37.04296875 291.41015625 37.04296875 291.41015625 40.04296875 293.41015625 C40.5546875 295.79296875 40.5546875 295.79296875 40.73046875 298.53515625 C40.79621094 299.44523437 40.86195313 300.3553125 40.9296875 301.29296875 C40.98576172 302.34097656 40.98576172 302.34097656 41.04296875 303.41015625 C41.52765625 303.04664063 42.01234375 302.683125 42.51171875 302.30859375 C56.89937041 291.51785501 58.99789233 291.3287011 81.04296875 290.41015625 C81.04296875 268.96015625 81.04296875 247.51015625 81.04296875 225.41015625 C50.68296875 225.41015625 20.32296875 225.41015625 -10.95703125 225.41015625 Z M-184.95703125 338.41015625 C-188.28523243 370.61970491 -188.28523243 370.61970491 -180.95703125 380.41015625 C-176.07758302 384.70871778 -173.67289737 385.53523044 -167.19963455 385.54437733 C-166.49338424 385.54672956 -165.78713393 385.54908179 -165.0594821 385.5515053 C-162.66897308 385.5582158 -160.27851816 385.55773646 -157.88800049 385.55732727 C-156.16638313 385.56062462 -154.44476655 385.56434991 -152.72315097 385.56846875 C-147.97339433 385.57851152 -143.22365033 385.58220919 -138.47388458 385.58485806 C-133.35855062 385.58875437 -128.24322672 385.59833314 -123.12789917 385.60707092 C-110.76523192 385.6268542 -98.40256382 385.6369038 -86.03988469 385.64579871 C-80.22286559 385.65017847 -74.40584741 385.65554608 -68.58882904 385.66078758 C-49.26000279 385.67780155 -29.93117711 385.69229679 -10.60234451 385.69953632 C-5.58385467 385.70144632 -0.56536483 385.70336664 4.453125 385.70532227 C5.70049711 385.70580601 6.94786922 385.70628975 8.23304048 385.70678815 C28.44971647 385.71509239 48.66633336 385.74043521 68.88298354 385.77290294 C89.62332462 385.80594107 110.36363564 385.82398213 131.10400319 385.82718056 C142.75531378 385.82934865 154.40653818 385.83814088 166.05782318 385.86364174 C175.97856404 385.88530441 185.89919779 385.89342105 195.81995961 385.88367496 C200.88396689 385.8791174 205.94775298 385.88110076 211.01173019 385.9004364 C215.64555012 385.91797719 220.27898603 385.91714465 224.91280952 385.90153911 C226.59118111 385.89914916 228.26957866 385.90355792 229.9479104 385.91536776 C232.22647901 385.93041099 234.50367353 385.9208683 236.78220749 385.90514088 C238.04862981 385.90611769 239.31505212 385.90709449 240.61985087 385.9081009 C245.85857635 385.14604846 248.91459183 382.69101653 252.35546875 378.78515625 C260.16788131 367.78990894 255.04296875 351.89827152 255.04296875 338.41015625 C109.84296875 338.41015625 -35.35703125 338.41015625 -184.95703125 338.41015625 Z M-10.95703125 398.41015625 C-10.95703125 413.26015625 -10.95703125 428.11015625 -10.95703125 443.41015625 C19.73296875 443.41015625 50.42296875 443.41015625 82.04296875 443.41015625 C82.04296875 428.56015625 82.04296875 413.71015625 82.04296875 398.41015625 C51.35296875 398.41015625 20.66296875 398.41015625 -10.95703125 398.41015625 Z " fill="#000000" transform="translate(220.95703125,34.58984375)"/>
<path d="M0 0 C1.01503098 -0.01283524 2.03006195 -0.02567047 3.07585144 -0.03889465 C4.72113579 -0.04997505 4.72113579 -0.04997505 6.3996582 -0.0612793 C8.09612236 -0.07338692 8.09612236 -0.07338692 9.82685852 -0.08573914 C12.22342395 -0.09957816 14.62000908 -0.11030112 17.01660156 -0.11816406 C20.66875978 -0.13534898 24.32000626 -0.17923513 27.97192383 -0.22338867 C30.30199531 -0.23351824 32.63207447 -0.24203352 34.9621582 -0.2487793 C36.04889328 -0.26628738 37.13562836 -0.28379547 38.2552948 -0.30183411 C44.70113929 -0.28353967 49.65942388 0.40454089 55.01293945 4.17700195 C59.35937637 8.63781879 61.24914333 13.09442112 61.3034668 19.29931641 C61.3162265 20.29417557 61.32898621 21.28903473 61.34213257 22.31404114 C61.34435822 23.37870102 61.34658386 24.4433609 61.34887695 25.5402832 C61.35886215 27.19920845 61.35886215 27.19920845 61.36904907 28.89164734 C61.37916314 31.2291803 61.38386648 33.56674206 61.38354492 35.90429688 C61.38791112 39.46639033 61.42422662 43.02723751 61.4621582 46.58911133 C61.4680281 48.86449773 61.47199633 51.13989 61.47387695 53.4152832 C61.48824799 54.47387039 61.50261902 55.53245758 61.51742554 56.62312317 C61.47427255 63.66641734 60.53772688 69.47974376 55.53012085 74.7323761 C51.39091677 78.35392978 48.20908014 79.29553998 42.84228516 79.36987305 C41.78721268 79.38593597 40.7321402 79.4019989 39.64509583 79.41854858 C34.8149994 79.46311434 29.98503929 79.50407321 25.15478516 79.52709961 C22.61074669 79.54364356 20.0667544 79.57091253 17.52294922 79.60913086 C13.84879516 79.66402954 10.17573028 79.68579604 6.5012207 79.70043945 C5.37073807 79.72310883 4.24025543 79.7457782 3.07551575 79.76913452 C-3.83954844 79.75072999 -8.82926853 79.03003651 -13.98706055 74.17700195 C-18.8936654 68.14815207 -18.57155975 62.22358786 -18.51831055 54.6730957 C-18.52213745 53.47644791 -18.52596436 52.27980011 -18.52990723 51.04689026 C-18.53262186 48.5245784 -18.52529234 46.00223818 -18.50854492 43.47998047 C-18.48711218 39.6237915 -18.50837384 35.76946174 -18.53393555 31.91333008 C-18.53129256 29.45824785 -18.5261682 27.00316678 -18.51831055 24.5480957 C-18.52640747 23.39796494 -18.53450439 22.24783417 -18.54284668 21.06285095 C-18.45555785 13.59927226 -17.62690611 9.92364005 -12.3894043 4.5324707 C-8.15298078 1.15462902 -5.34727276 0.05894812 0 0 Z M-4.98706055 16.17700195 C-5.40077035 18.78854286 -5.40077035 18.78854286 -5.2800293 21.7199707 C-5.27036133 22.79311523 -5.26069336 23.86625977 -5.25073242 24.97192383 C-5.2255957 26.09147461 -5.20045898 27.21102539 -5.17456055 28.36450195 C-5.16102539 29.4956543 -5.14749023 30.62680664 -5.13354492 31.79223633 C-5.09816013 34.58763513 -5.04879003 37.38208088 -4.98706055 40.17700195 C-1.20632125 38.35931994 1.65192778 36.05787641 4.81762695 33.3215332 C7.01293945 32.17700195 7.01293945 32.17700195 9.87231445 32.12231445 C14.13783057 33.5547639 16.37815827 35.98819512 19.38793945 39.23950195 C19.93321289 39.80733398 20.47848633 40.37516602 21.0402832 40.96020508 C22.37618798 42.35470217 23.69620533 43.76438913 25.01293945 45.17700195 C27.82401989 43.88004424 29.51260225 42.73165033 31.88793945 40.61450195 C35.26329728 37.98172285 36.76043734 37.0902162 41.01293945 37.17700195 C43.45323576 38.35174243 45.68979701 39.77543668 48.01293945 41.17700195 C48.09987987 37.07296832 48.15331094 32.96917066 48.20043945 28.86450195 C48.22557617 27.69725586 48.25071289 26.53000977 48.27661133 25.32739258 C48.29111328 23.65 48.29111328 23.65 48.3059082 21.9387207 C48.32947388 20.39124146 48.32947388 20.39124146 48.35351562 18.8125 C48.23525332 16.19177556 48.23525332 16.19177556 46.77961731 14.5365448 C44.5157352 12.79437957 43.24392036 12.79708779 40.40551758 12.78881836 C39.00891907 12.77463364 39.00891907 12.77463364 37.58410645 12.76016235 C36.58093384 12.76623505 35.57776123 12.77230774 34.54418945 12.77856445 C33.51233521 12.77569427 32.48048096 12.7728241 31.4173584 12.76986694 C29.23518322 12.76782494 27.0529898 12.77336425 24.87084961 12.78588867 C21.52587045 12.8019399 18.18209967 12.78604404 14.8371582 12.7668457 C12.71866595 12.76882811 10.60017444 12.77267173 8.48168945 12.77856445 C6.97693054 12.76945541 6.97693054 12.76945541 5.44177246 12.76016235 C4.51070679 12.76961884 3.57964111 12.77907532 2.62036133 12.78881836 C1.80112183 12.79120514 0.98188232 12.79359192 0.13781738 12.79605103 C-2.49900237 13.26878356 -3.38920648 14.05910942 -4.98706055 16.17700195 Z M8.01293945 47.17700195 C5.82690342 48.86457372 3.66647169 50.57380352 1.51293945 52.30200195 C0.89290039 52.77637695 0.27286133 53.25075195 -0.3659668 53.73950195 C-4.16494887 56.80432014 -4.16494887 56.80432014 -5.51831055 61.41918945 C-5.22887779 64.30890949 -5.22887779 64.30890949 -2.98706055 66.17700195 C-0.86751393 66.49633406 -0.86751393 66.49633406 1.59863281 66.4675293 C2.54979477 66.480289 3.50095673 66.49304871 4.48094177 66.50619507 C5.51114944 66.50842072 6.54135712 66.51064636 7.6027832 66.51293945 C8.65824844 66.51959625 9.71371368 66.52625305 10.80116272 66.53311157 C13.03636936 66.54324987 15.27160633 66.54792823 17.50683594 66.54760742 C20.93320402 66.55197996 24.35828391 66.58828659 27.78442383 66.6262207 C29.9530392 66.63208862 32.12166071 66.63605818 34.2902832 66.63793945 C35.31846664 66.65231049 36.34665009 66.66668152 37.4059906 66.68148804 C38.36030472 66.67533478 39.31461884 66.66918152 40.29785156 66.6628418 C41.55788246 66.66711685 41.55788246 66.66711685 42.84336853 66.67147827 C45.18365022 66.34936989 45.18365022 66.34936989 46.81324768 64.27456665 C48.20013385 62.28293283 48.20013385 62.28293283 47.9230957 60.13012695 C46.80506509 57.73091962 45.51071281 56.57522064 43.45043945 54.92700195 C42.80977539 54.4062207 42.16911133 53.88543945 41.5090332 53.34887695 C41.01532227 52.9621582 40.52161133 52.57543945 40.01293945 52.17700195 C36.39393784 53.30793996 33.9999431 54.96465065 31.13793945 57.36450195 C28.31866938 59.48817642 27.16775857 60.15448281 23.57543945 60.67700195 C18.77792719 58.65699679 16.29975443 55.4992684 13.02856445 51.5246582 C11.05057972 49.00712826 11.05057972 49.00712826 8.01293945 47.17700195 Z " fill="#000000" transform="translate(154.987060546875,58.822998046875)"/>
<path d="M0 0 C0.92130707 -0.0159874 1.84261414 -0.03197479 2.7918396 -0.04844666 C3.78043976 -0.05380936 4.76903992 -0.05917206 5.78759766 -0.06469727 C6.81092194 -0.07372574 7.83424622 -0.08275421 8.88858032 -0.09205627 C11.05215531 -0.10655513 13.21577412 -0.1154446 15.37939453 -0.11914062 C18.68288319 -0.1310359 21.98450317 -0.18022569 25.28759766 -0.23071289 C27.39175522 -0.24017754 29.49592424 -0.24741238 31.60009766 -0.25219727 C32.58464935 -0.27172958 33.56920105 -0.2912619 34.58358765 -0.31138611 C39.07912132 -0.28193128 42.31328835 -0.21098872 45.91113281 2.66552734 C48.23211028 5.20302616 49.38916229 7.02515397 50.32666016 10.30639648 C50.83455078 10.02924805 51.34244141 9.75209961 51.86572266 9.46655273 C61.2615602 4.52230115 61.2615602 4.52230115 67.01416016 5.99389648 C69.79326687 7.57122732 70.75968192 8.50202482 72.32666016 11.30639648 C72.79500104 14.29211832 72.79468535 17.25341335 72.79541016 20.27124023 C72.80683044 21.57672569 72.80683044 21.57672569 72.81848145 22.90858459 C72.82927277 24.7468072 72.83213947 26.58509108 72.82763672 28.42333984 C72.82666458 31.23110517 72.86829018 34.03613517 72.91259766 36.84350586 C72.9178051 38.63191163 72.92049284 40.42032688 72.92041016 42.20874023 C72.93680542 43.04533676 72.95320068 43.88193329 72.97009277 44.74388123 C72.91843994 49.11539322 72.73506701 50.79198806 69.92333984 54.33349609 C66.54412445 56.90094998 64.85200554 57.0209097 60.75244141 56.81420898 C56.46078359 55.91579431 52.94911269 53.70423741 49.32666016 51.30639648 C49.28541016 52.19327148 49.24416016 53.08014648 49.20166016 53.99389648 C48.26705333 57.53205088 47.1485842 59.02438233 44.28930664 61.26754761 C40.33815211 63.35893415 36.0423979 62.99455456 31.67041016 62.93530273 C30.64991577 62.93771469 29.62942139 62.94012665 28.57800293 62.94261169 C26.42631127 62.94163477 24.274594 62.92827839 22.12304688 62.90332031 C18.83718126 62.86900636 15.55400588 62.88267219 12.26806641 62.90209961 C10.17300292 62.89520084 8.07794635 62.88552818 5.98291016 62.87280273 C4.51549377 62.88024254 4.51549377 62.88024254 3.01843262 62.88783264 C-2.67028578 62.79003331 -6.26499549 62.27662004 -10.67333984 58.30639648 C-12.47409265 55.3693386 -12.93084446 53.1477444 -12.96386719 49.72485352 C-12.97662689 48.8235672 -12.9893866 47.92228088 -13.00253296 46.99368286 C-13.00475861 46.02695648 -13.00698425 45.0602301 -13.00927734 44.06420898 C-13.01593414 43.06308075 -13.02259094 42.06195251 -13.02944946 41.03048706 C-13.03956801 38.91397945 -13.04426673 36.79743998 -13.04394531 34.6809082 C-13.0483146 31.45006471 -13.08463264 28.22059175 -13.12255859 24.98999023 C-13.12842774 22.93140114 -13.13239648 20.87280558 -13.13427734 18.81420898 C-13.14864838 17.85153107 -13.16301941 16.88885315 -13.17782593 15.89700317 C-13.13937326 10.2253288 -12.63160478 6.70495205 -8.67333984 2.30639648 C-5.71162858 0.48595276 -3.45317423 0.04547331 0 0 Z M0.32666016 12.30639648 C0.32666016 24.51639648 0.32666016 36.72639648 0.32666016 49.30639648 C12.53666016 49.30639648 24.74666016 49.30639648 37.32666016 49.30639648 C37.32666016 37.09639648 37.32666016 24.88639648 37.32666016 12.30639648 C25.11666016 12.30639648 12.90666016 12.30639648 0.32666016 12.30639648 Z M52.07275391 24.52905273 C50.10535706 26.2102772 50.10535706 26.2102772 49.79931641 28.86499023 C49.82436451 31.38769255 49.97749661 33.80890721 50.32666016 36.30639648 C51.44041016 36.96639648 52.55416016 37.62639648 53.70166016 38.30639648 C54.32814453 38.67764648 54.95462891 39.04889648 55.60009766 39.43139648 C57.30138683 40.45707996 57.30138683 40.45707996 59.32666016 40.30639648 C59.32666016 34.03639648 59.32666016 27.76639648 59.32666016 21.30639648 C56.71186215 21.30639648 54.22019107 23.2084363 52.07275391 24.52905273 Z " fill="#000000" transform="translate(383.67333984375,210.693603515625)"/>
<path d="M0 0 C4.72297949 4.37739562 7.23052753 8.36800223 7.74609375 14.78515625 C7.38174185 19.92484368 5.39129499 24.60380699 3.5625 29.375 C4.27792969 29.34881592 4.99335938 29.32263184 5.73046875 29.2956543 C9.0075844 29.19099221 12.28434737 29.12645504 15.5625 29.0625 C16.68785156 29.02060547 17.81320312 28.97871094 18.97265625 28.93554688 C26.11965765 28.83105855 31.23980622 29.32977711 36.5625 34.375 C41.81275941 40.37410782 41.20694194 47.51401112 41.13891602 55.13549805 C41.12504932 57.30478516 41.15917121 59.46974792 41.19726562 61.63867188 C41.23922237 69.24334523 41.07380486 75.65437936 35.5625 81.375 C31.22981815 84.65093018 27.24969215 85.49079684 21.9050293 85.53613281 C20.98694992 85.54574036 20.06887054 85.5553479 19.12297058 85.56524658 C17.64477592 85.5716214 17.64477592 85.5716214 16.13671875 85.578125 C15.11576614 85.58382507 14.09481354 85.58952515 13.04292297 85.59539795 C10.88352492 85.60483803 8.72411251 85.61137799 6.56469727 85.61523438 C3.27269158 85.62493315 -0.01868782 85.65596359 -3.31054688 85.6875 C-5.41145464 85.69403118 -7.51236685 85.6992812 -9.61328125 85.703125 C-10.59267166 85.7154718 -11.57206207 85.7278186 -12.58113098 85.74053955 C-18.92966937 85.71999847 -24.17688732 85.18234365 -29.1796875 80.875 C-33.04756363 75.75339851 -33.61182565 72.0186515 -33.67578125 65.76953125 C-33.683853 65.01266525 -33.69192474 64.25579926 -33.70024109 63.47599792 C-33.71407905 61.86626465 -33.7248025 60.25650206 -33.73266602 58.64672852 C-33.74405859 57.03042762 -33.76430208 55.4141604 -33.79418945 53.7980957 C-34.00560338 42.34985449 -32.81067743 32.32368457 -29.4375 21.375 C-29.16993896 20.49513428 -28.90237793 19.61526855 -28.62670898 18.70874023 C-27.97089523 16.67649965 -27.25733108 14.68371441 -26.5 12.6875 C-26.27376953 12.03845703 -26.04753906 11.38941406 -25.81445312 10.72070312 C-23.86456408 5.49797578 -21.12134835 2.12533588 -16.4609375 -0.9140625 C-11.02796034 -2.82294637 -5.13066745 -2.42540643 0 0 Z M-10.4375 10.375 C-12.81324797 12.95292375 -13.9909185 15.45687129 -15.0078125 18.78125 C-15.39259766 20.02068359 -15.39259766 20.02068359 -15.78515625 21.28515625 C-16.16994141 22.56712891 -16.16994141 22.56712891 -16.5625 23.875 C-16.82675781 24.72964844 -17.09101563 25.58429688 -17.36328125 26.46484375 C-18.06999151 28.76434263 -18.76984897 31.06385962 -19.4375 33.375 C-19.62666992 33.96514893 -19.81583984 34.55529785 -20.01074219 35.16333008 C-20.65159753 38.48455922 -20.57978566 41.79879834 -20.5703125 45.16796875 C-20.57126923 45.91460281 -20.57222595 46.66123688 -20.57321167 47.43049622 C-20.57389044 49.00306279 -20.57205729 50.57563221 -20.56787109 52.14819336 C-20.56249588 54.56435356 -20.56783784 56.98032977 -20.57421875 59.39648438 C-20.57355836 60.92447958 -20.57227801 62.45247467 -20.5703125 63.98046875 C-20.57233673 64.70646774 -20.57436096 65.43246674 -20.57644653 66.1804657 C-20.860945 69.56400887 -20.860945 69.56400887 -19.4375 72.375 C-18.07220486 72.47811197 -16.70168607 72.51348916 -15.33251953 72.52026367 C-14.02578781 72.52983345 -14.02578781 72.52983345 -12.69265747 72.53959656 C-11.27084671 72.54126579 -11.27084671 72.54126579 -9.8203125 72.54296875 C-8.36816849 72.54796135 -8.36816849 72.54796135 -6.88668823 72.55305481 C-4.83380612 72.55812878 -2.78091572 72.56046299 -0.72802734 72.56030273 C2.41713044 72.56248586 5.56193576 72.58062738 8.70703125 72.59960938 C10.69791546 72.60254383 12.68880135 72.60452828 14.6796875 72.60546875 C15.62351288 72.61265427 16.56733826 72.61983978 17.5397644 72.62724304 C18.85595261 72.6226281 18.85595261 72.6226281 20.19873047 72.61791992 C20.9707077 72.61934494 21.74268494 72.62076996 22.53805542 72.62223816 C24.87616757 72.49070294 24.87616757 72.49070294 27.5625 70.375 C28.01287172 67.69485437 28.01287172 67.69485437 27.92578125 64.5625 C27.92513672 63.40492187 27.92449219 62.24734375 27.92382812 61.0546875 C27.90771484 59.84039062 27.89160156 58.62609375 27.875 57.375 C27.87822266 56.16070312 27.88144531 54.94640625 27.88476562 53.6953125 C28.31472568 47.45264783 28.31472568 47.45264783 25.5625 42.375 C22.74735007 42.06859719 22.74735007 42.06859719 19.453125 42.1015625 C18.22335937 42.0809375 16.99359375 42.0603125 15.7265625 42.0390625 C13.13287761 42.01317742 10.53910539 41.99485497 7.9453125 41.984375 C-4.00482318 41.75984218 -4.00482318 41.75984218 -8.4375 37.375 C-10.99267056 29.70948833 -8.75251372 23.57665589 -6.1171875 16.23046875 C-5.89289063 15.28816406 -5.66859375 14.34585938 -5.4375 13.375 C-6.0975 12.385 -6.7575 11.395 -7.4375 10.375 C-8.4275 10.375 -9.4175 10.375 -10.4375 10.375 Z " fill="#000000" transform="translate(332.4375,57.625)"/>
<path d="M0 0 C1.20167313 -0.00960754 2.40334625 -0.01921509 3.64143372 -0.02911377 C4.94142807 -0.03336365 6.24142242 -0.03761353 7.58081055 -0.04199219 C8.92978415 -0.04774712 10.27875774 -0.05350481 11.62773132 -0.05926514 C14.45641459 -0.069766 17.28506952 -0.07561441 20.11376953 -0.07910156 C23.7284919 -0.08457964 27.34283634 -0.10859634 30.95744038 -0.13707352 C33.7447975 -0.15575098 36.53206459 -0.16090823 39.31947899 -0.16243744 C41.29695883 -0.16691553 43.27439038 -0.18553813 45.25178528 -0.20440674 C46.46291489 -0.20140564 47.67404449 -0.19840454 48.921875 -0.1953125 C49.98316116 -0.19895813 51.04444733 -0.20260376 52.13789368 -0.20635986 C56.32790253 0.30399093 59.70252323 1.80523048 62.79956055 4.69628906 C66.90903767 10.07022068 67.32471288 13.24003274 67.3581543 19.89550781 C67.36385437 20.76628967 67.36955444 21.63707153 67.37542725 22.53424072 C67.38488373 24.38023664 67.39141379 26.2262495 67.39526367 28.07226562 C67.404943 30.88604583 67.43594899 33.69908745 67.4675293 36.51269531 C67.47406206 38.30696181 67.47931146 40.10123354 67.4831543 41.89550781 C67.4955011 42.73321716 67.5078479 43.57092651 67.52056885 44.434021 C67.50168222 49.43035744 66.91029316 52.82576562 64.1550293 57.16113281 C59.12433123 61.92705729 54.7148941 63.4371738 47.8425293 63.28613281 C46.77389648 63.26808594 45.70526367 63.25003906 44.60424805 63.23144531 C43.39188477 63.19664062 43.39188477 63.19664062 42.1550293 63.16113281 C42.0931543 64.21300781 42.0312793 65.26488281 41.9675293 66.34863281 C41.01365482 70.82450537 39.62455942 72.28396149 36.1550293 75.16113281 C32.90122854 76.78803319 29.67268287 76.69497309 26.1550293 76.16113281 C23.1509452 74.86301153 20.53625611 73.13282371 17.8425293 71.28613281 C17.14063477 70.8259375 16.43874023 70.36574219 15.71557617 69.89160156 C13.85020163 68.66461545 12.00078127 67.41734769 10.1550293 66.16113281 C6.78199251 63.91244162 5.42502089 63.91788029 1.4675293 63.78613281 C-5.57968155 63.2918907 -10.42919671 61.76273557 -15.2824707 56.53613281 C-18.19714716 52.1058246 -18.03911405 48.39251166 -18.08325195 43.20800781 C-18.0913237 42.31502991 -18.09939545 41.422052 -18.10771179 40.50201416 C-18.1215564 38.60894718 -18.13227687 36.7158552 -18.14013672 34.82275391 C-18.1573205 31.93636272 -18.20119912 29.0511256 -18.24536133 26.16503906 C-18.2554909 24.32520373 -18.26400618 22.48535866 -18.27075195 20.64550781 C-18.28826004 19.78592468 -18.30576813 18.92634155 -18.32380676 18.04071045 C-18.30416929 12.57723296 -17.47261247 9.49985713 -13.8449707 5.16113281 C-9.25143955 1.01575104 -6.10772621 0.03938389 0 0 Z M-4.65556335 15.00743103 C-6.27121241 17.93294369 -6.23334417 20.1690631 -6.2434082 23.50097656 C-6.24727539 24.72880859 -6.25114258 25.95664063 -6.25512695 27.22167969 C-6.24352539 28.50107422 -6.23192383 29.78046875 -6.2199707 31.09863281 C-6.23157227 32.37416016 -6.24317383 33.6496875 -6.25512695 34.96386719 C-6.25125977 36.19298828 -6.24739258 37.42210937 -6.2434082 38.68847656 C-6.24002441 39.80988037 -6.23664063 40.93128418 -6.2331543 42.08666992 C-5.79875692 45.52715178 -4.9820294 47.44315048 -2.8449707 50.16113281 C0.2727289 50.57311172 0.2727289 50.57311172 3.8425293 50.28613281 C13.96562957 50.2246971 20.47697788 56.23164526 28.1550293 62.16113281 C28.4850293 62.16113281 28.8150293 62.16113281 29.1550293 62.16113281 C29.33678711 61.09572266 29.33678711 61.09572266 29.5222168 60.00878906 C29.68979492 59.0896875 29.85737305 58.17058594 30.0300293 57.22363281 C30.27366211 55.84884766 30.27366211 55.84884766 30.5222168 54.44628906 C30.73104492 53.6921875 30.93987305 52.93808594 31.1550293 52.16113281 C33.3844514 51.04642176 34.70897242 50.99672482 37.18237305 50.91503906 C37.97450195 50.88216797 38.76663086 50.84929687 39.58276367 50.81542969 C41.25190127 50.75437952 42.92117998 50.69706934 44.59057617 50.64355469 C45.38399414 50.60939453 46.17741211 50.57523438 46.99487305 50.54003906 C47.72053467 50.51498291 48.44619629 50.48992676 49.19384766 50.46411133 C51.47371612 50.2528478 51.47371612 50.2528478 54.1550293 48.16113281 C54.44719799 45.63066458 54.5513607 43.34820401 54.51831055 40.81738281 C54.51880905 40.09248657 54.51930756 39.36759033 54.51982117 38.62072754 C54.51747971 37.08745585 54.50774685 35.5541804 54.49121094 34.02099609 C54.46762053 31.67022436 54.47064851 29.32058652 54.47729492 26.96972656 C54.47171815 25.48143853 54.46460827 23.99315529 54.45581055 22.50488281 C54.45672195 21.79964478 54.45763336 21.09440674 54.45857239 20.36779785 C54.51022591 16.31522404 54.51022591 16.31522404 52.1550293 13.16113281 C49.75054048 12.84076403 49.75054048 12.84076403 46.92675781 12.87060547 C45.83545059 12.85784576 44.74414337 12.84508606 43.61976624 12.8319397 C42.43644211 12.82971405 41.25311798 12.8274884 40.03393555 12.82519531 C38.82309799 12.81853851 37.61226044 12.81188171 36.36473083 12.80502319 C33.79997277 12.79488259 31.23518825 12.79020661 28.67041016 12.79052734 C24.73710865 12.78615458 20.80492893 12.74984842 16.87182617 12.71191406 C14.38419982 12.70604629 11.89656811 12.70207663 9.40893555 12.70019531 C8.22763565 12.68582428 7.04633575 12.67145325 5.82923889 12.65664673 C4.73477951 12.66279999 3.64032013 12.66895325 2.51269531 12.67529297 C1.06613304 12.67101791 1.06613304 12.67101791 -0.40965271 12.66665649 C-2.97735332 12.95118583 -2.97735332 12.95118583 -4.65556335 15.00743103 Z " fill="#000000" transform="translate(73.844970703125,203.8388671875)"/>
<path d="M0 0 C0.87100342 -0.00945648 1.74200684 -0.01891296 2.6394043 -0.02865601 C3.57695557 -0.02258331 4.51450684 -0.01651062 5.48046875 -0.01025391 C6.44573486 -0.01312408 7.41100098 -0.01599426 8.40551758 -0.01895142 C10.44645779 -0.02099302 12.48741752 -0.01545648 14.52832031 -0.00292969 C17.65604315 0.01312239 20.78247371 -0.00277536 23.91015625 -0.02197266 C25.89192994 -0.01999024 27.87370283 -0.0161466 29.85546875 -0.01025391 C30.79302002 -0.0163266 31.73057129 -0.02239929 32.6965332 -0.02865601 C33.56753662 -0.01919952 34.43854004 -0.00974304 35.3359375 0 C36.10188232 0.00238678 36.86782715 0.00477356 37.65698242 0.00723267 C40.20948547 0.49076574 41.07246251 1.37599312 42.66796875 3.38818359 C43.60546875 5.76318359 43.60546875 5.76318359 43.66796875 8.38818359 C42.2890625 11.01074219 42.2890625 11.01074219 39.66796875 13.38818359 C36.38291576 14.14727911 33.15261384 14.08883838 29.79296875 14.05224609 C28.83148926 14.05702972 27.87000977 14.06181335 26.87939453 14.06674194 C24.84861615 14.07014113 22.81778307 14.06093738 20.78710938 14.04003906 C17.67844651 14.01327381 14.5733943 14.03978624 11.46484375 14.07177734 C9.49087745 14.06847325 7.51691339 14.06206702 5.54296875 14.05224609 C4.14908936 14.06742783 4.14908936 14.06742783 2.72705078 14.08291626 C-3.69469695 13.9662724 -3.69469695 13.9662724 -6.953125 11.01074219 C-8.33203125 8.38818359 -8.33203125 8.38818359 -8.26953125 5.76318359 C-6.56426963 1.44318748 -4.62124569 0.01440038 0 0 Z " fill="#000000" transform="translate(238.33203125,390.61181640625)"/>
<path d="M0 0 C2.10347689 -0.01190601 4.20402627 -0.06109972 6.30688477 -0.11157227 C7.64736528 -0.12103632 8.98786376 -0.12827145 10.32836914 -0.13305664 C12.15356079 -0.15323853 12.15356079 -0.15323853 14.015625 -0.17382812 C17.17602539 0.42553711 17.17602539 0.42553711 19.60791016 2.76123047 C21.17602539 5.42553711 21.17602539 5.42553711 21.11352539 8.61303711 C20.17602539 11.42553711 20.17602539 11.42553711 17.17602539 13.42553711 C12.91008637 13.83443501 8.63514298 13.79714248 4.35205078 13.79614258 C2.24893184 13.80051547 0.14791363 13.8368419 -1.95483398 13.87475586 C-3.29532162 13.88062461 -4.6358192 13.88459361 -5.97631836 13.88647461 C-7.19311279 13.89469238 -8.40990723 13.90291016 -9.66357422 13.91137695 C-12.82397461 13.42553711 -12.82397461 13.42553711 -15.25585938 11.62329102 C-16.82397461 9.42553711 -16.82397461 9.42553711 -16.76147461 5.80053711 C-14.63313158 -1.86149778 -6.55719399 0.01760423 0 0 Z " fill="#000000" transform="translate(241.823974609375,299.574462890625)"/>
<path d="M0 0 C0.7437085 0.00217529 1.48741699 0.00435059 2.25366211 0.0065918 C4.52116059 0.00974886 6.78735072 -0.01369197 9.0546875 -0.0390625 C10.49413898 -0.04133579 11.93359397 -0.04203885 13.37304688 -0.04101562 C14.68523193 -0.04399658 15.99741699 -0.04697754 17.34936523 -0.05004883 C20.59570312 0.32226562 20.59570312 0.32226562 22.52368164 1.6574707 C24.20832889 4.27364232 23.97389399 6.29673872 23.59570312 9.32226562 C21.74227538 11.88176109 20.65813919 12.3014536 17.59570312 13.32226562 C13.30829454 13.5831627 9.01519495 13.55369485 4.72070312 13.57226562 C3.53605469 13.59289062 2.35140625 13.61351562 1.13085938 13.63476562 C-0.01253906 13.63992188 -1.1559375 13.64507812 -2.33398438 13.65039062 C-3.89995361 13.66440918 -3.89995361 13.66440918 -5.49755859 13.67871094 C-8.83606411 13.2693192 -10.71960265 12.31852994 -13.40429688 10.32226562 C-14.21662538 7.45355307 -13.74139791 5.35617493 -13.40429688 2.32226562 C-9.90928716 -1.17274409 -4.72456884 0.01831674 0 0 Z " fill="#000000" transform="translate(263.404296875,274.677734375)"/>
<path d="M0 0 C1.04027344 -0.01933594 2.08054687 -0.03867187 3.15234375 -0.05859375 C6.73308446 0.5518144 7.9290077 1.53615661 10.0625 4.4375 C10 8.0625 10 8.0625 9.0625 11.4375 C5.64328453 13.71697698 4.15939823 13.76263105 0.125 13.8125 C-0.91527344 13.84085937 -1.95554687 13.86921875 -3.02734375 13.8984375 C-6.61377611 13.33038513 -7.78862876 12.31823318 -9.9375 9.4375 C-9.87394038 6.32307868 -9.57927591 4.3326085 -7.75 1.78125 C-5.16100524 -0.13817715 -3.19098142 0.00394435 0 0 Z " fill="#000000" transform="translate(276.9375,299.5625)"/>
<path d="M0 0 C1.2375 -0.0103125 2.475 -0.020625 3.75 -0.03125 C7 0.5 7 0.5 8.9375 2.33984375 C10.48365929 5.483322 10.11573799 7.22251966 9 10.5 C5.60899169 13.58273483 2.34926953 13.98158312 -2.06640625 13.78125 C-5.05135751 13.34707527 -6.76973895 12.52751005 -9 10.5 C-10.11573799 7.22251966 -10.48365929 5.483322 -8.9375 2.33984375 C-6.08180024 -0.37191953 -3.86823721 -0.03223531 0 0 Z " fill="#000000" transform="translate(235,274.5)"/>
</svg>
