<?xml version="1.0" encoding="UTF-8"?>
<svg version="1.1" xmlns="http://www.w3.org/2000/svg" width="512" height="512">
<path d="M0 0 C0.84820312 0.72703125 1.69640625 1.4540625 2.5703125 2.203125 C30.78366053 26.8790196 49.03091804 64.37168044 52.75390625 101.6015625 C55.59627567 145.51773185 44.88954438 186.5659777 17 221 C15.99297796 222.3280378 14.98975383 223.6590432 14 225 C15.3761536 228.09179136 16.95158445 230.19638753 19.34814453 232.57519531 C20.02869904 233.25559875 20.70925354 233.9360022 21.41043091 234.63702393 C22.14381683 235.36008728 22.87720276 236.08315063 23.6328125 236.828125 C24.38464813 237.57713074 25.13648376 238.32613647 25.91110229 239.09783936 C28.31107901 241.4866302 30.71792009 243.86836897 33.125 246.25 C34.75436352 247.86933169 36.38327534 249.48911802 38.01171875 251.109375 C42.00258806 255.07820505 45.99911415 259.04126899 50 263 C51.11997501 262.04304815 52.23952127 261.08559449 53.35888672 260.12792969 C53.98238007 259.59480164 54.60587341 259.06167358 55.2482605 258.51239014 C57.23971677 256.79303699 59.18125886 255.02295217 61.125 253.25 C65.96551018 249.04932737 69.33666703 247.81031484 75.83984375 247.63671875 C83.24354608 248.88182601 87.91680151 254.49137172 92.95532227 259.56713867 C94.27595169 260.87988266 94.27595169 260.87988266 95.6232605 262.21914673 C98.02764162 264.61261045 100.42510591 267.01260124 102.81925321 269.41627669 C105.33349134 271.9381374 107.85507233 274.45263917 110.37547302 276.96833801 C114.60818442 281.19559741 118.83454579 285.42912818 123.05737305 289.66625977 C127.92666931 294.55186033 132.80664975 299.42658836 137.69236141 304.29576892 C141.89765661 308.48740815 146.09702458 312.68491821 150.29158062 316.88730413 C152.79194359 319.3923238 155.29424052 321.8953213 157.80191231 324.39302635 C160.6012947 327.18205792 163.3882052 329.98335411 166.17407227 332.78588867 C166.99758682 333.60333054 167.82110138 334.4207724 168.66957092 335.26298523 C177.54060459 344.23225847 182.99543393 353.12775945 183.375 366 C182.99769193 378.29395453 177.5733539 389.22726578 169 398 C158.32435081 406.3148892 147.54428872 410.1368108 134 409 C121.12155848 406.33438742 112.87269292 398.17543833 103.84008789 389.11474609 C102.97391846 388.25368759 102.10774902 387.39262909 101.21533203 386.50547791 C98.86692697 384.16850048 96.52304608 381.82717713 94.18162847 379.48321104 C92.21992577 377.5204309 90.25523743 375.56065236 88.29061121 373.6007992 C83.65779578 368.97902726 79.03026447 364.35201182 74.40600586 359.72167969 C69.64250943 354.95212342 64.86985966 350.19186733 60.09272772 345.43597162 C55.9784254 341.33928467 51.86995277 337.23681482 47.76607698 333.12968314 C45.32032513 330.68212097 42.87241562 328.23682166 40.41880989 325.79713058 C37.68877106 323.08200203 34.97093218 320.35486161 32.25415039 317.62646484 C31.44326462 316.82322281 30.63237885 316.01998077 29.79692078 315.19239807 C29.05831818 314.44678116 28.31971558 313.70116425 27.55873108 312.93295288 C26.5945556 311.96902902 26.5945556 311.96902902 25.61090183 310.98563194 C22.43912347 307.07603031 21.51029926 303.1150998 21.70703125 298.09375 C22.99310667 288.90259766 30.59433827 283.00806894 37 277 C32.82222235 272.01407125 28.46872723 267.33295716 23.8515625 262.75390625 C23.19417084 262.09792953 22.53677917 261.44195282 21.85946655 260.76609802 C19.78367138 258.69584732 17.70440573 256.62912349 15.625 254.5625 C14.2067992 253.14932138 12.78882824 251.73591206 11.37109375 250.32226562 C7.91671223 246.87883935 4.4592163 243.43856901 1 240 C-2.72820702 241.41763352 -5.29281373 242.882581 -8.3125 245.5 C-41.33889477 272.43745768 -84.57625795 282.67140854 -126.5390625 278.5390625 C-144.46066006 276.32491928 -161.81412045 270.93469171 -178 263 C-179.08152344 262.47921875 -180.16304688 261.9584375 -181.27734375 261.421875 C-217.8600177 242.79139086 -246.48843211 207.96239831 -259.69140625 169.203125 C-273.19551495 126.98384723 -269.17617266 84.36316175 -249.07861328 45.04296875 C-242.73860801 33.03455678 -234.26030675 22.17639579 -225.04296875 12.25390625 C-223.62324156 10.68759155 -222.26157259 9.06747167 -220.94921875 7.41015625 C-218.01488895 3.78193684 -214.58577391 0.96946902 -211 -2 C-210.01 -2.82757813 -209.02 -3.65515625 -208 -4.5078125 C-145.96627043 -55.38062335 -60.0366366 -52.55603332 0 0 Z M-204 14 C-204.88171875 14.79921875 -205.7634375 15.5984375 -206.671875 16.421875 C-234.11651729 42.46806418 -248.07164517 79.64284455 -250.22265625 116.8515625 C-251.07259074 153.14006969 -238.1873971 188.22910174 -213.2890625 214.66796875 C-210.87456201 217.12779263 -208.44692073 219.57240724 -206 222 C-204.98873047 223.00740234 -204.98873047 223.00740234 -203.95703125 224.03515625 C-182.46397314 244.35373031 -154.1133155 257.55657578 -125 262 C-123.74123047 262.19529297 -123.74123047 262.19529297 -122.45703125 262.39453125 C-87.4588482 266.79128791 -50.21686037 255.51092314 -22.3125 234.1875 C9.93478381 208.73512639 31.49407688 173.99101415 36.53125 132.796875 C40.70156189 93.27369184 26.01897635 56.55529627 1.578125 26.15625 C0.72005347 25.1031033 -0.13931094 24.0510086 -1 23 C-1.65162109 22.1961084 -1.65162109 22.1961084 -2.31640625 21.37597656 C-12.53548093 8.89542992 -26.79426768 -0.61379547 -41 -8 C-42.16015625 -8.60714844 -43.3203125 -9.21429688 -44.515625 -9.83984375 C-97.12884298 -36.34403071 -161.31336771 -25.43225118 -204 14 Z M71.50668335 267.25280762 C70.92488312 267.83904907 70.34308289 268.42529053 69.74365234 269.02929688 C69.08311859 269.68998169 68.42258484 270.3506665 67.74203491 271.03137207 C67.03052277 271.75320679 66.31901062 272.4750415 65.5859375 273.21875 C64.85629791 273.95121948 64.12665833 274.68368896 63.37490845 275.43835449 C61.0368896 277.78760224 58.70590539 280.14369618 56.375 282.5 C54.79472806 284.09029823 53.21400471 285.68014803 51.6328125 287.26953125 C47.74994808 291.17449196 43.87284291 295.08510139 40 299 C41.38350079 302.10763023 42.98219838 304.23641257 45.37564087 306.64306641 C46.07361786 307.34957336 46.77159485 308.05608032 47.49072266 308.78399658 C48.25642578 309.54879333 49.02212891 310.31359009 49.81103516 311.1015625 C50.61777679 311.91502136 51.42451843 312.72848022 52.25570679 313.56658936 C54.92817351 316.25807584 57.60814429 318.94193337 60.2890625 321.625 C62.15048905 323.49285254 64.01176424 325.36085593 65.87289429 327.22900391 C69.77798869 331.1468853 73.68797044 335.0598455 77.60009766 338.97070312 C82.11147454 343.48088013 86.61159527 348.00207347 91.1065346 352.5286274 C95.44074674 356.89222605 99.78604499 361.24462425 104.13557053 365.59295654 C105.97992823 367.43967171 107.82104979 369.28962488 109.65883255 371.1428833 C112.23399776 373.73769204 114.82158703 376.31946383 117.41259766 378.8984375 C118.1661554 379.66323425 118.91971313 380.42803101 119.69610596 381.21600342 C125.7726909 387.22128242 131.95022264 391.50278554 140.7109375 392.08984375 C147.86344318 391.809114 153.07832353 388.80058642 158.20703125 383.96875 C162.93642495 378.77569026 165.7096307 373.77480091 166.25 366.75 C165.15502065 350.32530973 146.79316059 337.62988649 135.91015625 326.7421875 C134.1565386 324.98535274 132.40299467 323.2284444 130.64952087 321.47146606 C126.99427193 317.81025981 123.33699306 314.15109525 119.6784668 310.49316406 C115.91848449 306.73326368 112.16191454 302.97001192 108.40893555 299.203125 C103.86433377 294.64192277 99.31492975 290.08556865 94.76168633 285.53299332 C93.02844259 283.79856651 91.29682708 282.06251105 89.56685066 280.32482529 C87.16131575 277.90956117 84.74961095 275.50063376 82.33618164 273.09326172 C81.61880325 272.37026382 80.90142487 271.64726593 80.16230774 270.90235901 C79.50784668 270.25209244 78.85338562 269.60182587 78.17909241 268.93185425 C77.61005219 268.36226927 77.04101198 267.79268429 76.45472813 267.20583916 C74.40016341 265.50278926 73.54448502 265.54320808 71.50668335 267.25280762 Z " fill="#000000" transform="translate(298,72)"/>
<path d="M0 0 C16.55094359 -0.56146269 32.57993145 4.66208281 45.0859375 15.59765625 C46.60652701 17.09790342 48.10784081 18.61802649 49.5859375 20.16015625 C50.27945313 20.82273437 50.97296875 21.4853125 51.6875 22.16796875 C63.23898515 33.89785522 68.729201 50.26771802 69.0234375 66.47265625 C68.86889463 85.82534101 61.11527034 102.32069544 47.5859375 116.16015625 C34.21445345 128.06627218 17.55430155 135.04231573 -0.53515625 134.44921875 C-9.53493429 133.54557754 -18.14558661 131.7943942 -26.265625 127.734375 C-29.31204077 126.92015115 -30.65222879 127.70345738 -33.4140625 129.16015625 C-35.23809378 130.42729302 -37.02875895 131.7433826 -38.7890625 133.09765625 C-46.17204841 138.51184592 -50.54522467 140.68912708 -59.86328125 139.58203125 C-62.09077259 139.21362533 -64.23663569 138.75168204 -66.4140625 138.16015625 C-66.54361328 139.57167969 -66.54361328 139.57167969 -66.67578125 141.01171875 C-68.08071799 153.4628095 -68.08071799 153.4628095 -71.62109375 156.78515625 C-72.21277344 157.23890625 -72.80445313 157.69265625 -73.4140625 158.16015625 C-74.26355469 158.86140625 -75.11304688 159.56265625 -75.98828125 160.28515625 C-83.1906713 165.70813228 -88.4937984 167.37201286 -97.4140625 166.16015625 C-99.41628663 165.8404538 -101.41700233 165.51067271 -103.4140625 165.16015625 C-103.59582031 166.18496094 -103.77757812 167.20976562 -103.96484375 168.265625 C-104.21822928 169.62639915 -104.4721647 170.98707098 -104.7265625 172.34765625 C-104.84451172 173.02119141 -104.96246094 173.69472656 -105.08398438 174.38867188 C-106.1274874 179.87375187 -107.46680578 183.53317202 -111.7890625 187.14453125 C-112.6553125 187.7271875 -113.5215625 188.30984375 -114.4140625 188.91015625 C-115.2803125 189.503125 -116.1465625 190.09609375 -117.0390625 190.70703125 C-123.04104424 194.37929639 -129.21869017 193.54976798 -135.796875 192.09375 C-137.71375267 191.60598483 -139.62782202 191.10706245 -141.5390625 190.59765625 C-142.50199219 190.37013672 -143.46492188 190.14261719 -144.45703125 189.90820312 C-150.12887063 188.40637495 -153.87690137 186.77474818 -157.3894043 181.95776367 C-160.58338733 176.35440483 -159.16049073 170.35794561 -158.2265625 164.28515625 C-158.11248047 163.42535156 -157.99839844 162.56554687 -157.88085938 161.6796875 C-156.74543775 154.08331337 -155.00334712 147.88117237 -148.75390625 143.02734375 C-147.29806942 142.01307507 -145.8298313 141.01644274 -144.3515625 140.03515625 C-142.72436773 138.90884066 -141.09809514 137.78119186 -139.47265625 136.65234375 C-138.63589355 136.07838867 -137.79913086 135.50443359 -136.93701172 134.91308594 C-132.86422432 132.08333816 -128.89314325 129.11947672 -124.9140625 126.16015625 C-118.04169476 121.07798662 -111.12991088 116.05401241 -104.19238281 111.0612793 C-100.29883008 108.25528019 -96.41766406 105.43392081 -92.5546875 102.5859375 C-91.74483398 101.98950439 -90.93498047 101.39307129 -90.10058594 100.77856445 C-88.48829274 99.58356117 -86.88203656 98.38036539 -85.28222656 97.16870117 C-81.64618605 94.4325541 -78.07441934 91.89338084 -74.0703125 89.72265625 C-70.15466155 87.52651157 -67.26399777 85.69445097 -64.4140625 82.16015625 C-63.21082451 76.62264577 -64.36799364 70.96084357 -65.16748047 65.43115234 C-66.74341617 50.91694061 -58.91963585 35.79555844 -50.3515625 24.66015625 C-39.09888255 11.3615345 -22.0236255 1.92825777 -4.515625 0.2890625 C-3.01016522 0.19672017 -1.50498081 0.099845 0 0 Z M-36.1875 34.515625 C-44.79477086 44.73864671 -48.6251489 55.81648044 -48.4140625 69.16015625 C-46.95707516 83.00153597 -40.83787484 95.81529993 -30.4140625 105.16015625 C-19.18611064 113.6401259 -7.50782152 118.14344176 6.5859375 117.16015625 C21.62204535 114.81944289 33.41269997 107.78365312 42.69140625 95.84375 C50.31879542 85.03959256 52.71771222 74.26638698 51.5859375 61.16015625 C48.27371605 45.22568547 39.75882875 32.62286013 26.140625 23.62890625 C4.96178407 11.45269189 -19.74372223 17.10610156 -36.1875 34.515625 Z M-61.87890625 101.51171875 C-62.58660156 102.02605469 -63.29429687 102.54039062 -64.0234375 103.0703125 C-64.79171875 103.63621094 -65.56 104.20210938 -66.3515625 104.78515625 C-67.55232422 105.66107422 -67.55232422 105.66107422 -68.77734375 106.5546875 C-71.32719074 108.41742619 -73.87144235 110.28756728 -76.4140625 112.16015625 C-77.21215332 112.74764648 -78.01024414 113.33513672 -78.83251953 113.94042969 C-81.99132918 116.26701323 -85.14910797 118.59497588 -88.30444336 120.92626953 C-94.37858588 125.41070233 -100.49233535 129.83765837 -106.62036133 134.24804688 C-113.10177319 138.91928332 -119.53641688 143.65255473 -125.95898438 148.40429688 C-126.70083984 148.95279297 -127.44269531 149.50128906 -128.20703125 150.06640625 C-128.91448486 150.59661377 -129.62193848 151.12682129 -130.35083008 151.6730957 C-132.4140625 153.16015625 -132.4140625 153.16015625 -134.4675293 154.41870117 C-137.93151904 156.58097917 -139.28661785 157.75650751 -140.53515625 161.7109375 C-140.63957031 162.95230469 -140.74398437 164.19367188 -140.8515625 165.47265625 C-140.97402344 166.72691406 -141.09648437 167.98117187 -141.22265625 169.2734375 C-141.28582031 170.22605469 -141.34898437 171.17867188 -141.4140625 172.16015625 C-139.35853295 172.8884698 -137.29424717 173.59210323 -135.2265625 174.28515625 C-134.07800781 174.67960937 -132.92945313 175.0740625 -131.74609375 175.48046875 C-128.02857423 176.23879043 -126.58059329 176.21868249 -123.4140625 174.16015625 C-120.69088627 169.42419759 -120.71227118 163.87013126 -120.171875 158.53515625 C-119.15674218 154.01415233 -117.31191796 151.41658939 -113.44921875 148.859375 C-111.12038638 148.05925793 -109.31220246 147.92806475 -106.8515625 147.97265625 C-105.97886719 147.98296875 -105.10617188 147.99328125 -104.20703125 148.00390625 C-101.32163137 148.16532722 -98.52418215 148.56685483 -95.6640625 148.97265625 C-91.89318733 149.29754804 -90.50329531 149.19839888 -86.9140625 147.66015625 C-83.14925445 143.86307842 -82.95453426 137.91093534 -82.25 132.8515625 C-81.32469903 128.7655372 -80.09348279 126.36589124 -77.4140625 123.16015625 C-72.07127202 120.44874011 -66.10846364 121.23177547 -60.3515625 121.91015625 C-54.00815276 122.54103088 -50.83077669 121.45095176 -45.890625 117.5078125 C-45.40335937 117.06308594 -44.91609375 116.61835938 -44.4140625 116.16015625 C-44.77757812 115.68707031 -45.14109375 115.21398437 -45.515625 114.7265625 C-48.93855904 110.22408772 -52.10752859 105.63722096 -55.1171875 100.84765625 C-55.54515625 100.29078125 -55.973125 99.73390625 -56.4140625 99.16015625 C-59.00261799 99.16015625 -59.79940318 99.99049863 -61.87890625 101.51171875 Z " fill="#000000" transform="translate(242.4140625,90.83984375)"/>
<path d="M0 0 C5.82803256 5.96048784 8.8325957 12.63674471 9.0625 20.9375 C8.95955681 28.65823901 6.79741694 34.99004929 1.5 40.6875 C-4.88628805 46.51069598 -12.16313666 49.21695192 -20.75 49.08984375 C-28.30834562 48.25133978 -35.3183104 44.58282717 -40.25 38.8125 C-45.90531237 31.16203935 -46.46769222 23.07494577 -45.25 13.8125 C-42.87967634 5.63597068 -37.64847279 -0.03181653 -30.37890625 -4.28125 C-19.666922 -9.09162131 -9.24854781 -6.2249841 0 0 Z M-27.25 14.8125 C-28.82952198 18.43223786 -29.52505676 20.62975592 -28.625 24.5 C-26.18167273 28.60923223 -24.52434862 30.46495038 -19.8125 31.75 C-14.92672364 31.83571537 -12.86382358 30.37067449 -9.4375 27.0625 C-7.67901271 23.73062934 -7.73737513 21.52903027 -8.25 17.8125 C-10.04023785 14.84203127 -12.10004828 12.38747586 -15.25 10.8125 C-20.49686015 10.21626589 -23.30259759 11.31366604 -27.25 14.8125 Z " fill="#000000" transform="translate(270.25,125.1875)"/>
</svg>
