<?xml version="1.0" encoding="UTF-8"?>
<svg version="1.1" xmlns="http://www.w3.org/2000/svg" width="512" height="512">
<path d="M0 0 C17.8909929 15.22999079 29.57895573 36.83554146 32.46875 60.1640625 C32.98614765 63.89115711 33.24865071 65.65706353 35.40625 68.7890625 C36.416875 69.5109375 37.4275 70.2328125 38.46875 70.9765625 C40.13665216 72.18318987 41.80314971 73.39175967 43.46875 74.6015625 C44.42910156 75.28992188 45.38945312 75.97828125 46.37890625 76.6875 C86.80439653 106.63609331 112.04220851 151.38540973 119.46875 200.9765625 C119.571875 201.65283691 119.675 202.32911133 119.78125 203.02587891 C120.77467205 210.55282494 120.7124547 218.14723231 120.71875 225.7265625 C120.71942474 226.45788391 120.72009949 227.18920532 120.72079468 227.94268799 C120.67042235 262.4284299 111.71938516 299.82496757 91.19580078 328.16333008 C90.23714556 329.99250788 90.23714556 329.99250788 91.12207031 331.97631836 C92.5666155 334.12192364 94.10076166 335.83515023 95.9453125 337.6484375 C96.615625 338.31230469 97.2859375 338.97617187 97.9765625 339.66015625 C98.67523438 340.34207031 99.37390625 341.02398437 100.09375 341.7265625 C101.15335937 342.77263672 101.15335937 342.77263672 102.234375 343.83984375 C103.97473703 345.55668738 105.71959981 347.26868082 107.46875 348.9765625 C108.4175 348.1721875 109.36625 347.3678125 110.34375 346.5390625 C112.96705446 344.31495655 114.69727305 343.10257668 118.16699219 342.53582764 C122.95445402 343.17488158 124.99945867 345.66469212 128.296875 349.02832031 C128.9513562 349.6722876 129.6058374 350.31625488 130.28015137 350.97973633 C132.44169845 353.11486126 134.58053511 355.27121495 136.71875 357.4296875 C138.21950178 358.92639547 139.72114311 360.42221197 141.22363281 361.91717529 C144.37379392 365.0584843 147.51283657 368.21040111 150.64453125 371.37011719 C154.63883327 375.39842705 158.65922793 379.39943206 162.6885376 383.39268875 C165.7983515 386.48069018 168.89357127 389.58300466 171.98474121 392.68965912 C173.46017369 394.16906719 174.94000174 395.64410603 176.42443848 397.11447906 C188.88817165 409.48602879 197.51201054 420.56431342 197.78125 438.8515625 C197.70168088 453.29004277 192.20122988 463.56831951 182.21875 473.7265625 C173.41854307 482.39913953 163.26297862 489.25647493 150.56787109 489.44506836 C149.77203613 489.43483643 148.97620117 489.42460449 148.15625 489.4140625 C147.32174316 489.40576416 146.48723633 489.39746582 145.62744141 489.38891602 C126.83768241 488.87620265 115.912196 475.75850042 103.40625 463.3203125 C102.34482788 462.26737251 102.34482788 462.26737251 101.26196289 461.19316101 C97.52716137 457.48816121 93.79800818 453.77758901 90.07373047 450.06201172 C86.23261572 446.2319238 82.37325078 442.42078574 78.50941467 438.61363983 C75.53110795 435.67256567 72.56628783 432.71817525 69.60501099 429.75996399 C68.1874027 428.34840071 66.76480328 426.94183128 65.33712769 425.54045105 C63.34572792 423.58317576 61.37413909 421.60782683 59.40625 419.62695312 C58.81618668 419.05531937 58.22612335 418.48368561 57.61817932 417.89472961 C53.93785977 414.13782978 52.49475931 411.45538377 52.46875 405.9765625 C54.19294623 402.82544524 55.93881319 400.50649931 58.46875 397.9765625 C55.73913702 395.10227825 52.98202626 392.25596857 50.21875 389.4140625 C49.44144531 388.59486328 48.66414063 387.77566406 47.86328125 386.93164062 C47.10917969 386.16142578 46.35507812 385.39121094 45.578125 384.59765625 C44.88686523 383.8802124 44.19560547 383.16276855 43.48339844 382.42358398 C41.62380178 380.77147204 41.62380178 380.77147204 39.56591797 381.06811523 C36.90145027 382.22230433 34.36157089 383.51225009 31.8046875 384.890625 C30.6919043 385.48359375 29.57912109 386.0765625 28.43261719 386.6875 C27.8471814 387.00041992 27.26174561 387.31333984 26.65856934 387.63574219 C8.13281087 397.49487994 -10.03391983 404.30684503 -30.53125 408.9765625 C-31.2938916 409.15735352 -32.0565332 409.33814453 -32.84228516 409.52441406 C-62.28230147 416.26312997 -96.3613792 413.28334999 -124.53125 402.9765625 C-125.73265625 402.54730469 -126.9340625 402.11804688 -128.171875 401.67578125 C-162.31994516 388.77943561 -192.14778084 365.50533785 -213.53125 335.9765625 C-213.94826172 335.40389648 -214.36527344 334.83123047 -214.79492188 334.24121094 C-237.82852045 302.20618266 -251.0191114 263.36800033 -250.84375 223.8515625 C-250.84159485 223.18191467 -250.8394397 222.51226685 -250.83721924 221.82232666 C-250.6423325 183.79913632 -238.29969517 145.94466459 -214.53125 115.9765625 C-214.12503418 115.45755371 -213.71881836 114.93854492 -213.30029297 114.40380859 C-203.30065547 101.74598983 -191.80009276 89.79894431 -179.09375 79.8515625 C-178.52575684 79.40546631 -177.95776367 78.95937012 -177.37255859 78.49975586 C-174.84655816 76.56739138 -172.35601644 74.88321164 -169.546875 73.38671875 C-164.68004506 70.77587837 -164.68004506 70.77587837 -161.90527344 66.16845703 C-161.04290607 62.37103031 -160.59689595 58.54020732 -160.1484375 54.67578125 C-158.21946694 38.26618222 -149.58487301 22.07756772 -138.53125 9.9765625 C-138.07121582 9.46883301 -137.61118164 8.96110352 -137.13720703 8.43798828 C-100.68025927 -31.32357113 -41.66587707 -33.30698198 0 0 Z M-122.53125 16.9765625 C-123.23121094 17.66363281 -123.93117188 18.35070312 -124.65234375 19.05859375 C-139.59509683 34.75867934 -146.30024624 56.16103197 -145.77734375 77.52734375 C-144.81583184 99.47947383 -136.4960875 120.2183766 -127.53125 139.9765625 C-126.89807284 141.40739077 -126.26523991 142.83837144 -125.6328125 144.26953125 C-117.03085929 163.42221086 -105.98373341 181.41742976 -94.53125 198.9765625 C-93.88808838 199.9651123 -93.88808838 199.9651123 -93.23193359 200.97363281 C-84.26701558 214.70608234 -75.05361924 228.38066756 -64.53125 240.9765625 C-59.94308065 236.77144996 -56.65774016 232.01688419 -53.21875 226.8515625 C-52.05862859 225.12930702 -50.89717828 223.40794592 -49.734375 221.6875 C-49.17943359 220.86604492 -48.62449219 220.04458984 -48.05273438 219.19824219 C-46.25576065 216.57429146 -44.37809124 214.01967668 -42.46875 211.4765625 C-12.06831352 170.0329612 22.26491757 113.05139396 16.19628906 59.57568359 C13.07556095 40.11312566 1.13660299 20.82553981 -14.53125 8.9765625 C-27.82319209 -0.47240379 -43.12502329 -6.91115094 -59.53125 -8.0234375 C-60.57152344 -8.10078125 -60.57152344 -8.10078125 -61.6328125 -8.1796875 C-84.932643 -9.11479775 -106.17547294 0.89383681 -122.53125 16.9765625 Z M-185.15625 107.1640625 C-192.83438483 114.90030785 -199.63918811 122.8084856 -205.53125 131.9765625 C-206.16184326 132.94529297 -206.16184326 132.94529297 -206.80517578 133.93359375 C-230.80486745 171.28861063 -239.9275026 217.38909424 -230.53125 260.9765625 C-223.7047165 290.75752252 -210.07975461 318.17558316 -188.9765625 340.35546875 C-186.53125 342.9765625 -186.53125 342.9765625 -184.4140625 345.625 C-161.87094542 373.78051137 -118.59548493 390.73726808 -83.96435547 394.68359375 C-65.89148719 396.22586668 -47.24909848 396.03548788 -29.53125 391.9765625 C-28.76635254 391.81027344 -28.00145508 391.64398438 -27.21337891 391.47265625 C17.99227717 381.4619717 55.93517351 352.86259139 80.65722656 314.11376953 C90.56799822 298.06597512 97.25643605 280.32380206 101.46875 261.9765625 C101.63246094 261.28965332 101.79617188 260.60274414 101.96484375 259.89501953 C106.93517916 238.11899426 106.75848498 211.6630501 101.46875 189.9765625 C101.17073486 188.73640381 101.17073486 188.73640381 100.86669922 187.47119141 C94.79184021 162.948783 84.42513126 140.64916936 68.46875 120.9765625 C67.80020996 120.14777588 67.80020996 120.14777588 67.11816406 119.30224609 C57.309054 107.22768267 46.62531846 96.41102174 33.46875 87.9765625 C31.11475878 90.33055372 30.98246269 91.4592268 30.35546875 94.67578125 C30.16170654 95.63154053 29.96794434 96.5872998 29.76831055 97.57202148 C29.46534058 99.10258179 29.46534058 99.10258179 29.15625 100.6640625 C27.2194631 110.05634313 24.80659778 118.98567889 21.46875 127.9765625 C21.94183594 128.36585938 22.41492188 128.75515625 22.90234375 129.15625 C47.25025866 149.75468093 62.76040175 181.23355609 65.46875 212.9765625 C67.54996743 250.58325656 57.88319781 285.57458701 32.46875 313.9765625 C11.21751996 337.43214678 -18.67638424 353.47078166 -50.53125 355.9765625 C-77.14139229 357.12870289 -100.60279426 354.06477201 -124.53125 341.9765625 C-125.46453125 341.51507813 -126.3978125 341.05359375 -127.359375 340.578125 C-156.98292365 325.25851841 -177.47950577 298.32759217 -188.34375 267.3515625 C-198.84041441 234.09445405 -196.33493924 197.20520333 -180.53125 165.9765625 C-172.43087982 151.46118169 -162.41829979 139.50700079 -150.53125 127.9765625 C-151.1190625 126.089375 -151.1190625 126.089375 -151.71875 124.1640625 C-155.27331702 112.28165275 -158.6824799 100.2557072 -160.53125 87.9765625 C-168.53629166 87.9765625 -179.86361865 101.9272694 -185.15625 107.1640625 Z M-146.46484375 145.85546875 C-161.6735093 162.1555518 -171.13755647 180.41293236 -176.53125 201.9765625 C-176.77875 202.93304688 -177.02625 203.88953125 -177.28125 204.875 C-183.47648744 234.2163329 -175.54877666 265.19315611 -159.53125 289.9765625 C-157.04121693 293.48741372 -154.37032421 296.74455599 -151.53125 299.9765625 C-150.55478516 301.16765625 -150.55478516 301.16765625 -149.55859375 302.3828125 C-135.00597938 319.57393826 -115.16282791 331.12890518 -93.53125 336.9765625 C-92.46132812 337.29367187 -91.39140625 337.61078125 -90.2890625 337.9375 C-71.6289501 342.63484931 -49.8350208 341.84690433 -31.53125 335.9765625 C-30.52263916 335.66307861 -30.52263916 335.66307861 -29.49365234 335.34326172 C-14.26432276 330.48748073 -0.31239649 322.82538805 11.46875 311.9765625 C11.99065918 311.49703125 12.51256836 311.0175 13.05029297 310.5234375 C36.06320877 289.13742481 49.14657488 260.73387129 50.59375 229.2578125 C51.25406652 198.55309427 39.86344068 169.72753877 18.87182617 147.47900391 C17.74460197 146.30463345 16.60781672 145.13945001 15.46875 143.9765625 C12.59364679 147.41797392 10.90055921 151.22944149 9.09375 155.2890625 C3.91844966 166.57265071 -2.28857731 177.25776849 -8.53125 187.9765625 C-9.04236328 188.85812012 -9.55347656 189.73967773 -10.08007812 190.64794922 C-16.10977817 201.01125051 -22.4676323 211.06296464 -29.34375 220.88769531 C-29.86195313 221.62858398 -30.38015625 222.36947266 -30.9140625 223.1328125 C-31.37184082 223.78056641 -31.82961914 224.42832031 -32.30126953 225.09570312 C-33.54430726 226.99652937 -34.55701642 228.9268615 -35.53125 230.9765625 C-34.4175 231.3890625 -33.30375 231.8015625 -32.15625 232.2265625 C-31.4240625 232.505 -30.691875 232.7834375 -29.9375 233.0703125 C-28.34010075 233.6719304 -26.73577884 234.25549395 -25.125 234.8203125 C-14.68210436 238.65378052 -6.19009361 244.41587741 -0.71875 254.2265625 C1.46779447 261.13143976 1.39530823 266.687652 -1.71875 273.2890625 C-3.8804555 277.15960224 -6.10505019 280.10811615 -9.53125 282.9765625 C-10.09457031 283.45609375 -10.65789062 283.935625 -11.23828125 284.4296875 C-26.10832086 296.42263187 -45.00952792 298.73535957 -63.46875 298.4765625 C-64.2542926 298.47069122 -65.03983521 298.46481995 -65.84918213 298.45877075 C-86.71098276 298.2760981 -105.83310636 295.33715614 -121.53515625 280.25390625 C-126.33278658 274.78028887 -128.87618896 268.47272957 -128.7421875 261.15625 C-128.07191519 254.23010277 -124.7994489 248.44625436 -119.53125 243.9765625 C-111.36737902 238.48224629 -103.04311275 234.6245536 -93.53125 231.9765625 C-94.16958728 228.39567125 -95.65929792 226.02084472 -97.70703125 223.0390625 C-98.36405029 222.07226562 -99.02106934 221.10546875 -99.69799805 220.109375 C-100.76014526 218.55863281 -100.76014526 218.55863281 -101.84375 216.9765625 C-117.57043624 193.67207597 -131.22787231 169.25238373 -143.53125 143.9765625 C-144.86107433 143.86041381 -144.86107433 143.86041381 -146.46484375 145.85546875 Z M-111.09375 258.3515625 C-112.76531962 260.9738387 -112.76531962 260.9738387 -112.78125 264.3515625 C-110.96584761 269.61622943 -108.20214733 272.04497829 -103.53125 274.9765625 C-82.64482459 285.11826513 -55.56336809 285.69345666 -33.60546875 278.83984375 C-26.52367005 276.25053558 -19.82986714 273.42448821 -15.53125 266.9765625 C-14.69591118 263.64842926 -14.69591118 263.64842926 -15.53125 259.9765625 C-21.85468658 251.48509052 -33.54556452 247.93803643 -43.53125 245.9765625 C-47.37730142 245.51729661 -47.37730142 245.51729661 -48.96337891 247.33764648 C-49.60412354 248.27072632 -49.60412354 248.27072632 -50.2578125 249.22265625 C-50.7321875 249.89490234 -51.2065625 250.56714844 -51.6953125 251.25976562 C-52.41847656 252.32614258 -52.41847656 252.32614258 -53.15625 253.4140625 C-54.12407681 254.8110441 -55.09527541 256.20569756 -56.0703125 257.59765625 C-56.49521973 258.2208374 -56.92012695 258.84401855 -57.35791016 259.48608398 C-58.53125 260.9765625 -58.53125 260.9765625 -60.53125 261.9765625 C-64.39318534 262.34089602 -66.69256863 262.53613071 -69.97265625 260.34765625 C-73.76910024 256.82942495 -76.48508253 252.68406422 -79.4453125 248.4609375 C-80.13367188 247.64109375 -80.82203125 246.82125 -81.53125 245.9765625 C-91.93343156 245.9765625 -103.59232378 251.39902113 -111.09375 258.3515625 Z M76.359375 346.98828125 C75.48796875 347.87128906 74.6165625 348.75429688 73.71875 349.6640625 C72.85765625 350.53417969 71.9965625 351.40429688 71.109375 352.30078125 C70.23796875 353.18378906 69.3665625 354.06679688 68.46875 354.9765625 C66.80337083 356.64451567 65.13673367 358.31121388 63.46875 359.9765625 C62.25251953 361.19279297 62.25251953 361.19279297 61.01171875 362.43359375 C58.83072917 364.61458333 56.64973958 366.79557292 54.46875 368.9765625 C60.01910203 375.76032609 66.23317027 381.83179218 72.46875 387.9765625 C82.10899807 383.78804092 91.17181105 373.28852191 97.46875 364.9765625 C96.045195 361.73379523 94.31403935 359.57562946 91.80859375 357.0859375 C91.09767578 356.37695312 90.38675781 355.66796875 89.65429688 354.9375 C88.91244141 354.20789063 88.17058594 353.47828125 87.40625 352.7265625 C86.66052734 351.98148437 85.91480469 351.23640625 85.14648438 350.46875 C81.09084633 345.20122992 81.09084633 345.20122992 76.359375 346.98828125 Z M118.46875 363.9765625 C117.47974053 365.2543024 116.49615213 366.53653105 115.53710938 367.83691406 C103.88414515 383.63093944 89.90725379 396.92139039 74.46875 408.9765625 C80.0353236 415.73335149 86.17507241 421.90206308 92.33203125 428.11328125 C92.90002127 428.68659494 93.46801128 429.25990864 94.05321312 429.85059547 C97.0559559 432.87990961 100.06225853 435.90564428 103.07104492 438.92895508 C105.54622673 441.41750127 108.01392493 443.9131225 110.4753418 446.4152832 C113.46666125 449.45608663 116.47022554 452.48427373 119.48283958 455.50397682 C120.62128602 456.6491005 121.75550307 457.79844641 122.88518715 458.95221519 C129.53131044 465.73197101 135.55603647 471.7452657 145.25390625 473.47265625 C156.73020499 473.1773827 162.33319423 468.91304268 170.46875 460.9765625 C171.14550781 460.35007812 171.82226562 459.72359375 172.51953125 459.078125 C178.7654006 453.16661696 182.51336886 447.04454595 182.78125 438.2890625 C182.60562627 429.69604404 179.29488561 424.64056009 173.52197266 418.41699219 C173.0376861 417.89482494 172.55339954 417.3726577 172.05443764 416.83466721 C166.80134014 411.20373419 161.38063186 405.74311885 155.9296875 400.3046875 C154.87148767 399.24581162 153.8134361 398.18678754 152.75552368 397.12762451 C150.56730828 394.93795337 148.37734111 392.75005471 146.18603516 390.56347656 C143.37260469 387.75582062 140.5637937 384.94359214 137.75621605 382.13008499 C135.58597551 379.95624698 133.41337924 377.78477603 131.24003983 375.61403656 C130.20183498 374.57649926 129.16437373 373.53821734 128.12766647 372.49918365 C126.69217684 371.06117265 125.25316473 369.62668049 123.81396484 368.19238281 C122.99664886 367.37586243 122.17933289 366.55934204 121.33724976 365.71807861 C119.77253639 363.86292711 119.77253639 363.86292711 118.46875 363.9765625 Z " fill="#000000" transform="translate(282.53125,23.0234375)"/>
<path d="M0 0 C9.15798514 8.23901778 15.19899116 19.63820924 16.25 31.921875 C16.71683321 44.11789262 13.46338416 54.38183302 6 64 C5.2575 65.03125 4.515 66.0625 3.75 67.125 C-4.67492997 75.93288133 -15.80344782 81.75519526 -28.07421875 82.203125 C-44.27556275 82.47995125 -44.27556275 82.47995125 -52 79 C-52.89976562 78.5978125 -53.79953125 78.195625 -54.7265625 77.78125 C-66.73427201 71.82701388 -75.04032924 62.17734404 -79.8125 49.6875 C-83.48937176 37.15971538 -82.20896508 24.97020361 -76.4375 13.3125 C-69.44182277 1.4630319 -58.58010409 -6.9999419 -45.28515625 -10.47265625 C-44.53105469 -10.64667969 -43.77695313 -10.82070313 -43 -11 C-41.9275 -11.2475 -40.855 -11.495 -39.75 -11.75 C-24.60914793 -12.75939014 -12.05781446 -9.23577278 0 0 Z M-58 15 C-64.35828674 23.36446372 -66.0013088 31.58638843 -65 42 C-64.10750562 45.32656996 -62.78574164 48.06468719 -61 51 C-60.5875 51.69867188 -60.175 52.39734375 -59.75 53.1171875 C-55.32378403 59.7816604 -49.19652961 62.9929641 -42.125 66.375 C-31.84504723 68.43099055 -22.34687445 67.16451068 -13.5234375 61.375 C-5.97453303 55.31567869 -1.28800068 47.10009289 0.125 37.5 C0.43154635 28.62292873 -2.48835375 21.28968839 -8.1875 14.5625 C-15.35152319 7.20932769 -22.43968394 3.90204657 -32.625 3.6875 C-43.21561013 3.7973611 -50.84864683 7.14784607 -58 15 Z " fill="#000000" transform="translate(251,62)"/>
</svg>
