<?xml version="1.0" encoding="UTF-8"?>
<svg version="1.1" xmlns="http://www.w3.org/2000/svg" width="512" height="512">
<path d="M0 0 C1.06139182 -0.00352835 1.06139182 -0.00352835 2.1442259 -0.00712797 C4.53333522 -0.0138252 6.92239025 -0.01335953 9.31150818 -0.01294994 C11.03454992 -0.01624813 12.75759089 -0.0199736 14.48063087 -0.02409142 C19.22987666 -0.03412492 23.97910982 -0.03783039 28.72836471 -0.04048073 C33.84514006 -0.04437986 38.96190537 -0.05395856 44.07867432 -0.0626936 C56.44391686 -0.0824705 68.80916023 -0.09252639 81.17441463 -0.10142139 C86.99576814 -0.10580283 92.81712073 -0.11117007 98.63847351 -0.11641026 C117.9879182 -0.1334248 137.33736233 -0.1479188 156.68681335 -0.155159 C161.709905 -0.15706893 166.73299663 -0.15898926 171.75608826 -0.16094494 C173.62881676 -0.16167055 173.62881676 -0.16167055 175.53937817 -0.16241082 C195.76231257 -0.17071041 215.98518781 -0.19604515 236.20809639 -0.22852562 C256.96544346 -0.26159287 277.72276046 -0.27960751 298.48013401 -0.28280324 C310.13661936 -0.28496879 321.79301846 -0.29372394 333.44947815 -0.31926441 C343.37737136 -0.34096693 353.30515739 -0.34902405 363.23307163 -0.33929763 C368.29770543 -0.33475148 373.36211807 -0.33665757 378.42672157 -0.35605907 C383.06693075 -0.37368106 387.70675725 -0.37270074 392.34697044 -0.35716178 C394.0220364 -0.35478424 395.69712879 -0.35911686 397.37215436 -0.37099043 C411.61352292 -0.46565551 422.53342711 1.81361067 433.02415466 11.98187733 C439.55940517 18.9463498 443.27264533 26.92399083 443.21187687 36.51452351 C443.20748413 37.61293993 443.20309139 38.71135634 443.19856554 39.84305811 C443.18366183 41.65291437 443.18366183 41.65291437 443.16845703 43.49933338 C443.15869008 45.47120285 443.14892538 47.44307233 443.13923484 49.41494218 C443.12775727 51.55650844 443.11379492 53.69804608 443.09915352 55.83959293 C443.06796423 60.42629424 443.04395832 65.01301559 443.0214386 69.59976673 C443.01559964 70.78399917 443.01559964 70.78399917 443.00964271 71.99215549 C443.00163424 73.61756292 442.99364458 75.24297044 442.98567306 76.86837804 C442.9730952 79.38766836 442.95986664 81.9069546 442.94651425 84.42624092 C442.88234623 96.70863905 442.84355638 108.99096387 442.8197937 121.2735033 C442.81804325 122.16288583 442.8162928 123.05226837 442.81448931 123.96860188 C442.79842778 132.2314456 442.78411823 140.49429191 442.77119553 148.75714111 C442.76226562 154.42547945 442.75242676 160.09381557 442.74168396 165.76215076 C442.73991211 166.70355956 442.73814025 167.64496836 442.73631471 168.6149047 C442.70609966 183.81182902 442.62237762 199.00801977 442.51940084 214.20460457 C442.4147691 229.83982357 442.371952 245.4743778 442.38412613 261.10994482 C442.38965104 270.73247863 442.34813388 280.35234519 442.24369013 289.97432417 C442.17639799 296.59540126 442.16960052 303.21492823 442.20756561 309.83622891 C442.2276582 313.64089827 442.22371937 317.44087217 442.14669991 321.24491978 C441.73964488 342.55109395 446.28503392 356.54037994 458.08725441 374.0540638 C461.32232399 378.96112403 464.17569019 384.07609774 467.05540466 389.19672108 C468.02084492 390.87626214 468.98791953 392.55486659 469.95774841 394.23187733 C474.18306164 401.55626981 474.54730731 410.8017345 472.36399841 418.94672108 C469.15943802 426.38632796 464.59860205 431.82683879 457.11790466 435.13422108 C446.5132535 437.8318955 446.5132535 437.8318955 443.11790466 436.13422108 C443.16431091 436.94504139 443.21071716 437.7558617 443.25852966 438.59125233 C443.63873419 450.25538394 441.09072562 459.44329384 433.11790466 468.13422108 C426.52232859 474.93895919 418.61267263 479.86794141 408.94827843 480.26417291 C407.68347963 480.26650355 406.41868084 480.2688342 405.11555481 480.27123547 C404.40710602 480.27388729 403.69865722 480.27653912 402.96874028 480.2792713 C400.5827388 480.28696178 398.19678881 480.28752338 395.81077576 480.28812122 C394.08758349 480.29213602 392.36439216 480.29657427 390.64120197 480.30140078 C385.89614799 480.31337035 381.15110417 480.31901563 376.40603805 480.32358193 C371.29198651 480.32953661 366.17794714 480.34114683 361.06390381 480.35187244 C348.7079752 480.37640008 336.35204256 480.39102441 323.99609709 480.40393251 C320.50635597 480.40764427 317.01661526 480.41161752 313.52687454 480.41568518 C291.85747931 480.44092222 270.18808345 480.46297602 248.51867676 480.47541332 C243.49885557 480.47834304 238.4790344 480.4813047 233.45921326 480.48431873 C232.2115554 480.48506478 230.96389754 480.48581083 229.67843187 480.48657949 C209.46915494 480.49923189 189.25996602 480.53245316 169.05073023 480.57412057 C148.30351738 480.61654656 127.55634959 480.64010916 106.80909348 480.64533389 C95.15983424 480.6487473 83.51071251 480.66049443 71.86149597 480.69343662 C61.93986286 480.72144741 52.01839546 480.73243189 42.09672588 480.72124116 C37.0359631 480.71605715 31.97554728 480.71892481 26.91483498 480.7437067 C22.27701183 480.76622778 17.63978429 480.76543708 13.0019505 480.74650283 C11.32891193 480.74370683 9.65583271 480.74927902 7.98285937 480.76431577 C-5.78054565 480.8804048 -16.4921202 478.43705079 -26.68678284 468.60297108 C-38.1899258 455.66705229 -38.03336838 441.27420442 -38.01580811 424.87120533 C-38.01767804 423.21381987 -38.01997948 421.55643486 -38.02267343 419.89905053 C-38.02877513 415.35911432 -38.02865976 410.81919656 -38.02747905 406.27925718 C-38.02727464 401.37729668 -38.03279769 396.47534204 -38.03753662 391.57338428 C-38.04583458 381.97528226 -38.04859107 372.37718638 -38.049149 362.77908107 C-38.04962452 354.97619363 -38.0516811 347.17330821 -38.05484962 339.37042141 C-38.06365354 317.23869526 -38.06826936 295.10697395 -38.06751915 272.97524603 C-38.06747919 271.78271512 -38.06743924 270.59018421 -38.06739807 269.361516 C-38.06735719 268.1675261 -38.06731631 266.9735362 -38.06727419 265.74336479 C-38.0668677 246.39125518 -38.07643866 227.03916502 -38.09053644 207.68706103 C-38.10490397 187.80753863 -38.11180643 167.92802571 -38.11094266 148.04849797 C-38.11061084 136.89120875 -38.11335138 125.73393993 -38.12412071 114.57665539 C-38.13323061 105.07788212 -38.13539689 95.57913851 -38.12861129 86.08036276 C-38.1253487 81.23638045 -38.12528005 76.39245501 -38.13396454 71.54847813 C-38.14184181 67.10900995 -38.14038558 62.66964364 -38.13168041 58.23017792 C-38.13014814 56.62930144 -38.13195123 55.02841731 -38.13754048 53.42754986 C-38.18875192 37.71124487 -37.36831869 22.93527 -26.25709534 10.75922108 C-18.99343772 4.02944932 -9.82361839 0.0138816 0 0 Z M-13.90553284 22.88031483 C-26.8019841 39.0195154 -20.88209534 59.97362468 -20.88209534 80.13422108 C126.62790466 80.13422108 274.13790466 80.13422108 426.11790466 80.13422108 C430.14812141 37.90759836 430.14812141 37.90759836 420.11790466 23.13422108 C414.34286754 18.33800381 410.68064437 17.01053456 403.30551624 17 C402.25543904 16.99647165 402.25543904 16.99647165 401.18414816 16.99287203 C398.82072775 16.98617528 396.45736222 16.98664045 394.09393311 16.98705006 C392.38937728 16.98375185 390.68482223 16.98002638 388.98026818 16.97590858 C384.2822384 16.96587553 379.5842214 16.96216969 374.88618243 16.95951927 C369.82467963 16.95562009 364.763187 16.94604151 359.70169067 16.9373064 C347.47143014 16.9175313 335.24116876 16.90747457 323.01089624 16.89857861 C317.25440703 16.89419753 311.49791875 16.88883026 305.74143028 16.88358974 C286.61072766 16.86657661 267.48002562 16.85208172 248.3493166 16.844841 C243.38326326 16.84293104 238.41720993 16.84101072 233.45115662 16.83905506 C232.21683709 16.83857132 230.98251756 16.83808758 229.71079441 16.83758918 C209.70892819 16.82928623 189.70712172 16.80394519 169.70528159 16.77147438 C149.17960154 16.73842425 128.65395187 16.7203941 108.12824506 16.71719676 C96.59984615 16.7150298 85.0715344 16.70625383 73.54316139 16.68073559 C63.72643941 16.65905657 53.90982573 16.65096439 44.09308252 16.66070237 C39.08350174 16.66525515 34.07414456 16.66330405 29.06459427 16.64394093 C24.47820263 16.62636634 19.89219864 16.62726051 15.3058032 16.64283822 C13.64694121 16.64522297 11.98805278 16.64084591 10.3292313 16.62900957 C-2.75907756 16.52653052 -2.75907756 16.52653052 -13.90553284 22.88031483 Z M-20.88209534 97.13422108 C-20.92334534 153.70859608 -20.96459534 210.28297108 -21.00709534 268.57172108 C-21.02530334 286.44900379 -21.04351135 304.32628651 -21.06227112 322.74530506 C-21.06895912 338.74122295 -21.06895912 338.74122295 -21.07298279 354.73714161 C-21.07484946 361.87342614 -21.08219262 369.00967942 -21.09324646 376.14595509 C-21.10597503 384.37559206 -21.1117677 392.60519902 -21.10898524 400.8348459 C-21.10778012 405.0448608 -21.10969425 409.25480861 -21.1205256 413.46481121 C-21.13026554 417.27375197 -21.13073725 421.08257827 -21.12389755 424.89152431 C-21.12265079 426.91695464 -21.13126325 428.94238368 -21.14025688 430.96779442 C-21.10557713 441.5638741 -20.47851357 450.19659257 -12.88209534 458.13422108 C-7.84559069 462.33333098 -3.5326783 463.2592151 2.93587971 463.26564884 C3.63653037 463.26770148 4.33718103 463.26975411 5.05906352 463.27186894 C7.42450458 463.27755718 9.78988775 463.27607946 12.15533447 463.27466297 C13.86131552 463.27724556 15.56729596 463.28025842 17.27327555 463.28366637 C21.97516841 463.29175206 26.67704601 463.29352681 31.37894499 463.29426384 C36.44449819 463.29611166 41.51004343 463.30365759 46.57559204 463.31039906 C57.65810736 463.32399377 68.74061907 463.33000879 79.82314134 463.33440971 C86.7395137 463.33717006 93.65588467 463.34140702 100.57225609 463.34591389 C119.71154219 463.35810776 138.85082717 463.36840702 157.99011707 463.37178898 C159.2155934 463.37200854 160.44106972 463.37222811 161.70368169 463.37245433 C163.54635881 463.37278175 163.54635881 463.37278175 165.42626172 463.37311578 C167.91567981 463.37355925 170.4050979 463.37400581 172.89451599 463.37445545 C174.12936014 463.37467688 175.36420429 463.37489831 176.63646796 463.37512645 C196.65260656 463.37907582 216.66870878 463.39653357 236.68483333 463.41981497 C257.22180409 463.44350994 277.7587566 463.45598997 298.29574126 463.4571569 C309.83188366 463.45807467 321.36797867 463.46385279 332.90410805 463.48197651 C342.72599932 463.49735243 352.54782854 463.50251279 362.36972956 463.49423841 C367.38307514 463.49032307 372.39629569 463.49130449 377.40962601 463.50529575 C381.99709205 463.51798171 386.58433841 463.51688406 391.17180391 463.50470504 C392.83331948 463.50273881 394.49485033 463.50586893 396.15634439 463.5145494 C398.41196651 463.52558983 400.6668062 463.51819117 402.9224062 463.50615788 C404.80299999 463.50705351 404.80299999 463.50705351 406.72158557 463.50796723 C413.21728085 462.79315185 418.24831059 459.34280566 422.53977966 454.54437733 C427.4800589 447.53639695 427.50353455 438.73151291 426.60276794 430.4774828 C425.27992804 424.08442267 420.99957573 419.19727029 417.11790466 414.13422108 C416.05910745 412.36472437 415.03135353 410.57572705 414.05540466 408.75922108 C413.6725531 408.0502367 413.28970154 407.34125233 412.89524841 406.61078358 C412.63872498 406.12351795 412.38220154 405.63625233 412.11790466 405.13422108 C411.78790466 405.13422108 411.45790466 405.13422108 411.11790466 405.13422108 C411.09284851 406.23411366 411.06779236 407.33400623 411.04197693 408.46722889 C410.9477226 412.55246873 410.84754601 416.63754569 410.74559021 420.72259998 C410.70230952 422.4898138 410.66062961 424.25706757 410.62059021 426.0243578 C410.56272115 428.56630968 410.49907485 431.10806167 410.43431091 433.64984608 C410.40924217 434.83287312 410.40924217 434.83287312 410.38366699 436.03979969 C410.28901326 439.55381657 410.05516943 442.74941739 409.11790466 446.13422108 C405.49225099 447.26618307 402.09536633 447.26292524 398.3118515 447.26844215 C397.281039 447.2719705 397.281039 447.2719705 396.22940201 447.27557012 C393.91573116 447.28225225 391.60211657 447.28180214 389.28843689 447.2813921 C387.61729042 447.28469118 385.94614475 447.28841684 384.2750001 447.29253358 C379.67412135 447.30255604 375.07325564 447.30627074 370.47236753 447.30892289 C365.51389082 447.31282501 360.55542445 447.32240317 355.59695435 447.33113575 C343.62075026 447.35089901 331.64454532 447.36096455 319.668329 447.36986354 C314.03236444 447.3742452 308.39640083 447.37961219 302.76043701 447.38485241 C284.03372645 447.40186179 265.30701648 447.41635817 246.58029938 447.42360115 C241.72060139 447.42551111 236.86090341 447.42743144 232.00120544 447.42938709 C230.79331771 447.42987083 229.58542997 447.43035457 228.34093958 447.43085297 C208.75352507 447.43916162 189.16617146 447.4645139 169.57878357 447.49696777 C149.48249586 447.52999436 129.38623915 447.54804577 109.28992414 447.55124539 C98.00088186 447.55341418 86.71192849 447.56221703 75.4229126 447.58770657 C65.81360941 447.60935321 56.20441674 447.61749372 46.59509194 447.60773978 C41.68928668 447.60317799 36.78370973 447.60518995 31.87793541 447.62450123 C27.39109585 447.6420116 22.9046532 447.6412348 18.41781014 447.62560394 C16.79067745 447.62320934 15.16351813 447.62764632 13.53642637 447.63943259 C11.33178086 447.65441927 9.12856607 447.64497325 6.92395782 447.6292057 C5.08404778 447.63067092 5.08404778 447.63067092 3.20696783 447.63216573 C0.11790466 447.13422108 0.11790466 447.13422108 -2.27618796 445.45172668 C-4.25743281 442.59256674 -4.38229015 441.02119795 -4.38266659 437.55914688 C-4.39248088 436.41744583 -4.40229517 435.27574477 -4.41240686 434.09944671 C-4.40280186 432.84469529 -4.39319685 431.58994388 -4.38330078 430.29716969 C-4.38719273 428.95116464 -4.39283231 427.6051637 -4.40007168 426.2591725 C-4.41485981 422.55694291 -4.40462555 418.85513718 -4.39033496 415.15292108 C-4.37924808 411.16173681 -4.39116013 407.17061312 -4.400177 403.17943287 C-4.41412673 395.35962791 -4.40654074 387.53998419 -4.39150142 379.72018688 C-4.37466284 370.6193627 -4.37784882 361.51857893 -4.3815955 352.41774399 C-4.38747717 336.18347389 -4.37329004 319.9492813 -4.34864807 303.71503162 C-4.32472244 287.95100468 -4.31764495 272.18708128 -4.32814026 256.42303944 C-4.33954102 239.26819299 -4.34149027 222.11339446 -4.32704216 204.95854861 C-4.32551628 203.13051006 -4.32399592 201.3024715 -4.32248116 199.47443295 C-4.32172334 198.57493509 -4.32096553 197.67543723 -4.32018475 196.74868185 C-4.31543571 190.40012103 -4.31729771 184.05158156 -4.32154655 177.70302105 C-4.32646537 169.97041401 -4.32052391 162.23790502 -4.30065226 154.50532048 C-4.29075829 150.55762944 -4.28569771 146.6100879 -4.29354477 142.6623888 C-4.3005745 139.05210221 -4.29386112 135.44211802 -4.27594114 131.83187146 C-4.26994719 129.89967011 -4.27874922 127.9674406 -4.28798765 126.03525203 C-4.27954771 124.89615873 -4.27110777 123.75706542 -4.26241207 122.58345413 C-4.26138294 121.59645096 -4.26035381 120.60944779 -4.2592935 119.59253544 C-3.81850715 116.71979768 -3.16011233 115.87261023 -0.88209534 114.13422108 C1.99193935 112.69720373 4.44848189 113.0088061 7.6622448 113.00837994 C8.6870632 113.00619978 8.6870632 113.00619978 9.73258501 113.00397557 C12.0447117 113.00029734 14.35677322 113.0038104 16.66889954 113.00723743 C18.33419457 113.00608633 19.99948935 113.00449888 21.6647836 113.00251019 C26.2587851 112.9983153 30.85276597 113.00040829 35.44676757 113.00349641 C40.39436852 113.00574967 45.34196581 113.00227124 50.28956604 112.99951649 C59.98955111 112.99505881 69.68952846 112.99603531 79.38951384 112.99892913 C87.27082181 113.00118343 95.15212762 113.00149556 103.03343582 113.00040531 C104.15325589 113.00025208 105.27307596 113.00009885 106.42682997 112.99994097 C108.70143198 112.99962126 110.97603399 112.99929704 113.250636 112.99896838 C134.60412885 112.99611353 155.95761741 112.99940055 177.31110956 113.00476874 C195.64693794 113.00923557 213.98275999 113.00846186 232.31858826 113.00384998 C253.59025239 112.99850221 274.86191276 112.99638951 296.13357747 112.99946225 C298.4006323 112.99978081 300.66768714 113.00009518 302.93474197 113.00040531 C304.0502897 113.00055959 305.16583742 113.00071386 306.31518962 113.00087281 C314.18911471 113.00173745 322.06303741 113.00027621 329.93696213 112.99792576 C339.52981819 112.99512526 349.12266608 112.99587128 358.7155212 113.0012065 C363.61312966 113.00384031 368.51072446 113.00485398 373.40833282 113.00155735 C377.88772896 112.99858776 382.3670987 113.00019836 386.84649242 113.0055349 C388.47098809 113.00665625 390.09548597 113.0060741 391.71998022 113.00365911 C393.92064635 113.00063739 396.12122097 113.00371816 398.32188225 113.00837994 C400.15886187 113.00862346 400.15886187 113.00862346 402.03295219 113.00887191 C404.59602573 113.11301586 406.68478058 113.374071 409.11790466 114.13422108 C410.32589686 118.40046371 410.17947236 122.52555232 410.11790466 126.92328358 C410.1167456 128.68760659 410.11813012 130.45193277 410.12181091 132.21625233 C410.12621421 134.98201133 410.11818116 137.74438749 410.06663513 140.50970936 C409.55425066 153.30041066 409.55425066 153.30041066 415.49290466 164.14984608 C417.02058737 165.4940327 418.56108167 166.82389505 420.11790466 168.13422108 C421.78196716 170.26605701 421.78196716 170.26605701 423.11790466 172.25922108 C423.77790466 173.20797108 424.43790466 174.15672108 425.11790466 175.13422108 C425.44790466 175.13422108 425.77790466 175.13422108 426.11790466 175.13422108 C426.11790466 149.39422108 426.11790466 123.65422108 426.11790466 97.13422108 C278.60790466 97.13422108 131.09790466 97.13422108 -20.88209534 97.13422108 Z M12.11790466 129.13422108 C12.11790466 228.79422108 12.11790466 328.45422108 12.11790466 431.13422108 C138.17790466 431.13422108 264.23790466 431.13422108 394.11790466 431.13422108 C397.37746626 382.98099883 397.37746626 382.98099883 378.11790466 346.13422108 C376.72796386 343.35433948 376.93302262 341.21558848 377.11790466 338.13422108 C377.78457133 336.80088774 378.451238 335.46755441 379.11790466 334.13422108 C378.77966227 330.63904971 376.9816521 328.05139098 375.11790466 325.13422108 C374.54684998 325.25539295 373.97579529 325.37656483 373.38743591 325.50140858 C370.63529366 326.07021381 367.87807829 326.60575316 365.11790466 327.13422108 C364.15239685 327.32500233 363.18688904 327.51578358 362.19212341 327.71234608 C336.47750215 332.28673868 308.9806207 327.55030939 287.15159607 312.80609608 C282.96853357 309.77701853 279.02279276 306.51197487 275.11790466 303.13422108 C274.43341248 302.55156483 273.74892029 301.96890858 273.04368591 301.36859608 C260.34125227 289.64327272 253.77539221 273.66976691 247.11790466 258.13422108 C246.06876389 258.13275452 245.01962311 258.13128796 243.93869019 258.12977695 C218.40783321 258.09317791 192.87710739 258.03372291 167.34635925 257.95031834 C154.99986046 257.91051329 142.65342554 257.87812819 130.30686951 257.86322498 C119.54529596 257.85021613 108.78386288 257.82327088 98.02236843 257.77960801 C92.32450725 257.75697616 86.62681942 257.74131144 80.9289093 257.74233723 C75.56413265 257.7430828 70.19973947 257.72517263 64.83506203 257.69305325 C62.86789511 257.68454564 60.90068523 257.68281015 58.93350792 257.68841839 C56.24273661 257.69506679 53.55318239 257.67711783 50.86253357 257.65320301 C50.0881919 257.66096343 49.31385023 257.66872385 48.51604366 257.67671943 C43.04182709 257.59087767 38.64757587 256.28982337 34.11790466 253.13422108 C30.17852251 248.53457125 29.53421389 243.88871633 29.60032654 237.92328358 C29.59331726 237.13371265 29.58630798 236.34414173 29.5790863 235.53064442 C29.56158701 232.93980436 29.57309972 230.35007081 29.58665466 227.75922108 C29.58395742 225.94753276 29.58007306 224.13584586 29.57505798 222.32416248 C29.56917387 218.53479645 29.57769067 214.74580863 29.59642029 210.9564867 C29.61920929 206.11097575 29.60608035 201.26635116 29.58213043 196.42087269 C29.56764295 192.68208668 29.57229193 188.94350914 29.5826416 185.20471668 C29.58530074 183.41862348 29.58206785 181.63251105 29.57272339 179.84644032 C29.56250884 177.34550662 29.57812587 174.84598752 29.60032654 172.34515858 C29.59222961 171.61456226 29.58413269 170.88396595 29.57579041 170.13123035 C29.65827936 165.0889459 30.62608168 160.83643235 34.11790466 157.13422108 C39.81328974 153.05086998 44.11869275 152.5702117 51.01477051 152.67580128 C51.99500968 152.67465012 52.97524885 152.67349896 53.98519224 152.67231292 C57.26161763 152.67308635 60.53717242 152.70225699 63.8134613 152.73114491 C66.16612863 152.73714636 68.51880143 152.74125939 70.87147522 152.74362659 C75.93519314 152.75200023 80.99867739 152.77223029 86.0623188 152.80119228 C94.07734292 152.84543116 102.09215935 152.85393829 110.10726929 152.85582447 C112.853841 152.85698026 115.60041244 152.85845667 118.34698391 152.86008453 C119.03333745 152.86049124 119.71969099 152.86089795 120.42684313 152.86131698 C128.23232607 152.8666433 136.03778337 152.88163842 143.84324646 152.89960194 C144.91290741 152.90205021 144.91290741 152.90205021 146.00417768 152.90454795 C157.54679854 152.93171009 169.08928258 152.97900591 180.63181741 153.0302488 C192.50406684 153.08207063 204.37606007 153.09901102 216.24841589 153.08736914 C224.20729662 153.08103634 232.16499505 153.11607174 240.12366974 153.18017161 C245.08919377 153.21064115 250.05413953 153.20324792 255.01970291 153.18541813 C257.31177182 153.18466551 259.60390797 153.19918171 261.89576149 153.23061275 C274.21924817 153.39077102 283.26931831 153.16896853 293.20764828 145.38954163 C310.03024721 132.35276822 336.17456133 130.06407457 356.64134216 132.63031483 C369.94110169 134.62430425 382.00090802 139.40320915 394.11790466 145.13422108 C394.11790466 139.85422108 394.11790466 134.57422108 394.11790466 129.13422108 C268.05790466 129.13422108 141.99790466 129.13422108 12.11790466 129.13422108 Z M281.06321716 175.37250233 C267.17950785 191.87628907 258.4352221 213.29514946 260.11790466 235.13422108 C262.0784677 257.28029936 270.48198933 274.67854684 286.11790466 290.13422108 C287.21231873 291.24410389 287.21231873 291.24410389 288.32884216 292.37640858 C303.38359952 306.75957824 324.21814324 313.52711507 344.76487732 313.50726795 C368.68994636 312.85070112 389.14675907 301.78176604 405.45774841 284.68109608 C421.36650656 266.51519789 426.61009208 243.76978574 425.11790466 220.13422108 C422.70358614 198.7087933 410.39371946 178.71968707 393.81712341 165.26703358 C358.77085134 139.45554023 310.74267504 143.04107768 281.06321716 175.37250233 Z M46.11790466 169.13422108 C46.11790466 192.89422108 46.11790466 216.65422108 46.11790466 241.13422108 C111.45790466 241.13422108 176.79790466 241.13422108 244.11790466 241.13422108 C244.11790466 235.85422108 244.11790466 230.57422108 244.11790466 225.13422108 C246.00044405 204.76856776 252.0873237 186.71804275 264.11790466 170.13422108 C264.11790466 169.80422108 264.11790466 169.47422108 264.11790466 169.13422108 C192.17790466 169.13422108 120.23790466 169.13422108 46.11790466 169.13422108 Z M425.11790466 286.13422108 C423.79620811 287.71373736 422.51072025 289.32363848 421.24290466 290.94672108 C417.39590151 295.86549079 417.39590151 295.86549079 415.36009216 297.83343983 C413.88769443 299.075519 413.88769443 299.075519 414.11790466 301.13422108 C413.47852966 301.38172108 412.83915466 301.62922108 412.18040466 301.88422108 C410.04323691 302.95786894 410.04323691 302.95786894 409.11790466 304.82172108 C409.11790466 308.58024767 411.1274207 310.9977009 413.11790466 314.13422108 C414.66477966 314.01047108 414.66477966 314.01047108 416.24290466 313.88422108 C420.11790466 314.13422108 420.11790466 314.13422108 426.11790466 318.13422108 C426.11790466 307.57422108 426.11790466 297.01422108 426.11790466 286.13422108 C425.78790466 286.13422108 425.45790466 286.13422108 425.11790466 286.13422108 Z M393.11790466 316.13422108 C392.12790466 316.62922108 392.12790466 316.62922108 391.11790466 317.13422108 C391.89270202 320.12574689 391.89270202 320.12574689 393.11790466 323.13422108 C394.10790466 323.46422108 395.09790466 323.79422108 396.11790466 324.13422108 C396.77790466 323.80422108 397.43790466 323.47422108 398.11790466 323.13422108 C397.3431073 320.14269526 397.3431073 320.14269526 396.11790466 317.13422108 C395.12790466 316.80422108 394.13790466 316.47422108 393.11790466 316.13422108 Z M413.11790466 333.13422108 C411.23225387 333.93960184 411.23225387 333.93960184 409.20384216 335.22406483 C408.44329529 335.67845936 407.68274841 336.13285389 406.89915466 336.60101795 C406.10509216 337.08634998 405.31102966 337.57168201 404.49290466 338.07172108 C403.69110779 338.55318592 402.88931091 339.03465076 402.06321716 339.53070545 C400.07701924 340.72478873 398.09562924 341.92617309 396.11790466 343.13422108 C397.19191574 346.04939399 397.89600642 347.91232283 400.11790466 350.13422108 C406.05790466 346.83422108 411.99790466 343.53422108 418.11790466 340.13422108 C415.951238 334.30088774 415.951238 334.30088774 413.11790466 333.13422108 Z M426.11790466 354.13422108 C420.50790466 357.43422108 414.89790466 360.73422108 409.11790466 364.13422108 C410.0094616 368.59200575 410.85482869 370.80747474 413.07493591 374.60687733 C413.6874823 375.66245838 414.30002869 376.71803944 414.93113708 377.8056078 C415.59089539 378.92467518 416.25065369 380.04374256 416.93040466 381.19672108 C417.60961519 382.35809769 418.28840371 383.5197212 418.96678162 384.68158436 C420.34329403 387.03509694 421.72490264 389.38550282 423.11106873 391.73334217 C424.96161577 394.86936653 426.80203916 398.0111266 428.64134216 401.15375233 C429.69491901 402.93956429 430.74954131 404.72476006 431.80540466 406.50922108 C432.52530579 407.73717396 432.52530579 407.73717396 433.25975037 408.98993397 C437.28599034 416.01278842 437.28599034 416.01278842 443.99290466 420.07172108 C448.66538905 420.16517076 451.56288238 418.53374114 454.99290466 415.44672108 C456.69068314 411.95684309 456.76477243 408.88734634 456.11790466 405.13422108 C454.42721619 401.0935891 452.22827342 397.39501441 449.99290466 393.63422108 C449.05849548 392.01761585 449.05849548 392.01761585 448.10520935 390.36835194 C446.45892789 387.52655656 444.79809333 384.69392022 443.13169861 381.86389637 C441.45101965 378.99642129 439.79769573 376.11347312 438.14134216 373.23187733 C434.5237541 366.95968642 434.5237541 366.95968642 430.88352966 360.70062733 C430.3965863 359.86475086 429.90964294 359.0288744 429.40794373 358.16766834 C428.14917421 356.01996466 428.14917421 356.01996466 426.11790466 354.13422108 Z " fill="#000000" transform="translate(37.88209533691406,15.865778923034668)"/>
<path d="M0 0 C15.22959191 11.97666936 26.64267725 29.51799379 29 49 C30.57783343 71.54292097 26.46987076 92.22127121 11.75 109.9375 C-1.13867408 124.66869099 -18.64060792 133.66210731 -38 136 C-60.38629135 137.16292423 -80.01861503 131.54972561 -97.1875 116.6875 C-109.5192664 105.07654775 -118.06498839 90.80041129 -121 74 C-121.12890625 73.3090625 -121.2578125 72.618125 -121.390625 71.90625 C-121.69818033 69.93142105 -121.8771783 67.99492215 -122 66 C-122.05285156 65.1440625 -122.10570312 64.288125 -122.16015625 63.40625 C-122.80742288 42.46858168 -115.44964577 23.93809972 -101.65625 8.3515625 C-74.80313802 -19.94617892 -31.18305321 -22.86160716 0 0 Z M-90 21 C-99.45171964 32.45662986 -105.99669721 47.51609295 -105.2734375 62.62109375 C-103.40930867 78.83901461 -97.35482231 94.51479838 -84.46875 105.07421875 C-70.79733949 115.46218656 -56.35255373 120.66959706 -39 119 C-21.70522597 115.87953619 -8.09790032 107.69361958 2.40234375 93.51953125 C11.11134824 79.78528212 14.36384725 64.80104758 11.61328125 48.7421875 C8.03051829 32.97803046 -1.08384724 19.42391539 -14.8125 10.6875 C-40.17398044 -3.43788151 -69.63023928 -0.66494782 -90 21 Z " fill="#000000" transform="translate(427,186)"/>
<path d="M0 0 C1.05444966 -0.01169993 1.05444966 -0.01169993 2.13020134 -0.02363622 C4.48593417 -0.0435817 6.84005597 -0.02778359 9.19580078 -0.01205444 C10.88447005 -0.0188295 12.57313193 -0.02773201 14.26177979 -0.03860474 C18.84862599 -0.06141818 23.43491051 -0.05255343 28.02176666 -0.03670931 C32.81921414 -0.02406086 37.61661315 -0.03578748 42.4140625 -0.04364014 C50.47095383 -0.05273978 58.52761609 -0.04074054 66.58447266 -0.01693726 C75.90274602 0.01027465 85.22047242 0.00146071 94.53873253 -0.02606928 C102.53546014 -0.04875039 110.53202297 -0.05196533 118.52877235 -0.03887594 C123.30652458 -0.03107592 128.08401961 -0.03005491 132.86175537 -0.04655838 C137.35336696 -0.06098941 141.84427258 -0.05100683 146.3358078 -0.0220871 C147.98537778 -0.01546891 149.63500705 -0.01738651 151.28455353 -0.02840042 C153.53458304 -0.04203998 155.78234229 -0.0249642 158.03222656 0 C159.92148361 0.00282769 159.92148361 0.00282769 161.84890747 0.00571251 C165.01611328 0.63491821 165.01611328 0.63491821 167.4213562 2.9871006 C169.38573554 6.24861188 169.64077156 7.88696854 169.01611328 11.63491821 C166.16580836 16.21576541 166.16580836 16.21576541 163.2925787 17.26327991 C160.28606392 17.75410048 157.39001652 17.76437245 154.34266663 17.76863098 C153.67307417 17.77089654 153.00348171 17.77316209 152.31359857 17.7754963 C150.07127145 17.78182337 147.82900498 17.78100778 145.58666992 17.78018188 C143.97844871 17.78317415 142.37022822 17.78657684 140.76200867 17.7903595 C136.39427668 17.79919607 132.02656427 17.80153745 127.65882421 17.80217528 C124.01311614 17.80312479 120.36741264 17.80680351 116.72170633 17.81034738 C108.1213533 17.81849038 99.52101074 17.82093173 90.9206543 17.82022095 C82.04676731 17.81961995 73.17294107 17.83017655 64.29906946 17.84596461 C56.68113642 17.85903553 49.06322324 17.86440504 41.44527906 17.86376554 C36.89504228 17.86351045 32.34485949 17.86636769 27.79463387 17.87694359 C23.51582687 17.8866172 19.23712559 17.88670882 14.9583149 17.87942696 C13.38816677 17.87838025 11.81801208 17.88074911 10.24787521 17.88678741 C8.10397337 17.89449815 5.96043747 17.88986885 3.81654358 17.88215637 C2.61695542 17.88270114 1.41736727 17.88324591 0.18142796 17.88380718 C-3.91834601 17.5614416 -6.81611918 16.7624179 -9.79638672 13.88491821 C-11.39499884 10.85596892 -11.46759807 9.0208977 -10.98388672 5.63491821 C-7.95114489 0.57976551 -5.77550009 0.00864432 0 0 Z " fill="#000000" transform="translate(245.98388671875,399.3650817871094)"/>
<path d="M0 0 C1.2113562 -0.0112793 2.4227124 -0.02255859 3.67077637 -0.03417969 C5.01001216 -0.02640276 6.34924559 -0.01821011 7.68847656 -0.00964355 C9.10128501 -0.01506471 10.5140878 -0.02218734 11.92687988 -0.03088379 C15.76164099 -0.04912126 19.59597171 -0.04204814 23.43074036 -0.02936745 C27.44342206 -0.01924186 31.45606686 -0.02863189 35.46875 -0.03491211 C42.20742409 -0.04218982 48.94592284 -0.03259765 55.68457031 -0.0135498 C63.4759158 0.0082193 71.26684261 0.001168 79.05817795 -0.02085543 C85.74704955 -0.03900598 92.4357951 -0.04156948 99.12468338 -0.03110075 C103.11993523 -0.02486387 107.11499028 -0.02403537 111.11022949 -0.0372467 C114.86636457 -0.04879972 118.62195976 -0.04079024 122.3780365 -0.01766968 C123.75669966 -0.01237954 125.13540824 -0.01390167 126.51405334 -0.02272034 C128.39542013 -0.03364541 130.27688618 -0.0175175 132.15820312 0 C133.73773773 0.00226215 133.73773773 0.00226215 135.34918213 0.00457001 C138.77362115 0.63599569 139.93530935 1.82055174 142.07910156 4.50793457 C143.41284042 7.88673968 143.17454468 9.2375124 141.95410156 12.69543457 C139.77309235 15.96694839 138.75942436 16.38115475 135.07910156 17.50793457 C132.32542515 17.76241016 132.32542515 17.76241016 129.27919006 17.76863098 C127.54015663 17.77925819 127.54015663 17.77925819 125.76599121 17.7901001 C124.50299194 17.78762268 123.23999268 17.78514526 121.9387207 17.78259277 C120.58812682 17.78694248 119.2375354 17.7921265 117.88694763 17.79808044 C114.2257727 17.81145365 110.56470111 17.81205102 106.90350652 17.80951715 C103.84437368 17.80844633 100.78526166 17.8133336 97.72613329 17.81812257 C90.50791738 17.82921186 83.28975351 17.82965836 76.0715332 17.8236084 C68.63075479 17.8175677 61.19016543 17.82988328 53.74941927 17.85117847 C47.35521016 17.86880403 40.96106117 17.87479434 34.56682867 17.87154073 C30.75039779 17.8697293 26.93410178 17.87234991 23.11769295 17.88625526 C19.52825567 17.89884469 15.93911279 17.89687921 12.34967995 17.88384438 C10.40902563 17.88035711 8.46836228 17.89164827 6.52774048 17.90341187 C-4.27783595 17.83819478 -4.27783595 17.83819478 -8.92089844 14.50793457 C-10.48561076 11.37850992 -10.61791802 7.89711234 -9.92089844 4.50793457 C-6.86251699 0.63519328 -4.86667297 0.00696988 0 0 Z " fill="#000000" transform="translate(292.9208984375,55.4920654296875)"/>
<path d="M0 0 C1.14508026 -0.00700928 2.29016052 -0.01401855 3.46994019 -0.02124023 C7.26015373 -0.03886486 11.04962243 -0.0271808 14.83984375 -0.01367188 C17.47013492 -0.01636548 20.10042513 -0.0202468 22.73071289 -0.02526855 C28.24536225 -0.0325436 33.75979726 -0.02296125 39.27441406 -0.00390625 C45.64797042 0.01786253 52.02101495 0.01081103 58.39455891 -0.01121187 C64.52847897 -0.03155758 70.66217229 -0.02939587 76.79611206 -0.01768494 C79.40526399 -0.01501298 82.01442895 -0.01830379 84.62356567 -0.02760315 C88.26762701 -0.03774021 91.91069994 -0.02230561 95.5546875 0 C96.63740936 -0.00809692 97.72013123 -0.01619385 98.83566284 -0.02453613 C106.12072433 0.05824782 106.12072433 0.05824782 109.42016602 2.36633301 C111.20602445 5.19707443 111.70895476 7.16651764 111.77734375 10.51757812 C110.47052816 13.71201624 109.58447804 15.12573845 106.46138 16.6419096 C103.7803286 17.51660432 101.76382447 17.77120493 98.95776367 17.77827454 C97.54471451 17.78890175 97.54471451 17.78890175 96.1031189 17.79974365 C94.57094223 17.79602753 94.57094223 17.79602753 93.0078125 17.79223633 C91.38016464 17.79990273 91.38016464 17.79990273 89.71963501 17.807724 C86.13464841 17.82161844 82.54985406 17.8206635 78.96484375 17.81835938 C76.47289966 17.82224596 73.98095624 17.82658056 71.48901367 17.8313446 C66.26706799 17.8388062 61.04518992 17.83851563 55.82324219 17.83325195 C50.45923677 17.82787717 45.09541997 17.83493418 39.73144531 17.85375977 C33.25473061 17.87620033 26.77817355 17.88401518 20.30142212 17.8800869 C17.8326462 17.88060072 15.3638666 17.88584973 12.89511108 17.89589882 C9.44551557 17.90821854 5.99646168 17.90149824 2.546875 17.88989258 C1.52542389 17.89753632 0.50397278 17.90518005 -0.5484314 17.91305542 C-6.92902393 17.86554596 -10.58235809 17.15787629 -15.22265625 12.51757812 C-15.89418271 5.57847136 -15.89418271 5.57847136 -13.89526367 2.42053223 C-9.59378547 -0.64221299 -5.15151789 -0.03852462 0 0 Z " fill="#000000" transform="translate(82.22265625,399.482421875)"/>
<path d="M0 0 C0.88742386 -0.00571014 1.77484772 -0.01142029 2.68916321 -0.01730347 C4.15336197 -0.01898026 4.15336197 -0.01898026 5.6471405 -0.02069092 C6.67327957 -0.02565582 7.69941864 -0.03062073 8.75665283 -0.03573608 C12.16310793 -0.05038265 15.56951646 -0.05716403 18.97599792 -0.06268311 C21.33770754 -0.0684327 23.69941713 -0.07419045 26.06112671 -0.07995605 C31.01851113 -0.09047328 35.9758793 -0.09631116 40.93327332 -0.09979248 C47.28890358 -0.10527734 53.64431963 -0.12930235 59.9998827 -0.15776443 C64.88031646 -0.17637883 69.76069851 -0.18159579 74.64116478 -0.18312836 C76.98434813 -0.18615834 79.32753049 -0.19419844 81.67067909 -0.20731354 C84.94815532 -0.22434792 88.22510685 -0.22249989 91.50260925 -0.21600342 C92.47266907 -0.2252182 93.44272888 -0.23443298 94.44218445 -0.243927 C99.34087111 -0.2134749 102.83597769 -0.14116775 106.76896667 3.14044189 C108.3359711 6.27445074 108.62061228 9.77199285 107.76896667 13.14044189 C104.79355926 16.45326441 102.41930307 17.41389456 98.10124207 17.65510559 C96.18987961 17.6818798 94.27813086 17.68656564 92.36662292 17.67388916 C90.79749649 17.68681252 90.79749649 17.68681252 89.19667053 17.69999695 C85.74135038 17.72268622 82.28683924 17.71591261 78.83146667 17.70684814 C76.42920185 17.71208214 74.02693908 17.71835779 71.62467957 17.72563171 C66.59097113 17.73604125 61.55754531 17.73146583 56.52384949 17.71685791 C50.07054228 17.69966401 43.61812491 17.72317111 37.16491699 17.75834751 C32.20465688 17.78029758 27.2446105 17.77888582 22.28431702 17.7705822 C19.90485152 17.76976149 17.52537051 17.77664768 15.14595032 17.79135323 C11.82051211 17.80875526 8.49668357 17.79429124 5.17131042 17.77154541 C3.69523819 17.78908371 3.69523819 17.78908371 2.18934631 17.80697632 C-2.41700105 17.74280847 -4.55857745 17.64058391 -8.34602356 14.82365417 C-10.81840385 11.30435084 -10.92068619 9.3549872 -10.23103333 5.14044189 C-7.15739224 1.24716318 -4.85508168 0.01867507 0 0 Z " fill="#000000" transform="translate(77.23103332519531,303.85955810546875)"/>
<path d="M0 0 C0.88988113 -0.00335861 1.77976227 -0.00671722 2.6966095 -0.01017761 C5.637679 -0.01967504 8.57869151 -0.02163004 11.51977539 -0.02270508 C13.56474328 -0.0259182 15.60971094 -0.02928232 17.65467834 -0.03279114 C21.94101494 -0.03877917 26.22733139 -0.04063134 30.51367188 -0.04003906 C36.00603183 -0.03993739 41.49826266 -0.05359619 46.990592 -0.07081127 C51.21391901 -0.08192875 55.43721475 -0.08395836 59.66055489 -0.08342934 C61.68554696 -0.08460958 63.71053983 -0.08903382 65.7355175 -0.0967617 C68.56726006 -0.10655756 71.39872168 -0.10368522 74.23046875 -0.09765625 C75.06647614 -0.10327576 75.90248352 -0.10889526 76.76382446 -0.11468506 C80.99060901 -0.09181442 84.3761297 0.07217286 88.17993164 2.14526367 C90.80290493 5.20539918 91.18746171 6.7085198 91.11743164 10.77026367 C90.17993164 14.14526367 90.17993164 14.14526367 88.70701599 15.82995605 C84.8272444 17.84931608 81.12214489 17.57932196 76.80908203 17.56518555 C75.3864782 17.57788986 75.3864782 17.57788986 73.93513489 17.59085083 C70.79914959 17.6142556 67.66365393 17.61524216 64.52758789 17.61401367 C62.34809675 17.62111302 60.16860748 17.62881168 57.98912048 17.63708496 C53.42026576 17.6505377 48.85158385 17.65209488 44.28271484 17.64624023 C38.4268735 17.64034281 32.57186086 17.67093445 26.71617985 17.71135712 C22.21487457 17.73720195 17.71376969 17.74011444 13.21240044 17.73646545 C11.05341954 17.73815964 8.89442967 17.74783074 6.73552132 17.76560974 C3.71650796 17.78773588 0.69918318 17.77812939 -2.31982422 17.76049805 C-3.65799194 17.78039291 -3.65799194 17.78039291 -5.02319336 17.8006897 C-9.44626133 17.74064549 -11.26513513 17.57180445 -14.87867737 14.79431152 C-16.82006836 12.14526367 -16.82006836 12.14526367 -17.38256836 9.14526367 C-16.68720032 5.43663414 -15.51252197 3.7629269 -12.82006836 1.14526367 C-8.64119743 -0.24086454 -4.35519923 -0.00235518 0 0 Z " fill="#000000" transform="translate(189.820068359375,211.854736328125)"/>
<path d="M0 0 C4.48147534 3.98752515 6.51216324 8.73693115 6.984375 14.69140625 C6.85635978 22.13051275 3.9657157 27.79940499 -1.36328125 32.984375 C-7.09504409 36.71668569 -13.33731119 37.67706901 -20.0234375 36.33984375 C-26.03811944 34.54355146 -29.53961471 30.82118968 -33.05078125 25.734375 C-35.83720583 19.91922806 -35.88269692 13.78220017 -34.05078125 7.671875 C-31.75833643 2.21521057 -27.40912847 -1.71866978 -22.06640625 -4.1796875 C-13.85272792 -6.643791 -6.82609193 -5.00341817 0 0 Z M-15.05078125 11.734375 C-16.69633824 12.96246591 -16.69633824 12.96246591 -18.05078125 14.734375 C-17.82320394 16.89736711 -17.82320394 16.89736711 -17.05078125 18.734375 C-15.15898922 19.4158573 -15.15898922 19.4158573 -13.05078125 19.734375 C-12.39078125 19.074375 -11.73078125 18.414375 -11.05078125 17.734375 C-11.37119522 15.13156932 -11.37119522 15.13156932 -12.05078125 12.734375 C-13.04078125 12.404375 -14.03078125 12.074375 -15.05078125 11.734375 Z " fill="#000000" transform="translate(168.05078125,48.265625)"/>
<path d="M0 0 C4.90169133 4.61565099 6.77616132 9.22440032 7.3125 15.875 C7.11426115 21.35265235 5.92602483 25.83587939 2.23046875 29.98828125 C-2.64981275 34.49530986 -6.6869936 36.69324015 -13.375 37.3125 C-20.6169973 36.68818989 -25.87976387 34.12023613 -31 29 C-34.53264271 23.39649777 -35.53316462 17.99675201 -34.375 11.5 C-32.80647795 5.40250038 -29.92234511 0.92093526 -24.5 -2.375 C-15.83355602 -6.39870613 -7.75702218 -5.51941963 0 0 Z M-14 12 C-14.99 12.66 -15.98 13.32 -17 14 C-16.67 15.65 -16.34 17.3 -16 19 C-15.01 19.33 -14.02 19.66 -13 20 C-11.35444301 18.77190909 -11.35444301 18.77190909 -10 17 C-9.99521963 14.8522367 -9.99521963 14.8522367 -11 13 C-11.99 12.67 -12.98 12.34 -14 12 Z " fill="#000000" transform="translate(117,48)"/>
<path d="M0 0 C5.34991499 5.29464727 8.12545603 8.99900824 8.3125 16.6875 C8.23110141 22.31078614 7.6841013 26.61230375 4 31 C-2.35819095 36.33154727 -7.66423143 38.5557179 -16 38 C-23.0489288 36.61241559 -26.90324761 32.71956566 -31 27 C-33.76206983 22.43658027 -33.62528582 17.18433184 -33 12 C-31.19100518 5.85808344 -27.40961401 1.36035086 -22 -2 C-14.63542817 -5.20262943 -6.7139642 -4.42835936 0 0 Z M-13 13 C-13.99 13.66 -14.98 14.32 -16 15 C-15.67 16.65 -15.34 18.3 -15 20 C-13.10820797 20.6814823 -13.10820797 20.6814823 -11 21 C-10.34 20.34 -9.68 19.68 -9 19 C-9.32041397 16.39719432 -9.32041397 16.39719432 -10 14 C-10.99 13.67 -11.98 13.34 -13 13 Z " fill="#000000" transform="translate(65,47)"/>
<path d="M0 0 C1.89755791 -0.02398109 1.89755791 -0.02398109 3.83345032 -0.04844666 C5.22123819 -0.05482386 6.60903088 -0.06021644 7.99682617 -0.06469727 C9.41688636 -0.07366225 10.83694557 -0.08278408 12.25700378 -0.09205627 C15.23711442 -0.10856132 18.21711254 -0.11624879 21.19726562 -0.11914062 C25.01082138 -0.12451855 28.82331482 -0.16216534 32.63657093 -0.20788479 C35.57146531 -0.23767591 38.50610489 -0.24486464 41.44113731 -0.24586678 C42.84655294 -0.25006705 44.25196946 -0.26249395 45.6572361 -0.28338432 C47.62677782 -0.31032568 49.59670267 -0.30236174 51.56640625 -0.29296875 C53.24613274 -0.30057472 53.24613274 -0.30057472 54.95979309 -0.30833435 C58.96634051 0.50788661 60.46785183 2.14369915 62.97729492 5.30639648 C63.51146395 9.11235079 63.53298848 11.30085576 61.66479492 14.68139648 C58.50926131 17.72005849 55.18493379 17.44546627 51.0246582 17.48339844 C49.79973663 17.49623367 48.57481506 17.50906891 47.31277466 17.52229309 C45.9743897 17.53046018 44.63600016 17.53790397 43.29760742 17.54467773 C42.62258053 17.54875326 41.94755363 17.55282879 41.25207138 17.55702782 C37.68017638 17.57786513 34.10831954 17.59217775 30.53637695 17.6015625 C26.8519471 17.61263143 23.16812044 17.6470425 19.48390388 17.6867342 C16.64597467 17.71290422 13.80818926 17.72125453 10.97014999 17.72484398 C9.61219069 17.72970783 8.25423773 17.74131631 6.89639664 17.75988197 C4.9939865 17.78427994 3.09128191 17.78088794 1.1887207 17.77636719 C-0.4331868 17.78516655 -0.4331868 17.78516655 -2.08786011 17.79414368 C-5.75091621 17.18537376 -7.40713667 15.89782723 -10.02270508 13.30639648 C-11.26992432 9.64268996 -11.38568212 8.06691982 -9.71020508 4.55639648 C-6.54850225 0.34079272 -5.22208099 0.0497229 0 0 Z " fill="#000000" transform="translate(166.022705078125,351.693603515625)"/>
<path d="M0 0 C1.81230606 -0.00956978 1.81230606 -0.00956978 3.66122437 -0.01933289 C4.97265411 -0.02044571 6.28408386 -0.02155853 7.63525391 -0.02270508 C8.99044836 -0.02591776 10.34564246 -0.02928184 11.70083618 -0.03279114 C14.54389245 -0.03878368 17.38691832 -0.04063095 20.22998047 -0.04003906 C23.87062689 -0.03993752 27.51107794 -0.05358095 31.15167809 -0.07081127 C33.95182182 -0.08193867 36.75191848 -0.08395803 39.55208206 -0.08342934 C41.54624118 -0.08518178 43.54038561 -0.09601941 45.53451538 -0.10697937 C46.74902374 -0.10390274 47.9635321 -0.10082611 49.21484375 -0.09765625 C50.28358734 -0.09908127 51.35233093 -0.10050629 52.45346069 -0.10197449 C55.2911042 0.15008591 56.88458318 0.56827518 59.23681641 2.14526367 C61.73713295 5.89573849 61.77285195 7.70382633 61.23681641 12.14526367 C59.59651007 14.8282057 58.94628351 15.73324347 56.23681641 17.14526367 C51.53901815 17.88910051 46.85091393 17.80039303 42.10791016 17.73901367 C40.71216434 17.73730143 39.31641531 17.73736941 37.92066956 17.73913574 C35.001079 17.73748519 32.08225881 17.71883611 29.1628418 17.68725586 C25.42455644 17.64754103 21.68727742 17.64321622 17.94882107 17.65071869 C15.06882033 17.65379081 12.18904499 17.64166009 9.3090992 17.62458801 C7.93083167 17.61756829 6.55253861 17.61443223 5.17425346 17.61528015 C3.24768925 17.61347868 1.32118309 17.58980886 -0.60522461 17.56518555 C-1.70044937 17.55676636 -2.79567413 17.54834717 -3.92408752 17.53967285 C-7.09548384 17.09910029 -8.47047087 16.33927615 -10.76318359 14.14526367 C-11.82697262 11.49687224 -12.01196395 8.98135968 -11.76318359 6.14526367 C-8.43180795 0.74613763 -6.09709176 0.02177841 0 0 Z " fill="#000000" transform="translate(232.76318359375,303.854736328125)"/>
<path d="M0 0 C1.80746452 -0.01913956 1.80746452 -0.01913956 3.65144348 -0.03866577 C5.61388252 -0.04200424 5.61388252 -0.04200424 7.6159668 -0.04541016 C8.96876671 -0.05183621 10.32156521 -0.05856443 11.67436218 -0.06558228 C14.51324686 -0.07756881 17.35200976 -0.08126187 20.19091797 -0.08007812 C23.82274088 -0.07987522 27.45377875 -0.10714035 31.08541584 -0.14162254 C33.88133808 -0.16390355 36.67707204 -0.16791527 39.47307396 -0.16685867 C41.46113756 -0.17035766 43.44914239 -0.19202018 45.43708801 -0.21395874 C46.65152084 -0.20780548 47.86595367 -0.20165222 49.1171875 -0.1953125 C50.18371048 -0.19816254 51.25023346 -0.20101257 52.34907532 -0.20394897 C56.01189425 0.41981836 57.67826074 1.64428346 60.25268555 4.29052734 C61.01291079 9.07994639 61.21836484 10.81970218 58.55102539 14.88232422 C54.14848612 19.11229407 47.49755774 17.97871127 41.81518555 17.91943359 C40.50235596 17.92184555 39.18952637 17.92425751 37.83691406 17.92674255 C35.06275346 17.92959565 32.28940242 17.91494966 29.51538086 17.88745117 C25.96758384 17.85336709 22.42123362 17.85939003 18.87336731 17.87811375 C15.47883072 17.89125123 12.08471207 17.87296099 8.69018555 17.85693359 C6.78378296 17.8643734 6.78378296 17.8643734 4.83886719 17.8719635 C3.65413818 17.85612717 2.46940918 17.84029083 1.2487793 17.82397461 C0.20906982 17.81777603 -0.83063965 17.81157745 -1.90185547 17.80519104 C-5.48793288 17.15657025 -7.16962601 15.82404256 -9.74731445 13.29052734 C-10.99453369 9.62682082 -11.1102915 8.05105068 -9.43481445 4.54052734 C-6.34657048 0.42286871 -5.09668142 0.03651322 0 0 Z " fill="#000000" transform="translate(276.747314453125,351.70947265625)"/>
<path d="M0 0 C0.96006454 -0.00241196 1.92012909 -0.00482391 2.9092865 -0.00730896 C4.93411398 -0.00633149 6.95896851 0.0070381 8.98364258 0.03198242 C12.08311614 0.06633169 15.17974436 0.05262604 18.27929688 0.03320312 C20.24871005 0.04010063 22.21811587 0.04977215 24.1875 0.0625 C25.11361588 0.05754013 26.03973175 0.05258026 26.99391174 0.04747009 C33.38633793 0.16457341 33.38633793 0.16457341 36.58374023 2.48071289 C38.47874757 5.30062994 38.95800063 7.23109314 39.02734375 10.62890625 C37.42322527 14.15796692 36.28575013 15.45663533 33.02734375 17.62890625 C31.10574341 17.88960266 31.10574341 17.88960266 28.91064453 17.90356445 C27.67388474 17.91786247 27.67388474 17.91786247 26.41213989 17.93244934 C25.52461029 17.93153793 24.63708069 17.93062653 23.72265625 17.9296875 C22.80652557 17.93397263 21.8903949 17.93825775 20.94650269 17.94267273 C19.00812608 17.94841624 17.06972792 17.94891614 15.13134766 17.94458008 C12.1705223 17.94142562 9.2107014 17.96485975 6.25 17.99023438 C4.36588668 17.99250796 2.48177067 17.99321059 0.59765625 17.9921875 C-0.72756546 18.00600212 -0.72756546 18.00600212 -2.07955933 18.02009583 C-6.85156671 17.98431893 -10.11774405 17.77329959 -13.97265625 14.62890625 C-15.54201219 11.49019437 -15.32466728 9.09034803 -14.97265625 5.62890625 C-10.80893156 -0.26814338 -6.6585442 -0.09553205 0 0 Z " fill="#000000" transform="translate(81.97265625,351.37109375)"/>
<path d="M0 0 C0.75792847 -0.00478363 1.51585693 -0.00956726 2.29675293 -0.01449585 C3.89365727 -0.01788696 5.49063178 -0.0087395 7.08740234 0.01220703 C9.52469402 0.03899046 11.95738192 0.01243943 14.39453125 -0.01953125 C15.95053095 -0.016227 17.50652779 -0.00982045 19.0625 0 C19.78659058 -0.01012115 20.51068115 -0.02024231 21.25671387 -0.03067017 C25.14350298 0.05886214 26.89940797 0.56087895 29.99414062 2.98291016 C32.03125 5.6640625 32.03125 5.6640625 32.59375 9.2265625 C31.95253811 13.14507961 31.13625781 14.28964476 28.03125 16.6640625 C23.45159123 18.95389188 16.7152956 17.975629 11.62866211 18.01416016 C10.02727717 18.03070775 8.42596573 18.05798259 6.82495117 18.09619141 C4.51181884 18.15108981 2.20041564 18.17285168 -0.11328125 18.1875 C-0.82490921 18.21016937 -1.53653717 18.23283875 -2.26972961 18.25619507 C-6.15236724 18.23977407 -7.82941415 17.77328632 -10.9206543 15.35009766 C-12.96875 12.6640625 -12.96875 12.6640625 -13.59375 9.1640625 C-12.22126753 1.47816066 -7.08275926 -0.09900102 0 0 Z " fill="#000000" transform="translate(372.96875,351.3359375)"/>
<path d="M0 0 C1.2890625 -0.00515625 2.578125 -0.0103125 3.90625 -0.015625 C8.21459671 0.30281802 11.17882709 0.97438478 14.3125 4 C15.92713016 7.05929925 16.05788128 8.83297718 15.5 12.25 C13.42558421 15.19489089 11.80220117 16.98837869 8.18505859 17.71508789 C5.4193686 17.88759003 2.70745591 17.88264947 -0.0625 17.8125 C-1.48079102 17.82893555 -1.48079102 17.82893555 -2.92773438 17.84570312 C-9.76707671 17.77320126 -9.76707671 17.77320126 -13.09375 15.3984375 C-14.94222442 12.57437935 -15.43107913 10.62712242 -15.5 7.25 C-14.23607812 4.16041319 -13.324753 2.68187066 -10.3515625 1.125 C-6.80232777 0.03591975 -3.70965586 -0.01483862 0 0 Z " fill="#000000" transform="translate(127.5,211.75)"/>
</svg>
