<?xml version="1.0" encoding="UTF-8"?>
<svg version="1.1" xmlns="http://www.w3.org/2000/svg" width="512" height="512">
<path d="M0 0 C1.32585605 -0.00997172 1.32585605 -0.00997172 2.67849708 -0.02014488 C5.6462709 -0.03986114 8.613894 -0.04521951 11.58172607 -0.05052185 C13.70724381 -0.06141521 15.83275769 -0.07308672 17.95826721 -0.08547974 C23.73730069 -0.11600897 29.51629432 -0.13300878 35.29539204 -0.14569592 C38.90565155 -0.15377738 42.51589957 -0.16395781 46.12615204 -0.17471123 C57.4210321 -0.20743603 68.71588432 -0.23133476 80.01080537 -0.24352509 C93.05068241 -0.2577819 106.09001841 -0.30166015 119.12971616 -0.37102658 C129.20797773 -0.42279147 139.28608536 -0.44769703 149.36447787 -0.45234722 C155.38440178 -0.45574696 161.40377869 -0.47063091 167.4235611 -0.51362801 C173.08726928 -0.55337301 178.75004847 -0.5597864 184.4138546 -0.54072762 C186.49072536 -0.53946121 188.56764353 -0.55014077 190.64438057 -0.57374191 C208.29790707 -0.76288988 208.29790707 -0.76288988 212.96377563 3.17967224 C214.11948867 4.52201496 215.24109805 5.89416821 216.33465576 7.28761292 C217.98977873 8.92866479 219.66155799 10.55300731 221.34536743 12.16461182 C223.24394772 14.05427839 225.13981389 15.94641866 227.03338623 17.84107971 C228.08529815 18.88999338 229.1374127 19.93870388 230.18971252 20.98722839 C233.02434384 23.81309115 235.85578645 26.64212747 238.68635702 29.4720571 C240.4567699 31.24175631 242.2278941 33.01074041 243.99927139 34.77947426 C250.18324952 40.95422828 256.36466711 47.1315321 262.54364014 53.31129456 C268.29908264 59.06733963 274.06010039 64.81776287 279.82371414 70.56562489 C284.78114824 75.50999346 289.73472956 80.45819954 294.68531525 85.40942508 C297.6384794 88.36284416 300.59317508 91.31469008 303.551754 94.26268578 C306.32887937 97.03014486 309.1011828 99.80234429 311.86983299 102.5782814 C312.88638622 103.59588174 313.90465133 104.61177524 314.92474174 105.6258297 C316.31639494 107.00977938 317.7013001 108.40050485 319.08584595 109.79156494 C319.86266661 110.56784083 320.63948727 111.34411673 321.43984795 112.14391613 C324.90213955 116.06099063 325.58479755 118.93460624 325.58913136 124.14265728 C325.59496355 125.34684266 325.60079574 126.55102804 325.60680467 127.79170388 C325.60317137 129.12967078 325.59934699 130.46763716 325.59535217 131.80560303 C325.59837193 133.22569919 325.60226052 134.64579372 325.60694474 136.06588537 C325.61725666 139.97304333 325.6150348 143.88010986 325.61076415 147.78727543 C325.60830262 151.99942404 325.61730408 156.21155031 325.62480164 160.4236908 C325.63756785 168.67860341 325.63933984 176.93348352 325.63700137 185.18840434 C325.63521976 191.89876243 325.63696449 198.60911064 325.64122581 205.31946754 C325.641821 206.27382671 325.64241619 207.22818587 325.64302942 208.211465 C325.64424115 210.15017229 325.64545529 212.08887957 325.64667179 214.02758685 C325.65755529 232.22087427 325.65538135 250.41414316 325.64928695 268.60743163 C325.64412027 285.24919299 325.65536522 301.89089577 325.67438517 318.53264555 C325.69376184 335.61747867 325.70201966 352.70228408 325.69826192 369.78712827 C325.6963492 379.38000846 325.69884403 388.97283883 325.71297646 398.56571007 C325.72488924 406.7347436 325.7262965 414.90369665 325.71418629 423.07273128 C325.70829613 427.23989969 325.70720182 431.4069209 325.71918869 435.57407951 C325.73004287 439.39190761 325.72694975 443.20946553 325.71292701 447.02728096 C325.70902791 449.05646104 325.71983119 451.08565309 325.73122388 453.11480492 C325.68078619 461.63400373 324.89345029 468.41286691 320.14715576 475.60011292 C312.84628704 482.57649858 306.06209501 482.86717368 296.39190674 482.79554749 C294.44839128 482.80490743 294.44839128 482.80490743 292.46561289 482.81445646 C288.88469139 482.83110242 285.30419815 482.82292533 281.72327542 482.81051159 C277.85544053 482.80144387 273.98767817 482.81543934 270.11985779 482.82643127 C262.54892139 482.84420276 254.97814375 482.84038265 247.40720117 482.82878071 C241.25327082 482.81974126 235.09938492 482.8185246 228.94544983 482.82287598 C228.06905402 482.82348891 227.19265821 482.82410184 226.28970495 482.82473335 C224.50923406 482.82601227 222.72876318 482.82730912 220.94829232 482.82862371 C204.25910977 482.84002549 187.57001516 482.82692212 170.88084704 482.80542225 C156.56576399 482.78755162 142.25081069 482.79065585 127.93572998 482.80909729 C111.3056142 482.8305111 94.67557547 482.83892689 78.04544783 482.82664824 C76.27158579 482.82537406 74.49772375 482.82411658 72.72386169 482.82287598 C71.85112434 482.82225887 70.97838698 482.82164177 70.07920304 482.82100597 C63.93381041 482.8175546 57.78846671 482.82337682 51.64308167 482.83279419 C44.15223797 482.84402123 36.66156191 482.84095935 29.17073739 482.81967121 C25.34994414 482.80917022 21.52943022 482.80502254 17.70863914 482.81826782 C13.56465196 482.83241607 9.42136794 482.81550476 5.27740479 482.79554749 C3.4703984 482.80893182 3.4703984 482.80893182 1.62688684 482.82258654 C-6.16086456 482.74974608 -11.58152039 481.74073038 -17.68878174 476.57667542 C-18.35780518 475.75296448 -18.35780518 475.75296448 -19.04034424 474.91261292 C-19.50182861 474.36862854 -19.96331299 473.82464417 -20.43878174 473.26417542 C-23.52368726 468.29295824 -23.95606797 463.27522924 -23.92261314 457.55947304 C-23.92611922 456.79686696 -23.92962529 456.03426088 -23.93323761 455.24854553 C-23.94254966 452.69033841 -23.93762882 450.13235903 -23.93276978 447.57414246 C-23.93650612 445.72262842 -23.94110758 443.87111595 -23.94650042 442.01960599 C-23.95874755 436.9292823 -23.95846794 431.83902425 -23.95611167 426.74868917 C-23.95570394 421.25982745 -23.96673839 415.7709869 -23.97622681 410.28213501 C-23.99284674 399.52790987 -23.99833679 388.77370666 -23.99945156 378.01946975 C-24.00040148 369.27968885 -24.00450897 360.53991518 -24.01085281 351.80013657 C-24.02560058 331.06086835 -24.03790227 310.32160495 -24.0368557 289.5823307 C-24.03682454 288.91912429 -24.03679338 288.25591788 -24.03676128 287.5726143 C-24.03659507 284.21121233 -24.03639698 280.84981037 -24.03619187 277.4884084 C-24.03613203 276.48702896 -24.03613203 276.48702896 -24.03607099 275.46541964 C-24.03599011 274.11539793 -24.03590652 272.76537621 -24.0358202 271.4153545 C-24.03459454 250.40855359 -24.04961095 229.40181723 -24.07696533 208.39503479 C-24.10768514 184.79405262 -24.12487258 161.19310139 -24.12303889 137.59209573 C-24.12237438 125.09571105 -24.12789355 112.59939918 -24.14939499 100.10303116 C-24.16758188 89.46475793 -24.17197455 78.82659052 -24.15837614 68.18830849 C-24.15183418 62.75948728 -24.15177372 57.33086923 -24.16908264 51.90206718 C-24.18476377 46.93276091 -24.18200049 41.96381972 -24.16451438 36.99452262 C-24.16143356 35.19645417 -24.16511741 33.3983588 -24.17623453 31.60032208 C-24.19034953 29.15558471 -24.1797751 26.71212905 -24.16312218 24.26743507 C-24.17305854 23.56981516 -24.1829949 22.87219526 -24.19323236 22.15343535 C-24.10439273 15.98204985 -21.93330516 10.86393695 -17.88409424 6.26417542 C-17.31690674 5.81815979 -16.74971924 5.37214417 -16.16534424 4.91261292 C-15.59815674 4.45112854 -15.03096924 3.98964417 -14.44659424 3.51417542 C-9.6865426 0.23642056 -5.71700989 -0.00726244 0 0 Z M-6.36066455 17.85688138 C-8.11342657 21.1224292 -8.08188886 24.05707928 -8.04845428 27.67150879 C-8.0534138 28.42118695 -8.05837332 29.17086511 -8.06348312 29.94326079 C-8.076495 32.46959185 -8.06803705 34.99539919 -8.05975342 37.52174377 C-8.06463967 39.34551082 -8.07082823 41.16927476 -8.07821131 42.99303341 C-8.09466746 48.01581543 -8.0922814 53.03844107 -8.08683634 58.06124067 C-8.08417315 63.47372348 -8.09868445 68.88616394 -8.1109314 74.29862976 C-8.13201696 84.90607775 -8.13652449 95.51347112 -8.13474351 106.12093759 C-8.13343758 114.73923677 -8.13723136 123.35751886 -8.14466858 131.97581482 C-8.14676769 134.45516046 -8.14886529 136.9345061 -8.1509614 139.41385174 C-8.15200493 140.64775406 -8.15304845 141.88165639 -8.1541236 143.15294969 C-8.17303821 166.50464037 -8.17197189 189.85629965 -8.16515428 213.20799482 C-8.15932875 234.58989123 -8.18041199 255.97166541 -8.21351475 277.3535341 C-8.24721276 299.28949111 -8.26242503 321.2253907 -8.25779772 343.16137409 C-8.25554927 355.48441226 -8.26085113 367.80733972 -8.28569031 380.13035583 C-8.30665312 390.61986136 -8.31034535 401.10919547 -8.29139072 411.59870791 C-8.28220226 416.95415076 -8.28118468 422.30927358 -8.30174637 427.66469193 C-8.32034337 432.5623968 -8.31608055 437.45951701 -8.29320055 442.35719883 C-8.28898614 444.1337209 -8.2933092 445.91028682 -8.30679649 447.68676269 C-8.32382904 450.09313143 -8.31036604 452.49742891 -8.28896332 454.90371704 C-8.30124084 455.60118628 -8.31351837 456.29865552 -8.32616794 457.01726019 C-8.25980737 460.56345804 -7.87390681 462.05754335 -5.4626298 464.71747154 C-2.41313716 466.429179 -0.75150315 466.78930557 2.71484375 466.79377079 C3.78763454 466.80481848 4.86042534 466.81586617 5.96572495 466.82724863 C7.13838032 466.81900787 8.31103569 466.8107671 9.51922607 466.80227661 C10.76953739 466.80922214 12.01984871 466.81616767 13.30804825 466.82332367 C16.77611621 466.84196878 20.2437577 466.83563991 23.71184349 466.82517064 C27.45289213 466.81818388 31.19385269 466.83417249 34.93487549 466.84716797 C42.26257013 466.86882161 49.59010957 466.86867769 56.9178257 466.86054242 C62.87258022 466.85424553 68.82728943 466.85537659 74.78204346 466.8618145 C76.05275267 466.86316698 76.05275267 466.86316698 77.34913278 466.86454679 C79.07001846 466.86639796 80.79090414 466.86826052 82.5117898 466.87013435 C98.65291488 466.88671738 114.79395258 466.87798914 130.93507242 466.86114877 C145.70746618 466.84644935 160.4796566 466.86108268 175.25202417 466.88991893 C190.41586524 466.91929924 205.5796124 466.93028934 220.74348068 466.92073673 C222.45807646 466.91971416 224.17267226 466.91871955 225.88726807 466.91775322 C226.73090731 466.91727683 227.57454655 466.91680044 228.44375062 466.91630961 C234.39216302 466.91414378 240.34048668 466.92395845 246.28887939 466.93852425 C253.53689981 466.95602468 260.78466086 466.95596326 268.03267097 466.93317259 C271.73162077 466.92200967 275.43011324 466.91891356 279.12904358 466.9374733 C283.13643606 466.9573223 287.14270871 466.93854025 291.15008545 466.915802 C292.32274082 466.92763773 293.49539619 466.93947346 294.70358658 466.95166785 C299.2977105 466.89847166 302.46489617 466.74871764 306.55861187 464.57842636 C309.44016563 459.23922506 309.00359424 453.97662902 308.93592834 448.00640869 C308.93810896 446.62440508 308.94248729 445.24240347 308.94887418 443.8604129 C308.96005955 440.06331923 308.94004836 436.26693012 308.91498387 432.46992624 C308.89340489 428.37522489 308.90069748 424.28056374 308.90449524 420.18582153 C308.90711786 413.09162662 308.8914216 405.99766151 308.86330605 398.9035244 C308.82268221 388.64661522 308.80964998 378.38981723 308.80336609 368.13283632 C308.79242115 351.49190132 308.75914153 334.85108882 308.71185303 318.21022034 C308.66596261 302.04453647 308.63056816 285.87888587 308.60931396 269.71315002 C308.60734354 268.21863567 308.60734354 268.21863567 308.60533331 266.6939291 C308.59880815 261.69560268 308.5924896 256.69727603 308.58627379 251.69894922 C308.53443456 210.22841856 308.44636383 168.75802275 308.33465576 127.28761292 C307.17478149 127.28174667 306.01490723 127.27588043 304.81988525 127.26983643 C293.87343013 127.21255032 282.92717254 127.13975774 271.98091888 127.051898 C266.35372864 127.00722681 260.72661026 126.96796335 255.0993042 126.94117737 C249.66564731 126.91511221 244.23226742 126.87468666 238.79878235 126.82442665 C236.72886101 126.80777974 234.65889179 126.79625194 232.58891296 126.78999901 C229.68290368 126.78033439 226.77759961 126.75224645 223.87176514 126.71998596 C223.02155792 126.72142105 222.17135071 126.72285614 221.29537964 126.72433472 C215.07330073 126.62705247 209.25599796 125.71830497 204.31121826 121.60401917 C203.86520264 121.0252301 203.41918701 120.44644104 202.95965576 119.85011292 C202.49817139 119.27390198 202.03668701 118.69769104 201.56121826 118.10401917 C197.19291413 111.63503375 197.18246536 104.91456763 197.1293335 97.34474182 C197.1194339 96.46604431 197.1095343 95.5873468 197.09933472 94.68202209 C197.06787938 91.79276679 197.04302573 88.90349507 197.01824951 86.01417542 C196.99766618 84.00492437 196.97666935 81.99567752 196.95527649 79.98643494 C196.90019822 74.70933947 196.85072634 69.43220586 196.8024292 64.15504456 C196.75210992 58.76560589 196.69647837 53.37622234 196.64129639 47.98683167 C196.53388915 37.42047254 196.43240574 26.85406548 196.33465576 16.28761292 C170.17935825 16.19426684 144.02408561 16.12368145 117.8686552 16.08036423 C105.7248599 16.05971876 93.58116794 16.03156025 81.43743896 15.9858551 C70.85580704 15.9460481 60.27424995 15.92019455 49.69254524 15.91125894 C44.08701143 15.90603379 38.48169175 15.89371163 32.87622643 15.86469269 C27.60429386 15.83762054 22.33266442 15.82915129 17.06066895 15.83518219 C15.12200589 15.83407827 13.18333311 15.82607578 11.24473 15.81079102 C8.60482854 15.79099121 5.96608287 15.7956367 3.32615662 15.80659485 C2.55281453 15.79494348 1.77947245 15.78329212 0.98269576 15.77128768 C-3.0609973 15.77152588 -3.0609973 15.77152588 -6.36066455 17.85688138 Z M213.33465576 28.28761292 C213.24194548 38.37111709 213.17088553 48.45451975 213.12740707 58.53836346 C213.10653874 63.22080231 213.07823495 67.9029494 213.03289795 72.58522034 C212.98941316 77.10451942 212.96551298 81.62353801 212.95514679 86.14303017 C212.94776013 87.86662524 212.93333557 89.59020509 212.91173553 91.31368065 C212.88266582 93.72940022 212.87870114 96.14396317 212.8805542 98.55982971 C212.8661731 99.27121094 212.85179199 99.98259216 212.8369751 100.7155304 C212.86477053 104.06785807 213.31720036 106.25434971 214.88140869 109.23512268 C218.18148257 111.99610403 220.92641991 111.95734848 225.04071045 111.85523987 C226.19738472 111.85633507 226.19738472 111.85633507 227.37742615 111.85745239 C229.92118161 111.8539744 232.46309605 111.81510627 235.00653076 111.77589417 C236.77200317 111.76656672 238.53748853 111.75945028 240.30297852 111.75445557 C244.9459212 111.73538023 249.58807969 111.68627515 254.23071289 111.63093567 C258.96967968 111.57975454 263.7087734 111.55694397 268.44793701 111.53175354 C277.74385416 111.47815666 287.03918971 111.39283758 296.33465576 111.28761292 C292.00669132 106.11561332 287.46705687 101.27656278 282.69281006 96.51637268 C281.95226883 95.77407913 281.2117276 95.03178558 280.44874573 94.26699829 C278.02128356 91.83516481 275.59021806 89.40697157 273.15887451 86.97901917 C271.46576053 85.28523122 269.77279499 83.59129488 268.07997131 81.8972168 C264.54368623 78.35946152 261.00560859 74.82351147 257.46624756 71.28883362 C252.91851055 66.74681973 248.37531248 62.20029628 243.83342266 57.65243626 C240.34468087 54.16009285 236.85357565 50.67011992 233.36173439 47.18087578 C231.68436993 45.50418035 230.00775334 43.82673642 228.33188438 42.14854622 C226.00016864 39.8143077 223.66530073 37.48327011 221.32952881 35.15309143 C220.63189423 34.45343262 219.93425964 33.7537738 219.21548462 33.03291321 C218.58330521 32.40355362 217.95112579 31.77419403 217.29978943 31.12576294 C216.748054 30.57440454 216.19631857 30.02304613 215.62786388 29.4549799 C214.50129961 28.175935 214.50129961 28.175935 213.33465576 28.28761292 Z " fill="#000000" transform="translate(49.66534423828125,14.712387084960938)"/>
<path d="M0 0 C6.43296677 5.31418994 10.64824969 12.09717597 12.3359375 20.3046875 C12.41584854 22.11050505 12.44363573 23.91900559 12.43359375 25.7265625 C12.43037109 26.75136719 12.42714844 27.77617187 12.42382812 28.83203125 C12.41125977 30.42724609 12.41125977 30.42724609 12.3984375 32.0546875 C12.39392578 33.13363281 12.38941406 34.21257812 12.38476562 35.32421875 C12.37299492 37.98439875 12.35505989 40.64455019 12.3359375 43.3046875 C16.2959375 43.3046875 20.2559375 43.3046875 24.3359375 43.3046875 C24.30113281 42.34046875 24.26632812 41.37625 24.23046875 40.3828125 C24.20339844 39.11953125 24.17632812 37.85625 24.1484375 36.5546875 C24.11363281 35.30171875 24.07882812 34.04875 24.04296875 32.7578125 C24.35043942 29.13375815 24.75351047 27.79618401 27.3359375 25.3046875 C31.16574233 24.02808589 32.87092304 24.12043649 36.6484375 25.6171875 C39.3359375 27.3046875 39.3359375 27.3046875 40.3359375 29.3046875 C40.43853633 30.78830138 40.47970212 32.27638132 40.48983765 33.76350403 C40.49843811 34.70141281 40.50703857 35.63932159 40.51589966 36.60565186 C40.52015961 37.63788879 40.52441956 38.67012573 40.52880859 39.73364258 C40.54107483 41.36063332 40.54107483 41.36063332 40.55358887 43.02049255 C40.57846881 46.62172894 40.59496468 50.22292587 40.609375 53.82421875 C40.61469868 55.05179083 40.62002235 56.27936291 40.62550735 57.54413414 C40.64948946 63.36990667 40.6687304 69.19566287 40.6815294 75.02147084 C40.69659378 81.74497478 40.73168837 88.4679934 40.78353059 95.19131166 C40.82690752 101.01547785 40.8428755 106.8394809 40.84926224 112.66379356 C40.85599113 115.14097526 40.8712553 117.61814882 40.89515305 120.09522438 C40.92667272 123.55974179 40.92686061 127.02292646 40.91943359 130.48754883 C40.93583893 131.51371307 40.95224426 132.53987732 40.96914673 133.59713745 C40.9275863 138.32534052 40.88680668 140.56809473 37.98696899 144.44560242 C35.3359375 146.3046875 35.3359375 146.3046875 32.3359375 146.8671875 C28.51487243 146.1507378 27.01679289 145.12420512 24.3359375 142.3046875 C23.85734968 139.41375231 23.70021852 137.11677341 23.76831055 134.23144531 C23.76758041 133.42131485 23.76685028 132.61118439 23.76609802 131.77650452 C23.76957717 129.10292231 23.80845187 126.4310897 23.84765625 123.7578125 C23.85698326 121.90265861 23.8640999 120.04749239 23.86909485 118.19232178 C23.88817355 113.31266193 23.93728184 108.4337478 23.99261475 103.55438232 C24.04378844 98.57411792 24.06660487 93.59373286 24.09179688 88.61328125 C24.14539974 78.8434226 24.23072312 69.07411709 24.3359375 59.3046875 C20.3759375 59.3046875 16.4159375 59.3046875 12.3359375 59.3046875 C12.33870288 60.42430469 12.34146826 61.54392187 12.34431744 62.69746685 C12.41110063 90.01865911 12.46030203 117.33984071 12.49137402 144.66109753 C12.50680197 157.8737854 12.52781314 171.08641915 12.56225586 184.29907227 C12.5922834 195.82356391 12.61154204 207.34801633 12.61820298 218.87254602 C12.62209273 224.96709924 12.63114811 231.0615403 12.65312767 237.15605736 C12.67370442 242.90898181 12.67972911 248.66174942 12.67526054 254.41470718 C12.67607637 256.51028233 12.68191436 258.6058635 12.69355392 260.70140648 C12.78426621 277.89693644 11.75044972 295.24782743 6.7109375 311.8046875 C6.33461182 313.07505859 6.33461182 313.07505859 5.95068359 314.37109375 C1.73386788 328.04616416 -3.78461952 345.56854005 -13.6640625 356.3046875 C-16.96300915 357.68109365 -19.28697547 358.58208633 -22.8359375 357.8671875 C-25.62567657 355.48279513 -27.19875577 352.49117775 -28.9140625 349.3046875 C-29.30247314 348.5926416 -29.69088379 347.8805957 -30.09106445 347.14697266 C-44.06622627 321.09293342 -50.83172779 293.94003896 -50.80450439 264.32406616 C-50.80896108 262.76956188 -50.80896108 262.76956188 -50.8135078 261.18365347 C-50.82210593 257.74791548 -50.82369539 254.3122127 -50.82519531 250.87646484 C-50.82982951 248.39834012 -50.83485497 245.9202161 -50.84024048 243.4420929 C-50.8533018 236.7377991 -50.85983375 230.03351886 -50.86425114 223.32921553 C-50.86702517 219.13730844 -50.87126429 214.94540362 -50.87575531 210.75349808 C-50.88793151 199.12764062 -50.89823753 187.50178495 -50.9016304 175.87592125 C-50.90184997 175.13405267 -50.90206953 174.3921841 -50.90229575 173.62783466 C-50.90251403 172.88430461 -50.90273231 172.14077456 -50.9029572 171.3747133 C-50.90340065 169.86829845 -50.90384722 168.3618836 -50.90429688 166.85546875 C-50.9045183 166.10825234 -50.90473973 165.36103592 -50.90496787 164.59117658 C-50.90892008 152.47069706 -50.92639434 140.35027748 -50.9496564 128.22982113 C-50.97339298 115.76083373 -50.98583312 103.29187643 -50.98699832 90.82286608 C-50.98791321 83.83180183 -50.99361944 76.84081599 -51.01181793 69.84977341 C-51.02886537 63.27841941 -51.03045451 56.7071878 -51.02167892 50.13580894 C-51.02090871 47.72760939 -51.02524912 45.31940183 -51.03513718 42.91122246 C-51.0478654 39.61775224 -51.04197489 36.32480847 -51.03155518 33.03134155 C-51.03961158 32.08424549 -51.04766798 31.13714942 -51.05596852 30.16135347 C-50.98300902 20.2655393 -48.76055901 11.46056067 -41.65234375 4.26953125 C-29.5945052 -7.01038224 -14.38205953 -9.1522197 0 0 Z M-28.6640625 13.3046875 C-33.84452816 18.3700317 -35.73514445 23.52666189 -35.859375 30.70703125 C-35.84815057 32.21889001 -35.82247141 33.73065624 -35.7890625 35.2421875 C-35.7478125 37.9028125 -35.7065625 40.5634375 -35.6640625 43.3046875 C-25.4340625 43.3046875 -15.2040625 43.3046875 -4.6640625 43.3046875 C-4.5815625 39.9840625 -4.4990625 36.6634375 -4.4140625 33.2421875 C-4.35943848 31.69325806 -4.35943848 31.69325806 -4.30371094 30.11303711 C-4.2297366 23.92842424 -5.00128985 20.33189264 -8.6640625 15.3046875 C-15.21193106 9.77537627 -21.20125846 9.02048518 -28.6640625 13.3046875 Z M-34.6640625 59.3046875 C-34.6640625 112.7646875 -34.6640625 166.2246875 -34.6640625 221.3046875 C-24.4340625 221.3046875 -14.2040625 221.3046875 -3.6640625 221.3046875 C-3.6640625 167.8446875 -3.6640625 114.3846875 -3.6640625 59.3046875 C-13.8940625 59.3046875 -24.1240625 59.3046875 -34.6640625 59.3046875 Z M-34.6640625 237.3046875 C-34.98495261 269.03715372 -34.66432682 298.72050828 -21.6640625 328.3046875 C-20.99084543 329.96871905 -20.3215854 331.63439236 -19.6640625 333.3046875 C-16.33985037 329.54600387 -14.90514703 325.20069546 -13.2265625 320.5546875 C-12.92016846 319.70994873 -12.61377441 318.86520996 -12.2980957 317.99487305 C-5.11663156 297.76483481 -3.34023215 278.13205642 -3.5390625 256.8046875 C-3.54912435 254.90234852 -3.55824447 253.00000433 -3.56640625 251.09765625 C-3.5864145 246.49976015 -3.62560403 241.90261158 -3.6640625 237.3046875 C-13.8940625 237.3046875 -24.1240625 237.3046875 -34.6640625 237.3046875 Z " fill="#000000" transform="translate(446.6640625,139.6953125)"/>
<path d="M0 0 C7.00073461 4.01165691 10.95342229 8.98765475 13.15625 16.75 C14.55450462 23.27518824 13.49060148 29.00233964 10.625 34.9375 C6.63841803 41.05241978 1.79201206 45.20372358 -5.375 46.9375 C-10.24903563 47.36591842 -15.21385957 47.71320714 -19.8671875 46.04296875 C-22.66286012 45.63821508 -22.66286012 45.63821508 -25.1171875 48.3125 C-26.17632701 49.50782193 -27.21932197 50.71755172 -28.25 51.9375 C-32.80668874 57.11541028 -37.48360302 62.09049737 -42.44140625 66.8828125 C-42.96569214 67.39261658 -43.48997803 67.90242065 -44.03015137 68.42767334 C-46.15089635 70.48919733 -48.27144986 72.5499673 -50.41864014 74.58398438 C-51.93711284 76.02448861 -53.43643603 77.48271374 -54.93359375 78.9453125 C-56.25315063 80.20819092 -56.25315063 80.20819092 -57.59936523 81.49658203 C-59.67244142 83.79093026 -59.67244142 83.79093026 -59.16967773 86.56323242 C-58.90743408 87.34674072 -58.64519043 88.13024902 -58.375 88.9375 C-57.5778777 97.62613306 -58.01246059 104.79175471 -63.375 111.9375 C-68.99451285 117.48777861 -74.76330503 119.94497741 -82.625 120.375 C-89.5531819 120.22418243 -95.00566964 117.86611626 -100.2265625 113.328125 C-103.86493285 109.42090955 -106.2339813 105.1613162 -107.375 99.9375 C-107.26646554 98.46509876 -107.12886987 96.99459989 -106.96484375 95.52734375 C-106.93638908 92.75016821 -106.94061772 91.45027398 -108.75488281 89.30859375 C-110.78882633 87.82245339 -112.85459506 86.5877203 -115.0625 85.375 C-115.83182861 84.9210083 -116.60115723 84.4670166 -117.39379883 83.99926758 C-118.96148288 83.07451104 -120.53600532 82.16124821 -122.1171875 81.25976562 C-124.19997497 80.04000168 -126.19472079 78.75108004 -128.1875 77.390625 C-128.76153564 77.00592041 -129.33557129 76.62121582 -129.92700195 76.22485352 C-131.4680078 75.18854491 -133.00560312 74.14716997 -134.54296875 73.10546875 C-137.37869262 71.61672613 -137.37869262 71.61672613 -140.546875 72.6640625 C-141.48015625 73.08429688 -142.4134375 73.50453125 -143.375 73.9375 C-148.41749245 75.89275218 -151.4872629 75.84628306 -156.875 75.0625 C-161.42378652 74.53884479 -161.42378652 74.53884479 -165.453125 76.29296875 C-167.26538536 78.4143296 -168.80224687 80.63349016 -170.375 82.9375 C-171.85210974 84.62448684 -173.35326425 86.29065511 -174.875 87.9375 C-179.76867925 93.36578286 -184.59358389 98.84522266 -189.3359375 104.40625 C-189.86662842 105.02790039 -190.39731934 105.64955078 -190.9440918 106.29003906 C-192.00186347 107.53019617 -193.05808385 108.77167854 -194.11254883 110.01464844 C-194.6052124 110.5924707 -195.09787598 111.17029297 -195.60546875 111.765625 C-196.31050537 112.59344482 -196.31050537 112.59344482 -197.02978516 113.43798828 C-198.375 114.9375 -198.375 114.9375 -200.78515625 117.1328125 C-201.57212891 118.02613281 -201.57212891 118.02613281 -202.375 118.9375 C-201.73220157 122.33242925 -201.73220157 122.33242925 -200.9765625 124.66796875 C-199.22677507 131.26943952 -199.86995124 137.67048949 -202.91015625 143.76171875 C-206.29397813 148.78782218 -210.86561878 152.59916335 -216.1875 155.4375 C-224.89902206 156.80401326 -232.80043645 156.86605479 -240.375 151.9375 C-245.63225494 147.88951618 -249.04819147 143.50046364 -250.375 136.9375 C-251.41821406 128.87867137 -249.78897371 122.38863028 -244.83203125 115.92578125 C-240.15313812 110.81861415 -235.49273974 108.2406114 -228.5625 107.73046875 C-224.32582773 107.66849615 -220.46300491 107.75312475 -216.375 108.9375 C-215.97410156 108.47601563 -215.57320312 108.01453125 -215.16015625 107.5390625 C-211.76388762 103.64221006 -208.33825467 99.77500003 -204.875 95.9375 C-202.18516569 92.95687279 -199.51189636 89.96504767 -196.875 86.9375 C-194.23810364 83.90995233 -191.56483431 80.91812721 -188.875 77.9375 C-188.12476563 77.09703125 -187.37453125 76.2565625 -186.6015625 75.390625 C-185.16781027 73.81098219 -183.70584747 72.25626891 -182.2109375 70.734375 C-181.56382812 70.05890625 -180.91671875 69.3834375 -180.25 68.6875 C-179.37988281 67.81351563 -179.37988281 67.81351563 -178.4921875 66.921875 C-176.85444334 64.01287488 -177.6677728 62.14359663 -178.375 58.9375 C-179.12066749 49.94688052 -179.00068678 42.32970678 -173.375 34.9375 C-167.89153646 29.4310931 -162.23607646 27.24887713 -154.5 26.625 C-146.96935905 26.85850825 -140.60072288 29.47424426 -135.375 34.9375 C-131.54648718 40.73733379 -129.20948933 45.68277433 -129.3125 52.6875 C-129.32152344 53.48671875 -129.33054687 54.2859375 -129.33984375 55.109375 C-129.35144531 55.71265625 -129.36304688 56.3159375 -129.375 56.9375 C-128.67012451 57.18838379 -127.96524902 57.43926758 -127.23901367 57.69775391 C-124.04611716 59.07986357 -121.41984114 60.80614823 -118.55078125 62.7734375 C-117.42904815 63.51631053 -116.30595622 64.25713508 -115.18164062 64.99609375 C-113.42852245 66.15075991 -111.68590087 67.31361348 -109.96313477 68.51318359 C-103.33664847 73.44906877 -103.33664847 73.44906877 -95.53808594 74.53149414 C-93.04473819 73.47728346 -90.74775566 72.23450988 -88.375 70.9375 C-84.9140625 70.51171875 -84.9140625 70.51171875 -82 70.625 C-81.02289063 70.64949219 -80.04578125 70.67398438 -79.0390625 70.69921875 C-76.375 70.9375 -76.375 70.9375 -74.45588684 71.65835571 C-72.2826226 72.18322256 -72.2826226 72.18322256 -70.44462585 70.64877319 C-69.44082634 69.65546494 -69.44082634 69.65546494 -68.41674805 68.64208984 C-67.65303391 67.8973642 -66.88931976 67.15263855 -66.10246277 66.38534546 C-64.88191948 65.15432602 -64.88191948 65.15432602 -63.63671875 63.8984375 C-62.79655716 63.06543121 -61.95639557 62.23242493 -61.09077454 61.37417603 C-59.31525537 59.60645215 -57.54614422 57.83227245 -55.78295898 56.05224609 C-53.07509823 53.32518754 -50.33926315 50.62866627 -47.59960938 47.93359375 C-45.88103894 46.21531369 -44.1641827 44.49531709 -42.44921875 42.7734375 C-41.21349373 41.56063614 -41.21349373 41.56063614 -39.95280457 40.32333374 C-39.20485123 39.55969513 -38.45689789 38.79605652 -37.6862793 38.00927734 C-37.02105759 37.34229828 -36.35583588 36.67531921 -35.67045593 35.98812866 C-34.10282001 33.97791632 -34.10282001 33.97791632 -34.65315247 31.38735962 C-34.89136215 30.57890594 -35.12957184 29.77045227 -35.375 28.9375 C-36.50647267 13.4122111 -36.50647267 13.4122111 -31.375 6.9375 C-23.019604 -2.10039121 -11.44198423 -5.22914212 0 0 Z M-17.75 16.5 C-19.92726285 19.76589428 -20.375 22.01733866 -20.375 25.9375 C-18.46766488 29.44699663 -17.22361588 30.64860949 -13.4375 31.9375 C-9.77207859 31.9375 -8.24443977 31.16928648 -5.375 28.9375 C-3.03515558 26.06101775 -3.03515558 26.06101775 -3.5 22.5 C-4.46265039 18.58063768 -5.0186585 17.14561941 -8.375 14.9375 C-12.28951456 14.37828363 -14.4132229 14.30475191 -17.75 16.5 Z M-159.25 45.5 C-161.82748068 48.45652195 -162.375 50.02717888 -162.375 53.9375 C-160.77088152 57.46656067 -159.63340638 58.76522908 -156.375 60.9375 C-152.33878195 61.55170709 -150.85388959 61.28105123 -147.5 58.875 C-145.11692142 56.0473316 -145.11692142 56.0473316 -144.8125 52.375 C-145.13244333 48.95489386 -145.13244333 48.95489386 -146.9375 46.5625 C-151.19951161 43.72115892 -154.67946236 43.01601215 -159.25 45.5 Z M-90.375 91.9375 C-91.60139835 95.54004515 -91.70094514 97.18267968 -90.1875 100.6875 C-88.26471429 103.0744064 -87.30859496 104.09933001 -84.375 104.9375 C-80.8737473 104.79161447 -78.89884992 104.29592363 -76 102.3125 C-73.69582516 98.94485985 -73.74372515 96.93557408 -74.375 92.9375 C-76.82500447 89.55072911 -78.23892446 88.15051416 -82.375 87.375 C-86.14491795 88.08185962 -87.77918092 89.11918215 -90.375 91.9375 Z M-230.25 125.4375 C-233.02339572 128.70031849 -233.44981382 130.67311227 -233.375 134.9375 C-232.03384601 137.94729883 -232.03384601 137.94729883 -229.375 139.9375 C-225.26046541 141.20926524 -223.34648295 141.44436067 -219.5 139.4375 C-216.72660428 136.17468151 -216.30018618 134.20188773 -216.375 129.9375 C-217.71615399 126.92770117 -217.71615399 126.92770117 -220.375 124.9375 C-224.48953459 123.66573476 -226.40351705 123.43063933 -230.25 125.4375 Z " fill="#000000" transform="translate(318.375,223.0625)"/>
<path d="M0 0 C1.27548706 -0.00287018 2.55097412 -0.00574036 3.8651123 -0.00869751 C6.55150454 -0.01073147 9.2370672 -0.00677958 11.92333984 0.00732422 C15.34261837 0.02441502 18.76119013 0.01455901 22.18044281 -0.00339317 C25.47448611 -0.01692567 28.76844743 -0.00741248 32.0625 0 C33.27836792 -0.00607269 34.49423584 -0.01214539 35.74694824 -0.0184021 C45.58613348 0.06240072 54.09619137 1.54424282 61.53125 8.3984375 C66.09220301 14.19208051 67.79638355 19.55941449 67.7265625 26.890625 C67.72011719 28.08945313 67.71367187 29.28828125 67.70703125 30.5234375 C67.68189453 32.3796875 67.68189453 32.3796875 67.65625 34.2734375 C67.64722656 35.53414062 67.63820313 36.79484375 67.62890625 38.09375 C67.60540808 41.1955079 67.57255334 44.29687402 67.53125 47.3984375 C68.15116444 47.39475033 68.77107887 47.39106316 69.40977859 47.38726425 C84.49092288 47.29894202 99.57198788 47.23274207 114.65332413 47.19118881 C121.94654882 47.17056002 129.23960092 47.14243365 136.53271484 47.09667969 C142.88911388 47.05682128 149.24538792 47.03100698 155.60190845 47.02208352 C158.96797072 47.01686697 162.3336754 47.00460041 165.69962311 46.97551727 C169.45654217 46.94658496 173.21271447 46.9424774 176.96972656 46.94433594 C178.64531395 46.92276428 178.64531395 46.92276428 180.35475159 46.90075684 C181.37836288 46.90625549 182.40197418 46.91175415 183.456604 46.91741943 C184.34521244 46.91373226 185.23382088 46.91004509 186.14935684 46.90624619 C189.31005598 47.55936896 190.51415037 48.93911422 192.53125 51.3984375 C193.09765625 53.3984375 193.09765625 53.3984375 193.09375 55.3984375 C193.11566406 56.0584375 193.13757813 56.7184375 193.16015625 57.3984375 C192.13553468 60.65686137 190.40744551 61.60738182 187.53125 63.3984375 C184.3279914 63.98383559 181.17045384 63.93398262 177.92149353 63.89964294 C176.94815821 63.90517734 175.97482288 63.91071174 174.97199255 63.91641384 C171.70755047 63.93003696 168.44387072 63.91504172 165.17944336 63.90014648 C162.84039484 63.90392902 160.50134857 63.90942851 158.16230774 63.91651917 C151.80707105 63.93049871 145.45210432 63.91928658 139.09688258 63.90280795 C133.12552279 63.89037692 127.15419072 63.89456662 121.18282241 63.89793766 C109.35157311 63.90381566 97.52043025 63.88964646 85.68920898 63.86499023 C74.20707205 63.84106417 62.72507731 63.83398814 51.24291992 63.84448242 C38.73995631 63.85588921 26.23705845 63.8578251 13.73409563 63.84338433 C7.11537028 63.83583488 0.49670187 63.83195672 -6.12202644 63.83788872 C-12.34284351 63.84265193 -18.56346314 63.83258384 -24.78424263 63.81093407 C-27.07077875 63.80535735 -29.35733381 63.80490896 -31.64387131 63.80988693 C-34.75812759 63.81581794 -37.87177578 63.80337633 -40.98597717 63.78611755 C-42.35245277 63.79513262 -42.35245277 63.79513262 -43.74653393 63.80432981 C-49.80384584 63.7430256 -49.80384584 63.7430256 -53.00282955 62.085145 C-55.38133214 59.34840839 -55.40756485 56.94717632 -55.46875 53.3984375 C-54.12312601 50.45088018 -53.38320456 48.85566478 -50.46875 47.3984375 C-47.91717345 47.326764 -45.39402029 47.30535308 -42.84375 47.3359375 C-41.78414062 47.34270508 -41.78414062 47.34270508 -40.703125 47.34960938 C-38.95829725 47.36139875 -37.213513 47.37933426 -35.46875 47.3984375 C-35.50802612 46.25012451 -35.50802612 46.25012451 -35.5480957 45.07861328 C-35.65297722 41.56043589 -35.71736499 38.04258868 -35.78125 34.5234375 C-35.82314453 33.31945312 -35.86503906 32.11546875 -35.90820312 30.875 C-36.0300725 21.90541388 -34.66477627 15.04985058 -28.53637695 8.25634766 C-20.44004325 0.25897519 -10.88119887 -0.05434651 0 0 Z M-18.46875 20.3984375 C-22.18306878 27.08171907 -22.18306878 27.08171907 -20.46875 47.3984375 C3.29125 47.3984375 27.05125 47.3984375 51.53125 47.3984375 C54.0919876 25.16961434 54.0919876 25.16961434 46.53125 17.3984375 C43.47561803 16.37989351 41.34623672 16.25391865 38.14526367 16.22143555 C37.04369431 16.20860031 35.94212494 16.19576508 34.80717468 16.18254089 C33.61654922 16.17515396 32.42592377 16.16776703 31.19921875 16.16015625 C29.97471512 16.1520845 28.75021149 16.14401276 27.48860168 16.13569641 C24.89532894 16.12185723 22.30203799 16.11113434 19.70874023 16.10327148 C15.74492889 16.08605123 11.78194985 16.0421607 7.81835938 15.99804688 C5.2994853 15.98792062 2.78060414 15.97940431 0.26171875 15.97265625 C-0.92283401 15.95514816 -2.10738678 15.93764008 -3.32783508 15.91960144 C-11.71341874 15.94094744 -11.71341874 15.94094744 -18.46875 20.3984375 Z " fill="#000000" transform="translate(131.46875,124.6015625)"/>
<path d="M0 0 C1.18142578 -0.0238678 1.18142578 -0.0238678 2.38671875 -0.04821777 C3.64935547 -0.0485199 3.64935547 -0.0485199 4.9375 -0.04882812 C5.81019531 -0.05644165 6.68289063 -0.06405518 7.58203125 -0.07189941 C9.4244501 -0.08268969 11.26693006 -0.08555787 13.109375 -0.08105469 C15.92811871 -0.08008136 18.74414859 -0.12173287 21.5625 -0.16601562 C23.35416099 -0.17122208 25.14583144 -0.17391083 26.9375 -0.17382812 C27.77925781 -0.19022339 28.62101562 -0.20661865 29.48828125 -0.22351074 C30.27589844 -0.21420532 31.06351562 -0.2048999 31.875 -0.1953125 C32.56464844 -0.19736694 33.25429688 -0.19942139 33.96484375 -0.20153809 C37.08244041 0.78062061 38.14858562 2.75396583 39.9375 5.41992188 C40.43807125 8.30412388 40.43807125 8.30412388 40.43870544 11.53700256 C40.44853958 12.76656174 40.45837372 13.99612091 40.46850586 15.26293945 C40.45913481 16.61743443 40.44935553 17.97192663 40.43920898 19.32641602 C40.44299378 20.7590742 40.44849514 22.19172873 40.45558167 23.62437439 C40.46953165 27.50867646 40.45837058 31.39253537 40.44187045 35.27681279 C40.42801138 39.34286544 40.4344809 43.40889258 40.43800354 47.47496033 C40.44070468 54.30182023 40.42723734 61.12850422 40.40405273 67.95532227 C40.37743288 75.84831248 40.37569959 83.74100877 40.3874411 91.63402849 C40.39821885 99.22823476 40.39203254 106.82233469 40.37788582 114.41653252 C40.37212704 117.64812165 40.3722078 120.87963294 40.37695122 124.11122322 C40.38172239 127.91572568 40.37161383 131.71990611 40.34999657 135.52434731 C40.34443078 136.92074752 40.34396152 138.31717869 40.34894943 139.71358109 C40.3549022 141.61900284 40.34056391 143.52445588 40.32518005 145.42982483 C40.32275016 146.49629777 40.32032026 147.56277071 40.31781673 148.66156101 C39.88356053 151.81113403 39.1544567 153.16984426 36.9375 155.41992188 C33.18174431 156.67184044 29.64191468 156.62103543 25.7265625 156.65820312 C24.92141205 156.66627487 24.1162616 156.67434662 23.28671265 156.68266296 C21.58374168 156.69648488 19.88074323 156.70721549 18.17773438 156.71508789 C15.57889206 156.73231323 12.9813183 156.77621575 10.3828125 156.8203125 C8.72657183 156.83043901 7.07032038 156.83895525 5.4140625 156.84570312 C4.63995026 156.86321121 3.86583801 156.8807193 3.06826782 156.89875793 C-0.45183109 156.88466434 -2.7371483 156.61798545 -5.76801968 154.77288914 C-8.6805907 151.78607587 -8.68847468 150.42375333 -8.69068909 146.30247498 C-8.70967003 144.42016678 -8.70967003 144.42016678 -8.72903442 142.49983215 C-8.71771849 141.11178177 -8.70589102 139.72373548 -8.69360352 138.33569336 C-8.69874227 136.87200045 -8.70602322 135.40831373 -8.71528625 133.94464111 C-8.73381299 129.97143003 -8.72085488 125.9988893 -8.70119596 122.02570605 C-8.68482147 117.86975483 -8.69362052 113.71384647 -8.69871521 109.55787659 C-8.70323703 102.57957232 -8.68735979 95.60153603 -8.65942383 88.62329102 C-8.62735883 80.55130863 -8.62739212 72.47980925 -8.6446386 64.40779251 C-8.66049153 56.64643947 -8.65377895 48.8852638 -8.63670158 41.12391853 C-8.62982253 37.81891227 -8.63087218 34.51404781 -8.63824654 31.2090435 C-8.64589699 27.31910946 -8.6338247 23.42972647 -8.60639763 19.53988647 C-8.59950001 18.11082152 -8.59943059 16.68170523 -8.60661316 15.25264168 C-8.61527463 13.30521735 -8.59695431 11.35772816 -8.5771637 9.41038513 C-8.57295331 7.77416026 -8.57295331 7.77416026 -8.56865788 6.10488033 C-8.0625 3.41992188 -8.0625 3.41992188 -6.15362453 1.5701685 C-3.88699204 0.32338175 -2.56675292 0.03133478 0 0 Z M7.9375 16.41992188 C7.9375 57.33992188 7.9375 98.25992188 7.9375 140.41992188 C13.2175 140.41992188 18.4975 140.41992188 23.9375 140.41992188 C23.9375 99.49992187 23.9375 58.57992187 23.9375 16.41992188 C18.6575 16.41992188 13.3775 16.41992188 7.9375 16.41992188 Z " fill="#000000" transform="translate(291.0625,297.580078125)"/>
<path d="M0 0 C0.85332916 -0.00807175 1.70665833 -0.01614349 2.58584595 -0.02445984 C4.39314746 -0.03830023 6.2004751 -0.04902259 8.0078125 -0.05688477 C10.77133663 -0.07410827 13.53366766 -0.11799467 16.296875 -0.16210938 C18.05207453 -0.17223541 19.80728423 -0.18075179 21.5625 -0.1875 C22.38865814 -0.20500809 23.21481628 -0.22251617 24.06600952 -0.24055481 C29.81534675 -0.2188249 29.81534675 -0.2188249 32.90478516 2.13989258 C35.16149044 5.27745031 35.54097843 6.99277204 35.55450439 10.81098938 C35.56021454 11.77414062 35.56592468 12.73729187 35.57180786 13.72962952 C35.57292572 14.78991867 35.57404358 15.85020782 35.57519531 16.94262695 C35.58264267 18.61350876 35.58264267 18.61350876 35.59024048 20.31814575 C35.60488971 24.01679087 35.6116688 27.71539309 35.6171875 31.4140625 C35.62293679 33.97755434 35.62869455 36.54104616 35.63446045 39.10453796 C35.64363279 43.79720929 35.64992982 48.48986339 35.6529572 53.18254215 C35.6574363 60.08759017 35.67497624 66.99244007 35.7039578 73.89742786 C35.72818973 79.87857892 35.73590207 85.85963636 35.73763275 91.84084129 C35.74066368 94.38498195 35.74870694 96.92912168 35.76181793 99.47323036 C35.7788429 103.0308908 35.77700654 106.58806748 35.77050781 110.14575195 C35.78432999 111.72707664 35.78432999 111.72707664 35.7984314 113.34034729 C35.74593949 122.49823925 35.74593949 122.49823925 32.4140625 126.23828125 C28.654588 127.49143942 25.12124972 127.42000765 21.203125 127.44140625 C19.99539932 127.44995636 19.99539932 127.44995636 18.76327515 127.4586792 C17.06029572 127.46812061 15.3572981 127.47465977 13.65429688 127.47851562 C11.05566377 127.48821926 8.45782247 127.51924909 5.859375 127.55078125 C4.20312969 127.55731192 2.54687873 127.56256214 0.890625 127.56640625 C0.11651276 127.57875305 -0.65759949 127.59109985 -1.45516968 127.6038208 C-5.99444584 127.58517747 -9.03074811 127.15382691 -12.5859375 124.23828125 C-13.54623376 121.35739248 -13.71576454 119.53847589 -13.72637939 116.5453186 C-13.73208954 115.58079269 -13.73779968 114.61626678 -13.74368286 113.62251282 C-13.74480072 112.56581894 -13.74591858 111.50912506 -13.74707031 110.42041016 C-13.75203522 109.30634293 -13.75700012 108.1922757 -13.76211548 107.04444885 C-13.77674594 103.35124092 -13.78354024 99.65807593 -13.7890625 95.96484375 C-13.79481277 93.40278115 -13.80057052 90.84071857 -13.80633545 88.27865601 C-13.81550352 83.59082456 -13.82180311 78.90301033 -13.8248322 74.21517146 C-13.82931319 67.31862351 -13.84686466 60.42227373 -13.8758328 53.52578604 C-13.90006342 47.54943833 -13.90777694 41.57318431 -13.90950775 35.59678268 C-13.91253836 33.0554331 -13.92058052 30.51408444 -13.93369293 27.97276688 C-13.95071697 24.42000493 -13.94888192 20.86772741 -13.94238281 17.31494141 C-13.9515976 16.26229599 -13.96081238 15.20965057 -13.9703064 14.12510681 C-13.91865475 5.12721288 -13.91865475 5.12721288 -10.5859375 1.23828125 C-7.29055696 -0.40940902 -3.62418688 0.03224694 0 0 Z M2.4140625 16.23828125 C2.4140625 47.58828125 2.4140625 78.93828125 2.4140625 111.23828125 C8.0240625 111.23828125 13.6340625 111.23828125 19.4140625 111.23828125 C19.4140625 79.88828125 19.4140625 48.53828125 19.4140625 16.23828125 C13.8040625 16.23828125 8.1940625 16.23828125 2.4140625 16.23828125 Z " fill="#000000" transform="translate(153.5859375,326.76171875)"/>
<path d="M0 0 C0.75934341 -0.00570007 1.51868683 -0.01140015 2.30104065 -0.01727295 C3.90388607 -0.02669909 5.50675066 -0.03324743 7.10961914 -0.03710938 C9.55454363 -0.04682785 11.99863149 -0.07787775 14.44335938 -0.109375 C16.00390128 -0.11590459 17.56444917 -0.12115524 19.125 -0.125 C20.21584145 -0.1435202 20.21584145 -0.1435202 21.32872009 -0.16241455 C25.76475126 -0.14304849 28.69964106 0.31092616 32.12890625 3.203125 C34.371805 7.44541232 34.413375 11.51308055 34.38769531 16.20288086 C34.39119995 16.99376602 34.39470459 17.78465118 34.39831543 18.59950256 C34.40709524 21.20574808 34.40129631 23.81172061 34.39453125 26.41796875 C34.39587911 28.23490959 34.39782066 30.05185007 34.40032959 31.86878967 C34.40327589 35.6741988 34.3989996 39.47951393 34.38964844 43.28491211 C34.37826234 48.15501114 34.38481117 53.02488952 34.39679337 57.89498043 C34.40403224 61.64654695 34.40171458 65.39806147 34.39653778 69.14962959 C34.39520647 70.94492176 34.39683079 72.7402187 34.40149689 74.53550529 C34.40659455 77.04845496 34.39880618 79.56105116 34.38769531 82.07397461 C34.39174377 82.81130829 34.39579224 83.54864197 34.39996338 84.30831909 C34.36460024 88.64109302 33.8125558 92.20172936 32.12890625 96.203125 C28.69658545 99.10209749 24.09932602 98.50895143 19.8203125 98.50390625 C19.016577 98.50819138 18.21284149 98.5124765 17.38475037 98.51689148 C15.68774353 98.52262492 13.99071213 98.5231423 12.29370117 98.51879883 C9.70383581 98.51564016 7.11511474 98.53910469 4.52539062 98.56445312 C2.87369935 98.56672643 1.22200502 98.56742947 -0.4296875 98.56640625 C-1.20066269 98.575616 -1.97163788 98.58482574 -2.76597595 98.59431458 C-7.30639058 98.55543885 -10.2709132 98.03791624 -13.87109375 95.203125 C-15.47721683 91.99087884 -15.02735239 88.49059103 -15.03222656 84.96142578 C-15.03719147 84.10924469 -15.04215637 83.2570636 -15.04727173 82.37905884 C-15.06190974 79.55217693 -15.06869796 76.72535113 -15.07421875 73.8984375 C-15.07996871 71.93789671 -15.08572647 69.97735593 -15.0914917 68.01681519 C-15.10200626 63.90264625 -15.10784599 59.78849689 -15.11132812 55.67431641 C-15.11681477 50.3992153 -15.14084454 45.12437207 -15.16930008 39.84935188 C-15.1879116 35.79848471 -15.19313126 31.74767985 -15.194664 27.69677353 C-15.19769426 25.75188664 -15.20573532 23.80700095 -15.21884918 21.86215591 C-15.23587916 19.14244136 -15.23403698 16.42335933 -15.22753906 13.70361328 C-15.23675385 12.89827148 -15.24596863 12.09292969 -15.25546265 11.26318359 C-15.23067139 7.95545573 -15.11076835 5.62368331 -13.45478821 2.71792603 C-9.8077102 -0.77049781 -4.76861416 0.02779016 0 0 Z M1.12890625 16.203125 C1.12890625 37.983125 1.12890625 59.763125 1.12890625 82.203125 C6.40890625 82.203125 11.68890625 82.203125 17.12890625 82.203125 C17.12890625 60.423125 17.12890625 38.643125 17.12890625 16.203125 C11.84890625 16.203125 6.56890625 16.203125 1.12890625 16.203125 Z " fill="#000000" transform="translate(225.87109375,355.796875)"/>
<path d="M0 0 C9.27746849 6.39607042 13.94323951 13.99872296 16 25 C17.21595705 34.09469246 13.95594485 42.64556984 8.734375 49.9609375 C3.23192298 56.4300365 -4.51491095 60.96523304 -13 62 C-23.26993765 62.69626696 -32.11535862 59.65881422 -40 53 C-46.54613601 46.35180842 -50.13814369 37.68107653 -50.4375 28.375 C-50.04416203 19.44242161 -46.85687469 11.77560013 -41 5 C-29.24928665 -5.15739629 -13.86709909 -7.25355952 0 0 Z M-31.80078125 20.28125 C-34.5066104 24.15931133 -34.46690684 28.45198151 -34 33 C-32.18007984 38.15644045 -29.43794532 40.86733271 -25 44 C-20.29502213 46.25020681 -15.98499508 46.49164911 -11 45 C-6.4644283 42.65993412 -3.00075086 39.77957151 -1 35 C0.38278777 28.97499613 0.27986992 24.37411119 -3 19 C-7.15619324 14.48112009 -10.5525319 12.16048971 -16.8125 11.75 C-23.76184973 11.88974926 -27.52258192 15.16088545 -31.80078125 20.28125 Z " fill="#000000" transform="translate(164,54)"/>
<path d="M0 0 C0.80771347 -0.01268417 1.61542694 -0.02536835 2.44761658 -0.03843689 C3.75080589 -0.03403343 3.75080589 -0.03403343 5.08032227 -0.02954102 C5.97662857 -0.03478287 6.87293488 -0.04002472 7.79640198 -0.04542542 C9.69189417 -0.05184837 11.5874262 -0.05050508 13.48291016 -0.04199219 C16.38264028 -0.03348858 19.28039655 -0.06222853 22.17993164 -0.09399414 C24.02172793 -0.0956064 25.8635277 -0.09502814 27.70532227 -0.09204102 C29.00547523 -0.10889198 29.00547523 -0.10889198 30.33189392 -0.12608337 C31.14275955 -0.11670242 31.95362518 -0.10732147 32.7890625 -0.09765625 C33.49949203 -0.09749008 34.20992157 -0.09732391 34.94187927 -0.09715271 C37.91101828 0.64052255 39.10859636 2.0092474 40.95922852 4.40405273 C41.46043396 6.83227539 41.46043396 6.83227539 41.4609375 9.56811523 C41.47031845 10.59598145 41.4796994 11.62384766 41.48936462 12.68286133 C41.47813065 13.78710449 41.46689667 14.89134766 41.45532227 16.02905273 C41.4567775 17.16810059 41.45823273 18.30714844 41.45973206 19.48071289 C41.45807261 21.88812824 41.44650637 24.29555415 41.42578125 26.70288086 C41.39683735 30.3901877 41.40517027 34.07605628 41.41821289 37.76342773 C41.41197524 40.1019764 41.4035841 42.44052051 41.39282227 44.77905273 C41.3957579 45.8832959 41.39869354 46.98753906 41.40171814 48.12524414 C41.38903397 49.15311035 41.37634979 50.18097656 41.36328125 51.23999023 C41.35787827 52.14281738 41.35247528 53.04564453 41.34690857 53.97583008 C40.87895425 56.90684824 39.99809691 58.27012561 37.95922852 60.40405273 C34.20347282 61.6559713 30.6636432 61.60516629 26.74829102 61.64233398 C25.94314056 61.65040573 25.13799011 61.65847748 24.30844116 61.66679382 C22.6054702 61.68061574 20.90247175 61.69134635 19.19946289 61.69921875 C16.60062057 61.71644409 14.00304682 61.76034661 11.40454102 61.80444336 C9.74830035 61.81456987 8.09204889 61.82308611 6.43579102 61.82983398 C5.66167877 61.84734207 4.88756653 61.86485016 4.08999634 61.88288879 C0.70723553 61.86934507 -1.91515816 61.4573805 -5.03344727 60.13354492 C-8.36261577 55.60665318 -7.71236952 50.7721844 -7.63452148 45.30639648 C-7.63456177 44.12058487 -7.63460205 42.93477325 -7.63464355 41.71302795 C-7.6292835 39.20723162 -7.61168041 36.70143599 -7.58276367 34.19580078 C-7.54089172 30.35258848 -7.54169573 26.51112661 -7.54858398 22.66772461 C-7.53809258 20.23476968 -7.52515475 17.80182381 -7.50952148 15.36889648 C-7.50932007 14.21574448 -7.50911865 13.06259247 -7.50891113 11.87449646 C-7.49299927 10.80651321 -7.4770874 9.73852997 -7.46069336 8.63818359 C-7.45227417 7.69760605 -7.44385498 6.7570285 -7.43518066 5.78794861 C-7.04077148 3.40405273 -7.04077148 3.40405273 -5.76707458 1.60217285 C-3.67499738 0.15019157 -2.53232212 0.0192805 0 0 Z M8.95922852 16.40405273 C8.95922852 25.97405273 8.95922852 35.54405273 8.95922852 45.40405273 C14.23922852 45.40405273 19.51922852 45.40405273 24.95922852 45.40405273 C24.95922852 35.83405273 24.95922852 26.26405273 24.95922852 16.40405273 C19.67922852 16.40405273 14.39922852 16.40405273 8.95922852 16.40405273 Z " fill="#000000" transform="translate(77.040771484375,392.595947265625)"/>
<path d="M0 0 C1.78550011 -0.0129007 1.78550011 -0.0129007 3.60707092 -0.02606201 C4.91983002 -0.03032196 6.23258911 -0.03458191 7.58512878 -0.03897095 C8.97631028 -0.04687125 10.36748972 -0.05514016 11.75866699 -0.06375122 C16.33385763 -0.08997873 20.90905746 -0.10527916 25.48429871 -0.11953735 C27.05859063 -0.12489666 28.6328825 -0.13027416 30.2071743 -0.13566971 C36.75509886 -0.15729914 43.30302093 -0.1760364 49.85097218 -0.1872921 C59.23887669 -0.20353509 68.62636755 -0.23672018 78.01411611 -0.29369295 C84.61290618 -0.33237636 91.21158553 -0.35192284 97.81048602 -0.35721266 C101.7528208 -0.36086826 105.69471449 -0.37291078 109.63692665 -0.4053154 C113.34625901 -0.43536862 117.05488274 -0.44171828 120.76431084 -0.42993164 C122.77323406 -0.42960537 124.78211336 -0.45408921 126.7908783 -0.47930908 C136.6085465 -0.41118381 136.6085465 -0.41118381 139.71530151 2.50286865 C141.80141992 5.78115984 142.11787643 7.33731895 141.40226746 11.15390015 C139.41802125 14.30573025 138.38620669 15.92783714 134.68796539 16.77751923 C133.1194923 16.77645046 133.1194923 16.77645046 131.51933289 16.77536011 C130.31639084 16.78656891 129.11344879 16.79777771 127.87405396 16.80932617 C125.89931847 16.7894313 125.89931847 16.7894313 123.88468933 16.76913452 C122.48173349 16.77263614 121.07878162 16.77829519 119.67584229 16.78594971 C115.8678172 16.80020195 112.06051384 16.78313267 108.25255775 16.75966454 C104.26791778 16.73956283 100.28330797 16.74543473 96.29862976 16.74777222 C89.6069803 16.74771864 82.91561313 16.72795739 76.2240448 16.69589233 C68.48727605 16.65899907 60.75087712 16.65021666 53.01403189 16.65718985 C45.57198688 16.66349479 38.13006873 16.65274075 30.68804932 16.63322449 C27.52066236 16.62504903 24.35334023 16.6223412 21.1859436 16.62391663 C17.45612467 16.62479549 13.72665727 16.61057927 9.99693108 16.58469009 C7.97480861 16.57410961 5.95262609 16.57820119 3.93048096 16.58270264 C2.72753891 16.57135284 1.52459686 16.56000305 0.28520203 16.54830933 C-0.7604467 16.54458061 -1.80609543 16.5408519 -2.88343048 16.53701019 C-6.01069412 16.0956127 -7.37324674 15.3723036 -9.59773254 13.15390015 C-10.70146633 9.18045853 -11.01316837 7.06390243 -9.28523254 3.27890015 C-6.47560822 -0.25914529 -4.34120027 0.02328651 0 0 Z " fill="#000000" transform="translate(86.59773254394531,210.84609985351563)"/>
</svg>
