<?xml version="1.0" encoding="UTF-8"?>
<svg version="1.1" xmlns="http://www.w3.org/2000/svg" width="512" height="512">
<path d="M0 0 C24.47150729 3.78448594 24.47150729 3.78448594 28.6940918 7.82958984 C30.46370662 11.05996064 30.57721225 14.12429162 30.72265625 17.7265625 C30.76289413 18.46417313 30.80313202 19.20178375 30.84458923 19.96174622 C30.97059927 22.35292801 31.07582518 24.74448105 31.1796875 27.13671875 C31.26029895 28.77183988 31.34151769 30.40693119 31.42333984 32.04199219 C31.98659783 43.76310178 32.24008961 55.46518537 31.9921875 67.19921875 C32.54688721 67.369375 33.10158691 67.53953125 33.6730957 67.71484375 C39.11459297 69.44672649 44.11654604 71.57132484 49.1796875 74.19921875 C49.85193359 74.54210937 50.52417969 74.885 51.21679688 75.23828125 C52.47437614 75.87992832 53.73068727 76.5240736 54.98510742 77.171875 C57.64473295 78.53323058 60.31856944 79.86559738 62.9921875 81.19921875 C63.71583496 80.71678711 64.43948242 80.23435547 65.18505859 79.73730469 C66.20164551 79.05958008 67.21823242 78.38185547 68.265625 77.68359375 C68.81656326 77.31605988 69.36750153 76.948526 69.93513489 76.56985474 C72.98345153 74.53664867 76.03358727 72.50626478 79.0871582 70.48095703 C84.60226415 66.81937819 90.102406 63.14929528 95.51171875 59.33203125 C96.71272217 58.49526855 96.71272217 58.49526855 97.93798828 57.64160156 C99.38846542 56.62743654 100.82908485 55.59896062 102.25732422 54.55371094 C107.05221875 51.23004491 110.15061348 50.2449022 115.9921875 51.19921875 C118.64671933 52.67488024 120.73541941 54.55124184 122.9296875 56.63671875 C123.53449951 57.18513428 124.13931152 57.7335498 124.76245117 58.29858398 C126.52663563 59.911304 128.26218929 61.54997449 129.9921875 63.19921875 C130.84554688 63.99585937 131.69890625 64.7925 132.578125 65.61328125 C134.79177051 67.74925499 136.90579561 69.93896087 138.9921875 72.19921875 C140.25289063 73.56240234 140.25289063 73.56240234 141.5390625 74.953125 C142.36921875 75.90058594 143.199375 76.84804687 144.0546875 77.82421875 C144.80878906 78.68273437 145.56289063 79.54125 146.33984375 80.42578125 C148.49428522 84.04198324 148.56539591 86.04232939 147.9921875 90.19921875 C146.76004142 92.73163436 145.55651996 94.8315627 143.9921875 97.13671875 C143.56083496 97.79986084 143.12948242 98.46300293 142.68505859 99.14624023 C141.13909704 101.50985431 139.56685553 103.85463362 137.9921875 106.19921875 C136.62976243 108.24319243 135.26781034 110.28748144 133.90625 112.33203125 C131.78692434 115.51319118 129.66435186 118.69177114 127.52734375 121.86108398 C126.23007676 123.78937236 124.94834155 125.7282337 123.68505859 127.67895508 C121.9921875 130.19921875 121.9921875 130.19921875 120.41259766 132.0222168 C118.84534375 133.78454696 118.84534375 133.78454696 117.9921875 137.19921875 C119.43188141 141.76776809 121.72858819 145.75205335 124.1171875 149.88671875 C125.04917969 151.57764648 125.04917969 151.57764648 126 153.30273438 C127.15585236 155.39647125 128.32405136 157.48347226 129.50830078 159.5612793 C130.73903272 161.74917969 131.88027634 163.95013168 132.9921875 166.19921875 C134.22670654 166.25456787 135.46122559 166.30991699 136.7331543 166.36694336 C141.37208432 166.57547914 146.01088689 166.78674485 150.6496582 166.9987793 C152.64636993 167.08967786 154.64311421 167.17986438 156.63989258 167.26928711 C162.27502279 167.52190126 167.90863966 167.79397849 173.54193115 168.08465576 C175.73217148 168.18706157 177.920003 168.25704366 180.11181641 168.31298828 C188.11470483 168.63689591 188.11470483 168.63689591 192.16796875 171.234375 C194.47424166 174.98268579 195.3859332 178.34100042 196.1796875 182.63671875 C196.33985352 183.43368164 196.50001953 184.23064453 196.66503906 185.05175781 C197.13238709 187.43037844 197.56784137 189.81259017 197.9921875 192.19921875 C198.22035156 193.45347656 198.44851563 194.70773438 198.68359375 196 C199.95326498 203.83999788 201.22119298 212.30442085 199.9921875 220.19921875 C197.28508884 223.44500885 194.7940504 224.95497194 190.85644531 226.39746094 C189.83568909 226.7775531 188.81493286 227.15764526 187.76324463 227.54925537 C186.66832703 227.94421204 185.57340942 228.3391687 184.4453125 228.74609375 C183.318974 229.16215881 182.1926355 229.57822388 181.03216553 230.00689697 C177.43923203 231.33140927 173.84088878 232.64046912 170.2421875 233.94921875 C167.80301299 234.84534111 165.3642061 235.74246475 162.92578125 236.640625 C156.95213129 238.83845289 150.97396868 241.02362575 144.9921875 243.19921875 C144.34572541 247.38662193 143.70013015 251.57415832 143.0546875 255.76171875 C142.87228516 256.94314453 142.68988281 258.12457031 142.50195312 259.34179688 C142.15006148 261.62589353 141.802924 263.91072886 141.46107483 266.1963501 C141.18470251 267.96630575 140.88625304 269.73346965 140.53782654 271.49066162 C139.84101837 274.90155817 139.84101837 274.90155817 141.12524414 278.01269531 C141.71168701 278.4506543 142.29812988 278.88861328 142.90234375 279.33984375 C143.88231323 280.10119629 143.88231323 280.10119629 144.88208008 280.87792969 C145.59904053 281.39645508 146.31600098 281.91498047 147.0546875 282.44921875 C147.78260498 283.00641602 148.51052246 283.56361328 149.26049805 284.13769531 C150.76330587 285.28639231 152.27358565 286.42537691 153.79101562 287.5546875 C157.0099735 289.9596232 160.15401025 292.45600471 163.3046875 294.94921875 C164.44243599 295.84019163 165.58045193 296.73082311 166.71875 297.62109375 C183.83640119 311.05981813 183.83640119 311.05981813 184.52734375 316.11328125 C184.29847241 322.58183912 181.30436068 327.90025118 178.4296875 333.57421875 C177.91599609 334.63382812 177.40230469 335.6934375 176.87304688 336.78515625 C167.69113046 355.39992344 167.69113046 355.39992344 161.9921875 359.19921875 C155.08185499 360.28862321 148.51121953 358.27820868 141.9375 356.35546875 C140.91413544 356.06692017 139.89077087 355.77837158 138.83639526 355.4810791 C135.59341614 354.5647863 132.35521631 353.63283914 129.1171875 352.69921875 C125.85702663 351.76836209 122.59596614 350.84084404 119.33370972 349.9173584 C117.31011676 349.34356615 115.28786268 348.7650265 113.26712036 348.18127441 C112.35542084 347.92100464 111.44372131 347.66073486 110.50439453 347.39257812 C109.70325226 347.16163452 108.90210999 346.93069092 108.07669067 346.69274902 C105.86266042 346.08402265 105.86266042 346.08402265 102.9921875 346.19921875 C101.52710039 347.52408005 101.52710039 347.52408005 100.1171875 349.38671875 C96.67628373 353.50840348 92.98807181 357.29674155 89.1796875 361.07421875 C88.60428223 361.64551514 88.02887695 362.21681152 87.43603516 362.80541992 C85.95641173 364.27169566 84.47445159 365.73561253 82.9921875 367.19921875 C82.3321875 367.85921875 81.6721875 368.51921875 80.9921875 369.19921875 C81.16758057 369.82482697 81.34297363 370.45043518 81.52368164 371.09500122 C83.34963561 377.61382547 85.16474972 384.13559839 86.97363281 390.65917969 C87.64989838 393.09256864 88.32891293 395.52519537 89.01074219 397.95703125 C89.9909893 401.45505593 90.96127861 404.95571339 91.9296875 408.45703125 C92.23592041 409.54162628 92.54215332 410.62622131 92.85766602 411.74368286 C93.13795654 412.76428802 93.41824707 413.78489319 93.70703125 414.83642578 C94.08009399 416.17545456 94.08009399 416.17545456 94.46069336 417.54153442 C95.33112761 421.89405553 95.71106261 425.04918634 93.31835938 428.87695312 C90.91596146 431.27531679 88.75895011 432.75570862 85.7734375 434.35546875 C84.75765625 434.90332031 83.741875 435.45117188 82.6953125 436.015625 C81.63828125 436.57121094 80.58125 437.12679688 79.4921875 437.69921875 C78.46609375 438.25480469 77.44 438.81039063 76.3828125 439.3828125 C55.23052887 450.67643127 55.23052887 450.67643127 47.9921875 449.19921875 C43.65092533 445.30474171 40.0475454 440.772091 36.3671875 436.26171875 C35.75617188 435.51607666 35.14515625 434.77043457 34.515625 434.00219727 C30.63135093 429.24750188 26.79049513 424.46030382 22.9921875 419.63671875 C22.53908203 419.06695312 22.08597656 418.4971875 21.61914062 417.91015625 C19.7232648 415.50701321 17.93414856 413.10747978 16.296875 410.51953125 C14.96390151 408.41445289 13.87347079 406.82210614 11.9921875 405.19921875 C8.88802689 405.36420366 6.0449723 405.69934589 2.9921875 406.19921875 C1.13067629 406.45396406 -0.73132432 406.70515376 -2.59375 406.953125 C-5.51734211 407.35973042 -8.44041725 407.76983475 -11.36328125 408.18164062 C-12.30558594 408.31248047 -13.24789062 408.44332031 -14.21875 408.578125 C-15.49177979 408.75710327 -15.49177979 408.75710327 -16.79052734 408.93969727 C-19.0078125 409.19921875 -19.0078125 409.19921875 -22.0078125 409.19921875 C-22.18453995 409.81028976 -22.3612674 410.42136078 -22.54335022 411.0509491 C-24.302617 417.03670905 -26.2688813 422.90263305 -28.44140625 428.75 C-28.92021996 430.04275093 -28.92021996 430.04275093 -29.40870667 431.36161804 C-30.0783743 433.16467947 -30.74985577 434.9670682 -31.4230957 436.76879883 C-32.4480371 439.51902968 -33.45941531 442.27402107 -34.47070312 445.02929688 C-35.12677551 446.79067346 -35.78364862 448.55175205 -36.44140625 450.3125 C-36.73945663 451.1302742 -37.03750702 451.9480484 -37.34458923 452.79060364 C-41.1085023 462.74956365 -41.1085023 462.74956365 -46.0078125 465.19921875 C-55.81604929 465.26090577 -65.48061783 463.96472866 -75.1328125 462.32421875 C-76.58917114 462.08215698 -76.58917114 462.08215698 -78.07495117 461.83520508 C-91.38110909 459.45733362 -91.38110909 459.45733362 -94.64009094 454.93336487 C-96.07529238 452.06432299 -96.55789389 449.94858237 -96.89916992 446.77319336 C-97.01906784 445.71116196 -97.13896576 444.64913055 -97.26249695 443.55491638 C-97.37825577 442.4153096 -97.49401459 441.27570282 -97.61328125 440.1015625 C-97.74221268 438.91631485 -97.8711441 437.7310672 -98.00398254 436.50990295 C-98.27428658 434.00143822 -98.5386852 431.49233111 -98.79760742 428.98266602 C-99.19149377 425.17364724 -99.60488759 421.36714141 -100.02148438 417.56054688 C-100.2824166 415.11600966 -100.54221797 412.67135142 -100.80078125 410.2265625 C-100.98352852 408.53840675 -100.98352852 408.53840675 -101.16996765 406.81614685 C-101.49630794 403.61278062 -101.75437754 400.40905118 -102.0078125 397.19921875 C-102.13660797 396.16725372 -102.26540344 395.1352887 -102.39810181 394.072052 C-102.76588687 389.52461518 -102.81778639 386.46789657 -100.31614685 382.54953003 C-97.99875249 379.94156155 -95.56638892 377.56995132 -93.0078125 375.19921875 C-91.52520339 373.67946985 -90.0481832 372.15424602 -88.57714844 370.62329102 C-87.05159436 369.08465469 -85.5231886 367.54884143 -83.9921875 366.015625 C-83.17333069 365.19343979 -82.35447388 364.37125458 -81.51080322 363.52415466 C-79.79789236 361.80622626 -78.08366654 360.08960803 -76.36816406 358.37426758 C-73.7451639 355.74905951 -71.13029593 353.11592274 -68.515625 350.48242188 C-66.841635 348.80550113 -65.1671726 347.1290518 -63.4921875 345.453125 C-62.7150238 344.66877579 -61.93786011 343.88442657 -61.137146 343.0763092 C-60.4057843 342.34802414 -59.67442261 341.61973907 -58.92089844 340.86938477 C-58.28408142 340.23114273 -57.6472644 339.5929007 -56.9911499 338.93531799 C-52.61018249 335.10047164 -49.5201312 333.82653476 -43.703125 334.01171875 C-41.87865845 334.04990723 -41.87865845 334.04990723 -40.01733398 334.08886719 C-38.73544189 334.1252832 -37.4535498 334.16169922 -36.1328125 334.19921875 C-25.6181284 334.34670248 -16.15261066 334.1959558 -6.0078125 331.19921875 C-4.52667969 330.79896484 -4.52667969 330.79896484 -3.015625 330.390625 C11.59419362 326.03093111 25.99721209 318.37878234 36.69921875 307.4296875 C38.9921875 305.19921875 38.9921875 305.19921875 40.9921875 305.19921875 C41.25773437 304.61011719 41.52328125 304.02101563 41.796875 303.4140625 C43.02355576 301.14109521 44.3363109 299.62128524 46.1171875 297.76171875 C60.51565399 281.54103969 69.12189992 258.80505386 69.9921875 237.19921875 C70.03214844 236.45285156 70.07210938 235.70648438 70.11328125 234.9375 C70.92118002 206.18580832 59.52429935 180.31151251 40.19140625 159.46875 C22.01337417 140.70953749 -2.75592858 130.42625795 -28.69140625 128.99609375 C-58.40285438 128.62508711 -85.57606244 139.49348445 -107.08984375 160.16015625 C-112.16512767 165.27732927 -116.19032263 171.11019167 -120.0078125 177.19921875 C-120.55695313 178.07271973 -120.55695313 178.07271973 -121.1171875 178.96386719 C-129.64902645 192.88220229 -135.34830861 209.63875658 -135 226.05078125 C-134.98324219 227.3140625 -134.96648437 228.57734375 -134.94921875 229.87890625 C-134.90481406 232.51706751 -134.85268406 235.15510964 -134.79296875 237.79296875 C-134.77878906 239.05367187 -134.76460937 240.314375 -134.75 241.61328125 C-134.7279248 242.75748535 -134.70584961 243.90168945 -134.68310547 245.08056641 C-135.27435858 250.75926354 -138.70994174 254.15106352 -142.63110352 258.06542969 C-143.31456848 258.75174217 -143.31456848 258.75174217 -144.01184082 259.45191956 C-145.5069707 260.95072997 -147.0091349 262.44225917 -148.51171875 263.93359375 C-149.55675637 264.97743829 -150.60142352 266.02165383 -151.64573669 267.06622314 C-153.82902139 269.24794787 -156.01561234 271.42628376 -158.20483398 273.60205078 C-161.01336869 276.39354365 -163.81522275 279.19162699 -166.61486912 281.9920311 C-168.76865908 284.14554953 -170.92504224 286.29645499 -173.08231926 288.4464798 C-174.11676878 289.47774455 -175.15061146 290.50961837 -176.1838398 291.54210663 C-177.62468443 292.98078869 -179.06921146 294.41577999 -180.51391602 295.85058594 C-181.33537613 296.66823425 -182.15683624 297.48588257 -183.00318909 298.32830811 C-186.60968852 301.69424614 -189.31911869 301.36065131 -194.05795288 301.31048584 C-199.34429647 301.11108785 -204.58352497 300.53538828 -209.83984375 299.95703125 C-211.63200569 299.76438187 -211.63200569 299.76438187 -213.46037292 299.56784058 C-215.96923759 299.2964695 -218.47780609 299.02234755 -220.98608398 298.74560547 C-224.82506353 298.32369661 -228.66532328 297.91527953 -232.50585938 297.5078125 C-234.95060946 297.24169833 -237.39527419 296.97479864 -239.83984375 296.70703125 C-240.98572464 296.58611115 -242.13160553 296.46519104 -243.31221008 296.34060669 C-244.38069687 296.22063324 -245.44918365 296.10065979 -246.55004883 295.97705078 C-247.48585281 295.87490265 -248.4216568 295.77275452 -249.38581848 295.66751099 C-252.98236994 295.02516127 -255.99607104 294.14523222 -258.69140625 291.625 C-260.63590179 288.04181978 -261.2997194 284.36732848 -262.0703125 280.38671875 C-262.23950195 279.54302734 -262.40869141 278.69933594 -262.58300781 277.83007812 C-267.61742157 252.12449729 -267.61742157 252.12449729 -266.0078125 244.19921875 C-262.88024594 239.85492265 -258.40090038 238.46187547 -253.5703125 236.63671875 C-252.72154541 236.30736328 -251.87277832 235.97800781 -250.99829102 235.63867188 C-249.08971216 234.90093306 -247.17900385 234.16868804 -245.26660156 233.44091797 C-242.28280376 232.30399891 -239.30396672 231.15484072 -236.32649231 230.0014801 C-233.68919462 228.98113343 -231.04975064 227.96643646 -228.40963745 226.95339966 C-227.10214946 226.45140406 -225.79511972 225.94821325 -224.48855591 225.44381714 C-222.64147324 224.73215734 -220.79149173 224.02803533 -218.94140625 223.32421875 C-217.86947021 222.91429687 -216.79753418 222.504375 -215.69311523 222.08203125 C-213.0078125 221.19921875 -213.0078125 221.19921875 -210.0078125 221.19921875 C-209.95173828 219.96171875 -209.95173828 219.96171875 -209.89453125 218.69921875 C-209.46443837 211.14307711 -208.55068875 203.93641498 -207.02416992 196.53125 C-206.3648424 193.30588001 -206.0078125 190.51655401 -206.0078125 187.19921875 C-207.96918065 185.36350075 -209.84862564 183.83271531 -212.0078125 182.26171875 C-213.29810926 181.28809188 -214.587122 180.31276157 -215.875 179.3359375 C-216.55272461 178.82595215 -217.23044922 178.3159668 -217.92871094 177.79052734 C-221.39806295 175.13514496 -224.75946753 172.34980211 -228.1328125 169.57421875 C-233.87935941 164.86460616 -239.72652568 160.35328144 -245.75 156.00390625 C-248.88222488 153.50029398 -249.91341437 151.82707607 -250.51171875 147.84765625 C-250.33338609 141.28681265 -246.82030797 135.56791179 -243.9453125 129.82421875 C-243.38392578 128.65632812 -242.82253906 127.4884375 -242.24414062 126.28515625 C-233.55118901 108.56146976 -233.55118901 108.56146976 -227.0078125 104.19921875 C-220.04680062 103.95713417 -213.19948459 106.03155189 -206.58203125 107.95703125 C-204.63219193 108.50531672 -202.68232123 109.05349059 -200.73242188 109.6015625 C-197.6988088 110.46520879 -194.66629273 111.33254715 -191.63452148 112.20263672 C-188.68206955 113.04673729 -185.72608659 113.87743854 -182.76953125 114.70703125 C-181.86426193 114.97154083 -180.95899261 115.23605042 -180.02629089 115.50857544 C-174.02977387 117.29389833 -174.02977387 117.29389833 -168.0078125 116.19921875 C-165.9098678 114.20255414 -164.0652689 112.26353917 -162.1953125 110.07421875 C-158.18646982 105.53429272 -154.17984547 101.35947698 -149.43359375 97.56640625 C-147.73151049 96.14677155 -147.73151049 96.14677155 -147.0078125 93.19921875 C-147.40423018 90.85476535 -147.40423018 90.85476535 -148.1953125 88.2722168 C-148.47890625 87.27075119 -148.7625 86.26928558 -149.0546875 85.23747253 C-149.52648437 83.61558769 -149.52648437 83.61558769 -150.0078125 81.9609375 C-150.65382618 79.67387906 -151.29965369 77.38676803 -151.9453125 75.09960938 C-152.97508063 71.49075356 -154.00885349 67.88310194 -155.046875 64.27661133 C-156.04440708 60.79928873 -157.02679518 57.31794903 -158.0078125 53.8359375 C-158.32234375 52.76075363 -158.636875 51.68556976 -158.9609375 50.57780457 C-161.66746096 40.92990384 -161.66746096 40.92990384 -160.0078125 36.19921875 C-151.50922462 27.83670724 -139.77832956 22.90033144 -129.0078125 18.13671875 C-128.1118335 17.7303418 -127.21585449 17.32396484 -126.29272461 16.90527344 C-117.91383041 13.30453048 -117.91383041 13.30453048 -113.0078125 15.19921875 C-105.89430037 21.0531714 -100.44018561 29.43309404 -94.92041016 36.76611328 C-90.92815032 42.05795844 -86.76983941 47.16400679 -82.43383789 52.17724609 C-80.46265056 54.45825045 -78.68431229 56.68446906 -77.0078125 59.19921875 C-76.3279126 59.07804687 -75.6480127 58.956875 -74.94750977 58.83203125 C-71.82311844 58.27984041 -68.69679083 57.73946252 -65.5703125 57.19921875 C-64.50103516 57.0084375 -63.43175781 56.81765625 -62.33007812 56.62109375 C-56.12118252 55.55779664 -50.30619298 54.98728586 -44.0078125 55.19921875 C-43.83362289 54.59363129 -43.65943329 53.98804382 -43.47996521 53.36410522 C-41.67418512 47.20205799 -39.61886812 41.18345215 -37.35546875 35.17578125 C-37.01406357 34.26718353 -36.67265839 33.35858582 -36.32090759 32.42245483 C-35.60432406 30.52096916 -34.8857604 28.62022861 -34.1652832 26.72021484 C-33.06668674 23.81462928 -31.98352878 20.90356495 -30.90039062 17.9921875 C-30.19886085 16.13636156 -29.49641894 14.28088011 -28.79296875 12.42578125 C-28.47304459 11.55909821 -28.15312042 10.69241516 -27.82350159 9.79946899 C-22.55629465 -3.91887331 -12.89445135 -1.82323243 0 0 Z M-11.0078125 16.19921875 C-14.07648585 23.33374818 -16.92578014 30.5333693 -19.671875 37.796875 C-19.99323425 38.64454437 -20.31459351 39.49221375 -20.64569092 40.36557007 C-21.98434789 43.89844748 -23.3217921 47.43170737 -24.64746094 50.96948242 C-25.62745116 53.5814457 -26.6175307 56.18939417 -27.609375 58.796875 C-27.90631256 59.59682388 -28.20325012 60.39677277 -28.50918579 61.22096252 C-28.79313202 61.96281296 -29.07707825 62.70466339 -29.36962891 63.46899414 C-29.7367247 64.44395592 -29.7367247 64.44395592 -30.11123657 65.43861389 C-31.4934066 68.15277919 -33.04033581 69.86680933 -35.93701172 70.86206055 C-38.00955834 71.199503 -40.04675308 71.43547269 -42.140625 71.59375 C-51.60269704 72.38321177 -60.70730646 73.51658054 -69.91845703 75.87817383 C-74.7621411 77.08424774 -79.00927441 77.69855242 -84.0078125 77.19921875 C-86.37109375 75.50390625 -86.37109375 75.50390625 -88.3203125 73.07421875 C-89.07441406 72.15640625 -89.82851562 71.23859375 -90.60546875 70.29296875 C-91.39824219 69.27203125 -92.19101563 68.25109375 -93.0078125 67.19921875 C-93.85962505 66.12546666 -94.71251723 65.05257029 -95.56640625 63.98046875 C-97.39805702 61.66943539 -99.21266817 59.34607488 -101.01953125 57.015625 C-104.85291826 52.09031135 -108.81102732 47.26664354 -112.76855469 42.44091797 C-113.29223633 41.80041504 -113.81591797 41.15991211 -114.35546875 40.5 C-115.05168335 39.65175659 -115.05168335 39.65175659 -115.76196289 38.78637695 C-116.91853248 37.31295761 -117.96878666 35.75775752 -119.0078125 34.19921875 C-124.73773868 34.70264677 -128.94745732 37.03054338 -133.8828125 39.76171875 C-135.0584375 40.39883789 -135.0584375 40.39883789 -136.2578125 41.04882812 C-138.17882841 42.09133066 -140.09430802 43.14302796 -142.0078125 44.19921875 C-140.77939967 50.78589055 -139.26301642 57.20849344 -137.40625 63.64453125 C-136.9110721 65.39832849 -136.41629216 67.15223814 -135.921875 68.90625 C-135.15159538 71.62387128 -134.37814119 74.34046667 -133.59765625 77.05517578 C-132.83700842 79.7074095 -132.08951153 82.36307929 -131.34375 85.01953125 C-131.10941254 85.82182159 -130.87507507 86.62411194 -130.63363647 87.45071411 C-129.22048681 92.52725475 -128.59736995 96.92368775 -129.0078125 102.19921875 C-131.14453125 104.8671875 -131.14453125 104.8671875 -134.0078125 107.19921875 C-134.94238281 108.06160156 -135.87695312 108.92398438 -136.83984375 109.8125 C-137.83296292 110.71264842 -138.82646317 111.61237656 -139.8203125 112.51171875 C-150.01212907 121.78912352 -150.01212907 121.78912352 -158.5859375 132.53515625 C-160.26971491 134.50573092 -161.61295166 135.2238399 -164.0078125 136.19921875 C-170.49000368 136.43302422 -176.96362808 134.27915202 -183.1171875 132.4765625 C-184.51194305 132.07915611 -184.51194305 132.07915611 -185.93487549 131.67372131 C-188.87785804 130.83486771 -191.81807854 129.98688151 -194.7578125 129.13671875 C-198.64631823 128.01326701 -202.53722084 126.89870124 -206.4296875 125.7890625 C-207.31622009 125.5297142 -208.20275269 125.27036591 -209.1161499 125.00315857 C-213.16346544 123.84941236 -216.75098967 122.83683129 -221.0078125 123.19921875 C-222.30817021 125.54893489 -223.59810719 127.90346212 -224.8828125 130.26171875 C-225.24761719 130.91849609 -225.61242187 131.57527344 -225.98828125 132.25195312 C-228.29327719 136.50571835 -229.8467289 140.49988566 -231.0078125 145.19921875 C-222.94859606 151.88681007 -214.88693845 158.56515075 -206.6328125 165.01171875 C-206.06900879 165.45451172 -205.50520508 165.89730469 -204.92431641 166.35351562 C-202.21880401 168.47752828 -199.50270745 170.5847911 -196.765625 172.66796875 C-195.77304688 173.44140625 -194.78046875 174.21484375 -193.7578125 175.01171875 C-192.45070313 176.01138672 -192.45070313 176.01138672 -191.1171875 177.03125 C-188.40453389 179.8192551 -187.64140588 181.33165918 -187.0078125 185.19921875 C-187.46342259 188.97947853 -188.35782502 192.62808249 -189.2578125 196.32421875 C-191.28465926 205.19855753 -192.72602405 213.87276942 -193.37402344 222.95361328 C-193.91650476 230.08529447 -193.91650476 230.08529447 -196.0078125 233.19921875 C-198.12632751 234.38809204 -198.12632751 234.38809204 -200.77709961 235.36572266 C-201.76830307 235.73935944 -202.75950653 236.11299622 -203.78074646 236.49795532 C-204.85470169 236.88663788 -205.92865692 237.27532043 -207.03515625 237.67578125 C-208.13501358 238.08710297 -209.23487091 238.49842468 -210.36805725 238.92221069 C-213.88898752 240.2363072 -217.41668266 241.53095587 -220.9453125 242.82421875 C-224.4689517 244.12815009 -227.99106476 245.43604918 -231.51185608 246.74765015 C-233.70459562 247.56316089 -235.89924459 248.37355918 -238.09593201 249.17837524 C-239.09028763 249.5457077 -240.08464325 249.91304016 -241.10913086 250.29150391 C-241.98468124 250.61253082 -242.86023163 250.93355774 -243.76231384 251.26431274 C-246.22526981 252.205322 -246.22526981 252.205322 -249.0078125 254.19921875 C-247.6878125 262.11921875 -246.3678125 270.03921875 -245.0078125 278.19921875 C-235.63569764 279.6496651 -226.245907 280.78345029 -216.8203125 281.82421875 C-215.6334082 281.95932861 -214.44650391 282.09443848 -213.22363281 282.23364258 C-212.06573242 282.35892334 -210.90783203 282.4842041 -209.71484375 282.61328125 C-208.6885083 282.72623535 -207.66217285 282.83918945 -206.60473633 282.95556641 C-205.41775146 283.03597168 -204.2307666 283.11637695 -203.0078125 283.19921875 C-202.17278198 283.29900528 -201.33775146 283.39879181 -200.47741699 283.50160217 C-194.97008208 283.91231551 -191.62010563 283.47797166 -187.19482422 280.04760742 C-185.57855896 278.60423429 -183.99388797 277.12493279 -182.4375 275.6171875 C-181.58979034 274.81557693 -180.74208069 274.01396637 -179.86868286 273.18806458 C-178.08797383 271.48038195 -176.32204046 269.75717396 -174.5703125 268.01977539 C-171.91457949 265.4178422 -169.17733221 262.93104129 -166.421875 260.43554688 C-157.85803511 252.2731052 -152.18922912 245.75947924 -151.44351196 233.60127258 C-151.42131532 229.12715929 -151.62929037 224.69509116 -151.92211914 220.23165894 C-152.66902095 193.80096385 -136.59488186 167.23368724 -119.48828125 148.4296875 C-98.1528892 126.09468703 -68.2050869 113.1411157 -37.3984375 112.07421875 C-7.52703482 111.44573627 20.59609869 120.4015644 43.9921875 139.19921875 C45.24708984 140.19888672 45.24708984 140.19888672 46.52734375 141.21875 C52.48131536 146.23315833 57.24369789 152.05761233 61.9921875 158.19921875 C62.66121094 159.01777344 63.33023437 159.83632812 64.01953125 160.6796875 C83.05061815 184.98671928 89.68767738 218.1178967 86.11254883 248.28540039 C83.94285634 263.92060712 78.8452556 278.54630006 70.9921875 292.19921875 C70.4146875 293.20339844 69.8371875 294.20757812 69.2421875 295.2421875 C51.27269604 324.73378343 23.23349543 341.52907874 -9.57763672 349.72192383 C-15.03233989 350.79324638 -19.94851742 351.26780158 -25.48876953 350.91796875 C-39.36940247 350.25143854 -48.38399761 352.5052744 -59.05073547 361.60749817 C-61.73650789 364.07134574 -64.31642307 366.61152074 -66.8828125 369.19921875 C-67.77515594 370.06582123 -68.66749939 370.93242371 -69.58688354 371.82528687 C-78.52138091 380.7366255 -85.76365072 389.24099345 -86.51385498 402.24807739 C-86.4073286 416.44468728 -83.49091878 430.7498999 -79.0078125 444.19921875 C-76.3425661 444.70803852 -73.67602831 445.20642016 -71.0078125 445.69921875 C-70.26402344 445.84230469 -69.52023438 445.98539062 -68.75390625 446.1328125 C-68.01269531 446.26816406 -67.27148438 446.40351563 -66.5078125 446.54296875 C-65.50234375 446.73149414 -65.50234375 446.73149414 -64.4765625 446.92382812 C-60.97504804 447.31442428 -57.53058573 447.23807287 -54.0078125 447.19921875 C-53.80371765 446.65322021 -53.5996228 446.10722168 -53.38934326 445.54467773 C-51.252951 439.83199897 -49.11040091 434.12165688 -46.96435547 428.41259766 C-46.16559155 426.28525433 -45.36836852 424.15733175 -44.57275391 422.02880859 C-43.42500706 418.95905263 -42.271627 415.8914631 -41.1171875 412.82421875 C-40.76597839 411.88118896 -40.41476929 410.93815918 -40.05291748 409.96655273 C-34.35139519 394.8710101 -34.35139519 394.8710101 -31.0078125 393.19921875 C-29.26287849 392.95530128 -27.51122449 392.75867085 -25.7578125 392.5859375 C-24.68241211 392.47411133 -23.60701172 392.36228516 -22.49902344 392.24707031 C-21.34692383 392.1281543 -20.19482422 392.00923828 -19.0078125 391.88671875 C-10.04630122 390.92664497 -1.3357086 389.69347154 7.3828125 387.3815918 C11.59866877 386.3054986 14.79749383 385.91634658 18.9921875 387.19921875 C20.94140625 388.7734375 20.94140625 388.7734375 22.6796875 390.88671875 C23.3603125 391.70398438 24.0409375 392.52125 24.7421875 393.36328125 C25.4846875 394.29914063 26.2271875 395.235 26.9921875 396.19921875 C27.39566406 396.70678711 27.79914063 397.21435547 28.21484375 397.73730469 C30.48298681 400.59676027 32.73180598 403.47068988 34.97265625 406.3515625 C38.796641 411.25028689 42.7306865 416.05898829 46.66479492 420.86938477 C49.16970882 423.93646012 51.65444549 427.00105781 53.9921875 430.19921875 C58.90035921 428.71837068 63.28477273 426.69662279 67.8046875 424.32421875 C68.48466797 423.98519531 69.16464844 423.64617187 69.86523438 423.296875 C73.50883523 421.53948287 73.50883523 421.53948287 75.75767517 418.36764526 C76.03956609 415.76113094 75.62472481 413.95689641 74.91235352 411.43408203 C74.65200821 410.49275421 74.3916629 409.55142639 74.12342834 408.58157349 C73.83390793 407.57109955 73.54438751 406.56062561 73.24609375 405.51953125 C72.95613022 404.47401093 72.66616669 403.4284906 72.36741638 402.35128784 C71.43904512 399.00628204 70.49811315 395.66500741 69.5546875 392.32421875 C68.61553184 388.99039654 67.6793621 385.65588249 66.75267029 382.318573 C66.17587754 380.24187949 65.59189869 378.16716517 64.99989319 376.09475708 C62.41932244 366.81409185 62.41932244 366.81409185 62.9921875 362.19921875 C65.015625 359.76171875 65.015625 359.76171875 67.9921875 357.19921875 C69.19620567 356.09886674 70.39647382 354.99440284 71.59375 353.88671875 C72.2439209 353.29197754 72.8940918 352.69723633 73.56396484 352.08447266 C80.57958397 345.6427829 86.98164543 339.03103382 92.953125 331.61328125 C94.9921875 329.19921875 94.9921875 329.19921875 96.9921875 328.19921875 C103.84416027 327.71851568 109.63758695 329.18042535 116.203125 331.04296875 C117.77714584 331.47579163 117.77714584 331.47579163 119.38296509 331.9173584 C122.7137724 332.83508519 126.04053324 333.76656145 129.3671875 334.69921875 C132.71594972 335.62919042 136.06547913 336.55630379 139.41567993 337.4810791 C141.49560097 338.0561599 143.5745537 338.63475642 145.6524353 339.21716309 C146.5874588 339.47743286 147.5224823 339.73770264 148.48583984 340.00585938 C149.30998383 340.23680298 150.13412781 340.46774658 150.98324585 340.70568848 C152.97111642 341.2787431 152.97111642 341.2787431 154.9921875 341.19921875 C156.28711945 338.80510038 157.57820922 336.40903995 158.8671875 334.01171875 C159.23199219 333.33818359 159.59679687 332.66464844 159.97265625 331.97070312 C163.55462875 325.90749286 163.55462875 325.90749286 164.99609375 319.1953125 C163.41413628 316.04986398 160.70121667 314.30671241 157.9296875 312.26171875 C156.65122533 311.28922898 155.37392762 310.3152069 154.09765625 309.33984375 C153.42653809 308.83001953 152.75541992 308.32019531 152.06396484 307.79492188 C148.56788977 305.10221074 145.15743138 302.30575031 141.7421875 299.51171875 C136.45957902 295.20150552 131.15850184 290.91899637 125.8125 286.6875 C123.9921875 285.19921875 123.9921875 285.19921875 121.9921875 283.19921875 C121.6070922 277.44763417 122.43071114 272.6120217 123.8671875 267.07421875 C125.85632884 258.93824066 126.73297775 250.90323424 127.22021484 242.54833984 C127.28031738 241.66355957 127.34041992 240.7787793 127.40234375 239.8671875 C127.44496338 239.08625732 127.48758301 238.30532715 127.53149414 237.50073242 C128.12905399 234.51546656 129.22121201 232.67752115 130.9921875 230.19921875 C133.28237915 228.90354919 133.28237915 228.90354919 135.99853516 227.95092773 C137.01613922 227.58382187 138.03374329 227.216716 139.08218384 226.83848572 C140.72759659 226.27261497 140.72759659 226.27261497 142.40625 225.6953125 C143.53163177 225.29014908 144.65701355 224.88498566 145.8164978 224.46754456 C149.41109554 223.17412834 153.01296513 221.90304768 156.6171875 220.63671875 C161.36612343 218.96613572 166.10681785 217.27458814 170.84375 215.5703125 C172.49523544 215.00140541 172.49523544 215.00140541 174.18008423 214.42100525 C175.19138397 214.05705154 176.20268372 213.69309784 177.24462891 213.31811523 C178.1393692 213.00454575 179.0341095 212.69097626 179.95596313 212.36790466 C182.15744712 211.38355808 182.15744712 211.38355808 182.79605103 209.20120239 C183.17981602 205.28407665 182.36229767 201.49936761 181.7421875 197.63671875 C181.61972656 196.77369141 181.49726563 195.91066406 181.37109375 195.02148438 C181.17580078 193.7772168 181.17580078 193.7772168 180.9765625 192.5078125 C180.86022461 191.75298584 180.74388672 190.99815918 180.62402344 190.22045898 C179.8525914 187.75265148 178.98906833 186.82681667 176.9921875 185.19921875 C174.99547495 184.70037795 174.99547495 184.70037795 172.77124023 184.69091797 C171.92283066 184.65433075 171.07442108 184.61774353 170.20030212 184.58004761 C169.28471024 184.55492096 168.36911835 184.52979431 167.42578125 184.50390625 C166.00278465 184.44724289 166.00278465 184.44724289 164.55104065 184.38943481 C161.51091937 184.27089315 158.47054515 184.17186869 155.4296875 184.07421875 C152.41408434 183.96556142 149.3986737 183.85284071 146.38331604 183.73757935 C144.50794753 183.66718223 142.63240575 183.60120529 140.75669861 183.54049683 C136.36252168 183.38762804 131.97142351 183.18078232 127.58618164 182.85986328 C126.79917374 182.80573273 126.01216583 182.75160217 125.2013092 182.6958313 C122.50740418 182.09023902 121.04428012 181.02059504 118.9921875 179.19921875 C117.88647461 177.23242187 117.88647461 177.23242187 117.01953125 174.98046875 C116.68228027 174.1395166 116.3450293 173.29856445 115.99755859 172.43212891 C115.64516113 171.53026855 115.29276367 170.6284082 114.9296875 169.69921875 C111.46159666 161.12197993 107.40574507 153.26409938 102.35913086 145.50585938 C101.90546143 144.77818359 101.45179199 144.05050781 100.984375 143.30078125 C100.57558105 142.67510254 100.16678711 142.04942383 99.74560547 141.40478516 C98.57442936 137.97626767 99.12050942 135.7003182 99.9921875 132.19921875 C101.40323456 129.37403839 103.12501296 126.81194581 104.91015625 124.2109375 C105.40502029 123.4676973 105.89988434 122.72445709 106.40974426 121.95869446 C107.98798417 119.5932495 109.58306067 117.23978223 111.1796875 114.88671875 C112.75480074 112.54208824 114.32629323 110.19508271 115.89607239 107.84687805 C116.87061294 106.39162296 117.84875678 104.9387711 118.8313446 103.48893738 C122.43040518 98.15193961 125.66602926 92.74281582 128.9921875 87.19921875 C123.3821875 81.58921875 117.7721875 75.97921875 111.9921875 70.19921875 C106.5417097 73.22726197 101.35620842 76.15330872 96.2421875 79.63671875 C95.31986328 80.2543811 95.31986328 80.2543811 94.37890625 80.88452148 C90.42986924 83.53186393 86.51162618 86.22125165 82.6015625 88.92578125 C80.73179968 90.20446927 78.8620082 91.48311537 76.9921875 92.76171875 C76.10821289 93.38167725 75.22423828 94.00163574 74.31347656 94.64038086 C65.57014452 100.59185707 65.57014452 100.59185707 59.9921875 100.19921875 C56.46318855 98.70129007 53.29548529 96.73599487 50.0546875 94.69921875 C42.88579858 90.38239395 35.80108608 86.51445065 28.05493164 83.34375 C19.72705691 79.93408816 19.72705691 79.93408816 16.9921875 77.19921875 C16.06818023 71.21780035 15.7354573 65.26480088 15.4921875 59.22265625 C15.40885687 57.31640613 15.32552346 55.41015614 15.2421875 53.50390625 C15.11620995 50.53063916 14.99148118 47.5573223 14.8671875 44.58398438 C14.74520297 41.69256981 14.61883612 38.80136969 14.4921875 35.91015625 C14.43901367 34.58339371 14.43901367 34.58339371 14.38476562 33.22982788 C14.19017823 28.80920551 13.84519791 24.55401459 12.9921875 20.19921875 C4.98252483 18.17451865 -2.7634005 16.73316391 -11.0078125 16.19921875 Z " fill="#000000" transform="translate(312.0078125,0.80078125)"/>
<path d="M0 0 C2.7254438 2.30470633 3.84444294 3.51258789 4.9375 6.9375 C5.02791479 11.36782459 3.09447684 13.81125321 0.14518738 17.01457214 C-0.54701401 17.66613785 -1.23921539 18.31770355 -1.95239258 18.98901367 C-2.73943069 19.73716843 -3.52646881 20.48532318 -4.33735657 21.25614929 C-5.18122421 22.05204971 -6.02509186 22.84795013 -6.89453125 23.66796875 C-8.67271671 25.3819162 -10.44936377 27.09746088 -12.22460938 28.81445312 C-15.02014118 31.51108466 -17.82295377 34.19732664 -20.65307617 36.85766602 C-23.38651387 39.43365695 -26.08000176 42.0462667 -28.76953125 44.66796875 C-29.62352005 45.45374802 -30.47750885 46.23952728 -31.3573761 47.04911804 C-35.68054134 51.12948447 -35.68054134 51.12948447 -37.07162476 56.64122009 C-36.55865905 59.18814423 -35.81255522 61.53587981 -35 64 C-34.83307686 65.55205195 -34.70186133 67.10885974 -34.625 68.66796875 C-34.05540766 73.65365306 -33.351623 78.1003744 -30 82 C-22.45394742 86.24592673 -12.63749094 88.59374545 -4 89 C-0.65307813 87.68906883 1.44241624 85.77377052 3.9230957 83.20874023 C4.68100906 82.43130966 5.43892242 81.65387909 6.21980286 80.85289001 C7.03027573 80.01327225 7.8407486 79.17365448 8.67578125 78.30859375 C10.40760875 76.54173492 12.14004974 74.77547725 13.87304688 73.00976562 C16.59851227 70.22235225 19.31909935 67.43067527 22.02905273 64.62817383 C24.64780181 61.9247418 27.28509232 59.24057561 29.92578125 56.55859375 C30.73018143 55.71695175 31.5345816 54.87530975 32.36335754 54.00816345 C38.71019123 47.60418973 38.71019123 47.60418973 42.89526367 46.91430664 C46.77868172 47.02149228 48.18966847 47.26773323 51 50 C58.09217547 66.78481527 56.80124559 88.41314979 50.15429688 105.12646484 C46.32386909 114.01736754 41.57598537 121.84892845 35 129 C33.95199219 130.16789062 33.95199219 130.16789062 32.8828125 131.359375 C19.19430604 145.87601175 -0.69204532 154.39775649 -20.58203125 155.08984375 C-28.16064559 155.1852389 -28.16064559 155.1852389 -31.19264835 154.51609981 C-34.91537042 153.80417027 -37.75347701 153.33177448 -41.17761719 155.16735864 C-43.42825491 157.05194828 -45.44293466 159.04861987 -47.4690094 161.17312622 C-48.25932916 161.95686957 -49.04964892 162.74061292 -49.86391777 163.54810607 C-52.50589493 166.18133021 -55.10657387 168.85187152 -57.70922852 171.52392578 C-59.59520357 173.41955244 -61.4832564 175.31286728 -63.37420654 177.20350647 C-67.44242804 181.27959688 -71.49023635 185.3750818 -75.52502632 189.48425674 C-81.36630967 195.43280739 -87.23980109 201.34869982 -93.12194108 207.2568209 C-102.67498646 216.85344445 -112.20468216 226.47290001 -121.71850586 236.10839844 C-130.94196542 245.44966461 -140.17117065 254.78515497 -149.41186523 264.109375 C-149.98063952 264.68330085 -150.5494138 265.25722671 -151.13542367 265.84854425 C-157.34992704 272.11881238 -163.56715246 278.38637002 -169.7879858 284.6503582 C-170.60902143 285.47709995 -170.60902143 285.47709995 -171.44664363 286.32054355 C-173.63538175 288.52440027 -175.82416445 290.7282125 -178.01331162 292.9316629 C-184.41299344 299.37325009 -190.80405988 305.82310276 -197.1797068 312.28848426 C-201.18176045 316.34637205 -205.1904672 320.39760145 -209.20438928 324.44374962 C-211.51772651 326.77631173 -213.82632744 329.11325346 -216.12827873 331.45705986 C-218.62893272 334.00237877 -221.14183315 336.53497501 -223.65797424 339.06497192 C-224.37589049 339.80204286 -225.09380674 340.53911379 -225.83347803 341.29852021 C-234.3254118 349.77579888 -244.73943921 355.25341822 -256.88720703 355.51928711 C-257.66692871 355.51292236 -258.44665039 355.50655762 -259.25 355.5 C-260.07483887 355.49427979 -260.89967773 355.48855957 -261.74951172 355.48266602 C-273.16055143 355.15279656 -282.8084659 350.96710851 -291 343 C-301.00280467 332.32106141 -303.50837465 320.77945702 -303.27734375 306.5625 C-302.41696778 285.70801371 -282.71745125 270.57666551 -268.92220116 257.09907722 C-264.40338284 252.68394251 -259.89465487 248.25851192 -255.38401794 243.83502197 C-254.4158441 242.88609215 -253.44765372 241.93717921 -252.47944725 240.98828268 C-245.43565863 234.08353279 -238.40889658 227.16172675 -231.39173889 220.22991943 C-230.62737532 219.47490125 -230.62737532 219.47490125 -229.84757005 218.70463017 C-225.12250141 214.03700671 -220.39866227 209.36814026 -215.67609394 204.69798708 C-212.4478203 201.50558004 -209.21896683 198.31376057 -205.98950195 195.12255859 C-205.45329019 194.59268316 -204.91707843 194.06280774 -204.36461783 193.51687548 C-195.67403205 184.93121646 -186.94677619 176.38375003 -178.20600157 167.84922758 C-169.20608954 159.05990416 -160.24887916 150.22867955 -151.32893187 141.35820842 C-145.8394615 135.90187819 -140.31979027 130.48042477 -134.75554378 125.10035256 C-130.48854781 120.96770736 -126.28154215 116.77732912 -122.09402084 112.56409645 C-120.37649673 110.85418105 -118.64021646 109.16285452 -116.8838253 107.4928875 C-105.60719871 96.8270762 -105.60719871 96.8270762 -101.94682366 82.2599237 C-102.06387687 78.62584802 -102.40575874 75.0487919 -102.82412922 71.43840742 C-103.98453312 55.34967726 -95.28307855 38.44690328 -86 26 C-85.33097656 25.05447266 -85.33097656 25.05447266 -84.6484375 24.08984375 C-73.57210389 9.71779124 -54.92992432 0.29494702 -37.31347656 -2.70703125 C-25.56888529 -4.19431592 -11.09812204 -4.72110588 0 0 Z M-70.5625 34.4375 C-82.04207713 47.68625889 -87.17504959 64.58790157 -86 82 C-85.69169075 84.00401011 -85.36270588 86.00511766 -85 88 C-84.85675961 89.32970322 -84.75528812 90.66432293 -84.6875 92 C-84.65011719 92.61875 -84.61273438 93.2375 -84.57421875 93.875 C-85.88985134 100.44109294 -92.19750455 105.46666542 -96.74316406 109.96348572 C-97.52780155 110.74771536 -98.31243904 111.531945 -99.12085342 112.33993918 C-101.74772969 114.9630889 -104.38167948 117.57901851 -107.015625 120.19506836 C-108.90177931 122.07574656 -110.78752235 123.95682843 -112.67272949 125.8384552 C-116.73151413 129.88806802 -120.79377725 133.93416378 -124.85827637 137.9780407 C-130.74067806 143.83087048 -136.61608758 149.6906805 -142.48953867 155.5524909 C-152.02748139 165.0714319 -161.56878724 174.58699322 -171.11328125 184.09936523 C-171.96961143 184.95281852 -171.96961143 184.95281852 -172.84324121 185.82351328 C-179.21285146 192.17157594 -185.5832731 198.51882343 -191.95458984 204.86517334 C-194.26530901 207.16686055 -196.57602045 209.46855551 -198.88671875 211.77026367 C-199.45690939 212.33823266 -200.02710004 212.90620165 -200.61456919 213.49138182 C-210.12578722 222.96586373 -219.63116754 232.44617894 -229.13199997 241.93107516 C-234.98919154 247.77794103 -240.85136524 253.61972307 -246.72007275 259.45503033 C-250.74126957 263.45407172 -254.75705553 267.45849299 -258.76864719 271.46716946 C-261.08226288 273.77873893 -263.39908131 276.08693038 -265.72093201 278.39023209 C-268.2398823 280.8897806 -270.74941322 283.39842609 -273.25683594 285.90953064 C-273.98951817 286.6321101 -274.72220039 287.35468957 -275.47708511 288.09916538 C-282.39035852 295.06103247 -286.0636486 301.18570534 -286.375 311.125 C-286.28853089 318.83804503 -284.31881607 324.3270843 -279.1328125 330.06640625 C-273.24100659 335.55701915 -267.1682563 338.58466493 -259 339 C-247.19968067 338.09681416 -239.60587789 331.06494833 -231.61087036 322.95817566 C-230.81717163 322.16562907 -230.0234729 321.37308248 -229.20572269 320.55651933 C-226.5663285 317.91738185 -223.93778037 315.26770777 -221.30908203 312.61791992 C-219.41182586 310.71654062 -217.51397438 308.81577388 -215.61534119 306.91577148 C-211.5378666 302.83306615 -207.46579823 298.7450336 -203.39731216 294.65337181 C-197.51281027 288.73554156 -191.61900136 282.82705038 -185.72273718 276.92094211 C-176.15211712 267.33402713 -166.58748538 257.74116242 -157.02734375 248.14379883 C-156.17037544 247.28349883 -156.17037544 247.28349883 -155.29609464 246.40581904 C-152.98079177 244.08149928 -150.66549842 241.75717005 -148.35021884 239.4328271 C-141.96461136 233.02234775 -135.57778887 226.61307963 -129.19042969 220.2043457 C-128.61800026 219.6299973 -128.04557084 219.0556489 -127.45579506 218.463896 C-117.92052559 208.89694847 -108.38128112 199.3339723 -98.83959281 189.77342683 C-92.95620241 183.87795522 -87.07670201 177.97865229 -81.20214789 172.07437543 C-77.18266748 168.03494163 -73.15976301 163.99894036 -69.13411565 159.96565249 C-66.81012354 157.63697298 -64.48841826 155.30608814 -62.16994667 152.97191048 C-59.66025546 150.44565722 -57.1445573 147.92554463 -54.62722778 145.40690613 C-53.89115236 144.66295867 -53.15507694 143.91901121 -52.39669621 143.15251988 C-51.72397801 142.48193368 -51.05125981 141.81134748 -50.3581562 141.12044048 C-49.77788583 140.53778445 -49.19761545 139.95512842 -48.59976113 139.35481614 C-45.45653265 136.6928583 -42.62326462 136.95304526 -38.73046875 137.2265625 C-21.64641629 138.35919411 -21.64641629 138.35919411 -5 135 C-3.98292969 134.67 -2.96585937 134.34 -1.91796875 134 C14.73918547 127.84177097 25.99929178 115.76781463 33.30078125 100.00390625 C37.06702321 91.41605805 38.45434333 83.33214188 38 74 C33.34713429 77.88355867 28.950104 81.92037286 24.69921875 86.23828125 C24.13676956 86.80451706 23.57432037 87.37075287 22.99482727 87.95414734 C21.22323256 89.73782086 19.45496696 91.52473677 17.6875 93.3125 C15.34010236 95.68645406 12.98943012 98.05709467 10.63671875 100.42578125 C9.83206429 101.24288322 9.83206429 101.24288322 9.01115417 102.07649231 C4.142239 106.97771621 4.142239 106.97771621 1.21044922 107.03491211 C-6.63636883 106.36379162 -14.07980834 104.30369215 -21.63378906 102.18920898 C-23.88875669 101.55865322 -26.14709257 100.94152845 -28.40625 100.32617188 C-29.85177658 99.92785944 -31.29709696 99.52879777 -32.7421875 99.12890625 C-33.41200653 98.94550186 -34.08182556 98.76209747 -34.77194214 98.57313538 C-41.71494312 96.61872218 -41.71494312 96.61872218 -44 95 C-45.03320312 92.80786133 -45.03320312 92.80786133 -45.78125 90.08203125 C-46.06411865 89.08163818 -46.3469873 88.08124512 -46.63842773 87.05053711 C-46.92274658 85.98198486 -47.20706543 84.91343262 -47.5 83.8125 C-47.80043213 82.72783447 -48.10086426 81.64316895 -48.41040039 80.52563477 C-49.00981861 78.35328886 -49.60246014 76.17906059 -50.18798828 74.00292969 C-50.88246935 71.43464432 -51.60152801 68.87623978 -52.33984375 66.3203125 C-55.77367858 54.20115309 -55.77367858 54.20115309 -55 49 C-53.08594542 45.93597252 -50.55809703 43.53313491 -48 41 C-46.99420555 39.98267344 -45.98921747 38.96454927 -44.98486328 37.94580078 C-41.53344142 34.46166584 -38.05008903 31.01037675 -34.5625 27.5625 C-32.18596628 25.21247389 -29.81271916 22.85919893 -27.44140625 20.50390625 C-26.62126793 19.69621544 -26.62126793 19.69621544 -25.78456116 18.87220764 C-24.50410942 17.60025004 -23.24912782 16.3027327 -22 15 C-22 14.67 -22 14.34 -22 14 C-41.25068333 12.97683376 -57.24031609 20.86524097 -70.5625 34.4375 Z " fill="#000000" transform="translate(303,157)"/>
</svg>
